<?xml version="1.0" encoding="UTF-8"?><svg id="a" xmlns="http://www.w3.org/2000/svg" viewBox="0 0 1376.43 927.77"><defs><style>.b{fill:#5fffb4;}.c{fill:#4c4c4c;}.d{fill:#9c9c9c;}.e{fill:#f6f399;}.f{fill:#777;}.g{fill:#eaeaea;}.h{stroke-width:.75px;}.h,.i{stroke:#5fffb4;stroke-miterlimit:10;}.j,.i{fill:none;}.k{fill:#4f4f4f;}.l{fill:#050505;}.m{fill:#11110b;}.n{fill:#1b5598;}.i{stroke-width:10px;}.o{fill:#fefe01;}.p{fill:#aeae88;}.q{fill:#a2a2a2;}.r{fill:#b4bbba;}.s{fill:#fefefe;}.t{fill:#fcfcfc;}.u{fill:#dfdfdf;}</style></defs><g><path class="s" d="M295.98,927.51c-97.64,0-195.28-.01-292.92,.06C.56,927.58,0,927.01,0,924.51,.07,617.36,.07,310.21,0,3.06,0,.56,.56,0,3.06,0,459.83,.06,916.6,.06,1373.37,0c2.5,0,3.06,.56,3.06,3.06-.07,307.15-.07,614.3,0,921.45,0,2.5-.56,3.08-3.06,3.06-20.33-.12-40.66-.07-60.98-.07,.28-.26,.57-.51,.85-.77,20.09,.03,40.19,.02,60.28,.16,2.62,.02,2.18-1.44,2.18-2.94,0-37.85-.02-75.69,.06-113.54,0-2.38-.65-2.93-2.95-2.9-9.32,.13-18.65-.01-27.98,.11-2.09,.03-2.58-.59-2.57-2.61,.09-11.54,.11-23.09,0-34.63-.02-2.28,.75-2.75,2.84-2.73,8.77,.1,17.55-.11,26.31,.12,3.31,.09,4.4-.59,4.38-4.21-.15-37.62-.09-75.25-.1-112.87,0-16.98-.05-33.96-.08-50.94,0-6.26,0-12.52,0-18.78,.03-.55,.07-1.11,.07-1.66,0-76.06-.02-152.12,.09-228.17,0-3.29-1.5-3.12-3.79-3.12-384.3,.03-768.61,.03-1152.91-.04-3.09,0-3.79,.83-3.79,3.83,.1,40.08,.03,80.17,.14,120.25,0,3.32-.63,4.39-4.23,4.39-65.98-.13-131.95-.07-197.93-.17-3.19,0-3.97,.71-3.97,3.94,.11,61.4,.11,122.8,0,184.2,0,3.29,.87,3.92,4.01,3.92,65.86-.1,131.73-.08,197.59-.08q4.45,0,4.45,4.3c0,83.28,0,166.55,0,249.83,0,.78,.09,1.57-.02,2.33-.3,2.23,.93,2.35,2.58,1.95,2.47-.32,1.3-2.26,1.3-3.39,.08-22.2,.06-44.39,.06-66.59v-3.2c.27,.02,.55,.04,.82,.06v3.59c0,22.08-.02,44.17,.05,66.25,0,1.12-.9,2.76,1.06,3.34,3.57,0,7.15,.01,10.72,.02h1.36c.25-.01,.5-.01,.75-.01,4.17,.37,8.39,.95,10.3-4.28,.27-.74,1.15-1.52,1.91-1.75,.91-.28,1.91-1.79,2.86-.48,.75,1.03,.52,2.22-.51,3.29-.92,.96-2.4,1.48-3,3.5,6.12-.47,11.9-2.39,17.68-.22-3.05,.47-6.12,.38-9.17,.5-2.13,.08-2.94-.75-3.07-2.86-.33-5.2-.83-10.39-1.31-15.58-.17-1.87,.28-3.36,2.21-3.93,1.53-.45,2.93,0,3.73,1.44,.94,1.67,.71,3.38-.92,4.4-2.93,1.84-1.26,4.46-1.07,6.58,.17,1.96,2.38,.74,3.66,1.04,.42,.1,.92-.09,1.32,.04,1.45,.44,4.19-1.2,4.11,1.62-.08,2.74-2.78,.99-4.23,1.5-1.5,.53-4.37-1.24-4.37,1.14,0,2.4,2.87,.82,4.43,1.19,3.12,.73,7.23-2,9.25,2.67,.08,.19,.6,.28,.91,.27,4.86-.19,9.73,.49,14.57-.37l.21,.07,.22-.04c.32,.1,.64,.19,.96,.29l9.82-.04h1.4l.03,.77Zm242.66-581.04l-.04-.45c-1.56-.49-3.13-.98-4.69-1.47-7.95-2.47-15.8-5.4-22.22-10.77-9.27-7.77-14.58-17.86-15.04-30.12-.17-4.53-.15-9.25,2.62-13.14,1.69-2.37,2.71-4.99,4-7.52,4-7.86,7.52-15.95,11.41-23.86,5.44-11.05,11.15-21.95,16.72-32.93,3.94-7.76,7-15.92,11.38-23.51,5.58-9.65,8.92-20.39,14.97-29.94,5.63-8.9,8.91-19.16,13.92-28.52,6.06-11.34,10.85-23.3,17.16-34.58,6.84-12.21,12.26-25.21,18.32-37.86,1.76-3.68,3.31-7.5,5.45-10.96,1.14-1.84,.93-2.09-.88-2.87-20.8-9.01-41.55-18.12-62.32-27.21-11.35-4.97-22.68-9.99-34.04-14.97-5.37-2.35-10.76-4.67-16.15-6.97-.8-.34-1.51-1.1-2.29,.47-4.24,8.55-8.68,16.99-13,25.5-4.49,8.85-8.53,17.93-12.79,26.89-5.91,12.43-12.75,24.38-18.59,36.83-3.08,6.58-6.04,13.2-9.5,19.62-5.92,10.97-10.17,22.77-16.74,33.49-4.77,7.77-7.74,16.55-12.01,24.67-6.34,12.06-11.25,24.84-18.26,36.62-3.76,6.32-6.21,13.35-9.76,19.85-5.33,9.77-9.35,20.21-14.49,30.13-3.94,7.62-8.05,15.19-11.52,23.07-.82,1.85-2.05,3.6-3.4,5.13-8.66,9.82-17.32,19.55-27.59,27.87-7.23,5.86-14.5,11.55-22.37,16.5-1.4,.88-2.8,1.8-4.32,2.42-7.43,3.05-14.6,6.82-22.53,8.61h258.56Z"/><path class="r" d="M1235.74,927.51h-2c-.39-1.07-1.39-.39-2.05-.71,.05-11.2,.13-22.39,.15-33.59,.03-14.08,.09-28.17-.06-42.25-.03-2.99,1.55-3.03,3.53-2.73,2.24,.33,1.37,2.25,1.37,3.49,.06,23.73,.04,47.46,.05,71.19,0,1.31-.28,2.67,.33,3.93-.46,.19-1.2-.17-1.34,.67Z"/><path class="u" d="M811.18,927.51h-4c-.24-.23-.48-.46-.72-.7,.06-1.1,.17-2.21,.18-3.31,.01-23.17,.02-46.34-.02-69.5,0-1.91,.15-3.11,2.59-3.12,2.46-.02,2.63,1.2,2.61,3.1-.07,5.98-.04,11.97-.02,17.96,.04,18.29,.09,36.57,.13,54.86l-.74,.71Z"/><path class="u" d="M1121.77,927.51h-3.33l-.67-.67c.08-1.21,.22-2.42,.22-3.63,.01-17.74,.01-35.48,.01-53.21,0-5.43,.14-10.87-.06-16.29-.1-2.72,1.29-2.87,3.27-2.66,2.24,.24,1.34,2,1.34,3.1,.05,22.95,.03,45.9,.06,68.84,0,1.3-.38,2.66,.41,3.89-.47,.11-1.02,.07-1.26,.63Z"/><path class="u" d="M888.5,927.51h-2.67l-.77-.73c.04-22.5,.07-45.01,.11-67.51,0-2.11,.06-4.21-.01-6.32-.05-1.43,.54-1.99,1.95-1.99,1.46,0,1.98,.68,1.9,2.05-.05,.77,0,1.55,0,2.33,0,18.74-.01,37.47,0,56.21,0,5.09,.12,10.19,.18,15.28-.23,.23-.46,.45-.69,.68Z"/><path class="g" d="M965.81,927.51h-2.67l-.87-.78c0-9.09,.02-18.18,.02-27.27,0-15.19,0-30.37,0-45.56,0-2.59,1.32-3.71,3.31-2.82,1.67,.74,.94,2.32,.94,3.5,.06,24.05,.07,48.1,.09,72.16-.28,.25-.56,.51-.84,.76Z"/><path class="u" d="M733.2,927.51h-2.67c-.26-.24-.52-.49-.78-.73,.03-21.84,.06-43.68,.09-65.53,0-2.77,.05-5.55-.02-8.32-.04-1.45,.55-1.93,1.96-1.93,1.47,0,2,.61,1.9,2-.05,.77,0,1.55,0,2.33,0,19.63-.01,39.25,0,58.88,0,4.21,.12,8.41,.19,12.62-.23,.23-.46,.45-.69,.68Z"/><path class="g" d="M1043.79,927.51h-2.67c-.21-.22-.43-.44-.64-.66,.09-1.32,.26-2.64,.26-3.96,.02-22.54,.01-45.07,.01-67.61,0-.78,.03-1.56,0-2.33-.07-1.42,.62-1.99,2-1.98,1.31,.01,1.75,.67,1.71,1.88-.03,.89,0,1.78,0,2.66,.04,23.76,.07,47.51,.11,71.27-.26,.24-.52,.48-.78,.72Z"/><path class="g" d="M609.9,927.51h-2.67c-.2-.21-.4-.43-.61-.64,.63-1.27,.32-2.62,.33-3.93,.02-21.97,.02-43.95,.02-65.92,0-.67,0-1.33,0-2,0-1.35-.2-2.69,1.93-2.65,1.93,.04,1.73,1.26,1.73,2.49,0,.89,0,1.78,0,2.66,.03,23.08,.05,46.16,.08,69.25-.27,.25-.54,.49-.81,.74Z"/><path class="g" d="M1313.24,926.74c-.28,.26-.57,.51-.85,.77h-2c-.27-.25-.54-.49-.81-.74,.02-24.85,.04-49.7,.07-74.55,0-.89-.01-1.78,.03-2.66,.06-1.26,1.01-1.27,1.92-1.29,.86-.02,1.55,.23,1.59,1.26,.03,.89,.03,1.77,.03,2.66,0,24.85,.02,49.7,.02,74.56Z"/><path class="g" d="M532.59,927.51h-2.67l-.08-.88c-.03-23.97-.07-47.94-.1-71.92,0-.33,.01-.67,.02-1,.05-1.21,.89-1.39,1.84-1.39,1.02,0,1.72,.35,1.71,1.52,0,.89,.02,1.78,.02,2.66,.02,23.42,.05,46.84,.07,70.25-.27,.25-.55,.5-.82,.75Z"/><path class="g" d="M295.98,927.51c-.01-.25-.02-.51-.03-.76,0-12.05,.04-24.1,.01-36.15-.02-12.6-.09-25.2-.14-37.8,1.2-1.07,2.25,.09,3.36,.24,.03,24.6,.06,49.21,.1,73.81l-.64,.65h-2.67Z"/><path class="s" d="M529.84,926.63l.08,.88h-152.63c.24-.23,.48-.46,.72-.69l.29,.02,.29-.03c.28,0,.56,0,.85,0l3.87-.04c1.33-.56,.69-1.73,.69-2.6,.05-6.44,.01-12.87,0-19.31l.76-.02c-.05,6.65-.11,13.31-.16,19.96,0,.96-.24,2.17,1.36,2.03,3.51-.31,7.64,1.5,9.95-2.99,.3-.58,1.21-.93,1.91-1.18,.72-.26,1.34-1.68,2.18-.58,.55,.72,.77,1.84,.23,2.84-.34,.64-1.4,.81-1.18,1.81,3.68,.17,3.61,.18,3.26-3.44-.41-4.16-.66-8.33-1.71-12.42-.58-2.25,1.3-3.12,2.91-3.75,1.49-.58,2.87,.03,3.73,1.42,.95,1.52,.88,3.32-.6,4.16-3.37,1.93-1.73,4.85-1.28,7.06,.37,1.79,2.89,.58,4.42,.84,.87,.14,1.77,.06,2.66,.04,1.2-.02,1.46,.68,1.45,1.72-.01,1.02-.54,1.35-1.45,1.35-1.66,0-3.33-.02-4.99,.03-.82,.02-1.96-.29-1.93,1.12,.03,1.25,1.01,1.26,1.93,1.23,9.06-.3,18.07,1.46,27.14,.67,.64,.02,1.27,.04,1.91,.06,5.43,0,10.86,0,16.29-.01h2.54c24.18,0,48.36,.02,72.54,.02,.66,0,1.32-.13,1.98-.2Z"/><path class="u" d="M378.01,926.82c-.24,.23-.48,.46-.72,.69h-1.33c-.01-.28-.03-.57-.04-.85-.01-23.35-.02-46.71-.04-70.06,0-1.42,.26-2.89-.46-4.24,2.28-.41,2.49,.91,2.48,2.73-.06,8.53-.04,17.05-.02,25.58,.03,15.39,.09,30.77,.13,46.16Z"/><path class="s" d="M375.92,926.66c.01,.28,.03,.57,.04,.85h-77.31c.21-.22,.42-.43,.64-.65,.32-.04,.64-.08,.96-.12l4.4,.07c.23-.02,.46-.03,.68-.05,.26-.02,.52-.04,.78-.06,3.66,.04,7.32,.17,10.98,.09,1.7-.04,3.19-3.61,5.37,.99-.47-5.48-.85-9.67-1.18-13.87-.13-1.76,.65-3.05,2.41-3.5,1.57-.4,2.85,.14,3.68,1.56,.83,1.42,.84,3.21-.47,3.91-3.43,1.83-2.03,4.8-1.5,6.99,.56,2.33,3.24,.7,4.94,1.05,1.07,.22,2.21,.05,3.32,.06,.81,0,1.69,.06,1.59,1.16-.17,1.99,1.17,1.72,2.38,1.72,5.66-.02,11.33-.04,16.99-.06,.66,0,1.33,.02,1.99,.03,6.21-.04,12.42-.08,18.63-.11,.22-.02,.45-.03,.67-.05Z"/><path class="s" d="M609.9,927.51c.27-.25,.54-.49,.81-.74,39.68,0,79.36,0,119.04,0,.26,.24,.52,.49,.78,.73h-120.64Z"/><path class="s" d="M1121.77,927.51c.24-.57,.79-.52,1.26-.63,36.22-.03,72.44-.05,108.67-.08,.65,.32,1.65-.36,2.05,.71h-111.97Z"/><path class="s" d="M1040.48,926.86c.21,.22,.43,.44,.64,.66h-75.31c.28-.25,.56-.51,.84-.76,24.61,.04,49.22,.07,73.83,.11Z"/><path class="s" d="M1309.58,926.77c.27,.25,.54,.49,.81,.74h-74.65c.13-.84,.87-.48,1.34-.67,24.17-.02,48.34-.05,72.51-.07Z"/><path class="s" d="M532.59,927.51c.27-.25,.55-.5,.82-.75,24.41,.03,48.81,.07,73.22,.1,.2,.21,.4,.43,.61,.64h-74.65Z"/><path class="s" d="M885.06,926.79c.26,.24,.52,.48,.77,.73h-74.65l.74-.71c24.38,0,48.76-.01,73.14-.02Z"/><path class="s" d="M962.28,926.74l.87,.78h-74.65c.23-.23,.46-.45,.69-.68,24.36-.03,48.73-.06,73.09-.1Z"/><path class="s" d="M1043.79,927.51c.26-.24,.52-.48,.78-.72l73.2,.06c.22,.22,.45,.45,.67,.67h-74.65Z"/><path class="s" d="M733.2,927.51c.23-.23,.46-.45,.69-.68,24.19,0,48.38-.01,72.57-.02,.24,.23,.48,.46,.72,.7h-73.98Z"/><path class="k" d="M806.46,926.82c-24.19,0-48.38,.01-72.57,.02-.07-4.21-.18-8.41-.19-12.62-.02-19.63,0-39.25,0-58.88,0-.78-.05-1.56,0-2.33,.09-1.39-.44-2-1.9-2-1.41,0-2,.47-1.96,1.93,.07,2.77,.02,5.54,.02,8.32-.03,21.84-.06,43.68-.09,65.53-39.68,0-79.36,0-119.04,0-.03-23.08-.05-46.16-.08-69.25,0-.89,0-1.78,0-2.66,0-1.22,.2-2.44-1.73-2.49-2.13-.05-1.93,1.3-1.93,2.65,0,.67,0,1.33,0,2,0,21.97,0,43.95-.02,65.92,0,1.31,.3,2.67-.33,3.93-24.41-.03-48.81-.07-73.22-.1-.02-23.42-.05-46.84-.07-70.25,0-.89-.02-1.78-.02-2.66,.01-1.17-.7-1.53-1.71-1.52-.95,0-1.8,.18-1.84,1.39-.01,.33-.02,.67-.02,1,.03,23.97,.07,47.94,.1,71.92-.66,.07-1.32,.2-1.98,.2-24.18,0-48.36-.02-72.54-.03-.05-1.33-.16-2.66-.16-3.98,0-22.54,0-45.08-.01-67.62,0-2.87-1.32-4.04-3.47-2.68-1.81,1.15-3.55,1.02-5.38,1.02-21.33,.02-42.65,.08-63.98-.06-3.01-.02-3.66,.85-3.64,3.72,.13,18.87,.08,37.75,.06,56.63,0,4.33-.1,8.65-.16,12.98l-.29,.03-.29-.02c-.05-15.39-.1-30.77-.13-46.16-.02-8.53-.04-17.05,.02-25.58,.01-1.82-.2-3.13-2.48-2.73-2.93,.68-5.9,.52-8.87,.52-15.05,0-30.09-.02-45.14,0-7.41,.01-14.82,.11-22.23,.16-1.12-.16-2.16-1.31-3.36-.24-1.44,.71-2.99,.68-4.55,.67-21.51-.01-43.02,0-64.53-.02-1.61,0-3.09,0-4.71-.96-2.44-1.44-4.15-.15-4.15,2.69,0,23.83,.02,47.66,.03,71.49-1.66,.4-2.88,.28-2.58-1.95,.1-.76,.02-1.55,.02-2.33,0-83.28,0-166.55,0-249.83q0-4.3-4.45-4.3c-65.86,0-131.73-.02-197.59,.08-3.14,0-4.02-.63-4.01-3.92,.11-61.4,.11-122.8,0-184.2,0-3.23,.78-3.95,3.97-3.94,65.98,.1,131.95,.04,197.93,.17,3.6,0,4.24-1.06,4.23-4.39-.11-40.08-.04-80.17-.14-120.25,0-3,.7-3.83,3.79-3.83,384.3,.08,768.61,.07,1152.91,.04,2.29,0,3.79-.16,3.79,3.12-.11,76.06-.08,152.12-.09,228.17,0,.55-.05,1.11-.07,1.66-3.47-.57-4.27,1.11-4.02,4.27,.27,3.39,.28,6.83,0,10.22-.26,3.17,.55,4.84,4.01,4.29,.03,16.98,.07,33.96,.08,50.94,.01,37.62-.06,75.25,.1,112.87,.01,3.61-1.07,4.3-4.38,4.21-8.76-.23-17.54-.02-26.31-.12-2.1-.02-2.87,.45-2.84,2.73,.12,11.54,.1,23.09,0,34.63-.02,2.02,.47,2.64,2.57,2.61,9.32-.12,18.65,.03,27.98-.11,2.3-.03,2.95,.52,2.95,2.9-.08,37.85-.06,75.69-.06,113.54,0,1.51,.43,2.96-2.18,2.94-20.09-.15-40.19-.13-60.28-.16,0-24.85-.01-49.7-.02-74.56,0-.89,0-1.78-.03-2.66-.04-1.02-.73-1.28-1.59-1.26-.9,.02-1.86,.02-1.92,1.29-.04,.89-.03,1.77-.03,2.66-.02,24.85-.04,49.7-.07,74.55-24.17,.02-48.34,.05-72.51,.07-.61-1.27-.33-2.62-.33-3.93-.02-23.73,0-47.46-.05-71.19,0-1.23,.87-3.15-1.37-3.49-1.98-.29-3.57-.25-3.53,2.73,.15,14.08,.08,28.17,.06,42.25-.02,11.2-.09,22.39-.15,33.59-36.22,.03-72.44,.05-108.67,.08-.8-1.22-.41-2.59-.41-3.89-.03-22.95,0-45.9-.06-68.84,0-1.1,.89-2.86-1.34-3.1-1.98-.21-3.37-.06-3.27,2.66,.2,5.42,.06,10.86,.06,16.29,0,17.74,0,35.48-.01,53.21,0,1.21-.15,2.42-.22,3.63l-73.2-.06c-.04-23.76-.07-47.51-.11-71.27,0-.89-.03-1.78,0-2.66,.05-1.21-.4-1.87-1.71-1.88-1.39-.01-2.07,.56-2,1.98,.04,.78,0,1.55,0,2.33,0,22.54,0,45.07-.01,67.61,0,1.32-.17,2.64-.26,3.96-24.61-.04-49.22-.07-73.83-.11-.02-24.05-.02-48.1-.09-72.16,0-1.18,.73-2.76-.94-3.5-1.99-.88-3.31,.23-3.31,2.82-.02,15.19,0,30.37,0,45.56,0,9.09-.02,18.18-.02,27.27-24.36,.03-48.73,.06-73.09,.1-.06-5.09-.18-10.19-.18-15.28-.02-18.74,0-37.47,0-56.21,0-.78-.04-1.55,0-2.33,.08-1.37-.44-2.05-1.9-2.05-1.41,0-2,.56-1.95,1.99,.07,2.1,.02,4.21,.01,6.32-.04,22.5-.07,45.01-.11,67.51-24.38,0-48.76,.01-73.14,.02-.04-18.29-.09-36.57-.13-54.86-.01-5.99-.05-11.97,.02-17.96,.02-1.91-.15-3.12-2.61-3.1-2.44,.02-2.59,1.22-2.59,3.12,.04,23.17,.03,46.34,.02,69.5,0,1.1-.11,2.21-.18,3.31Zm-396.28-90.44c-1.12-.05-.58-2.72-2.21-1.6-1.29,.89-.24,2.48,.2,3.31,.74,1.4,1.19-.55,1.92-.62,.77,.38,1.37,1.98,2.37,.73,.98-1.23,.17-2.57-.31-3.78-1.34,.23-1.31,1.4-1.97,1.95Zm85.11-393.94c-.69,.02-1.37,.04-2.06,.06-3.13-.56-2.39,1.73-2.39,3.34-.02,94.83-.01,189.66-.01,284.49,0,.44,.04,.89,0,1.33-.26,2.96,1.84,2.73,3.51,2.26,1.73-.49,.88-2.29,.89-3.47,.05-45.42,.07-90.83-.03-136.25,0-3.09,.57-4.11,3.92-4.08,21.77,.17,43.54,.19,65.31,0,3.57-.03,4.1,1.1,4.09,4.3-.1,45.19-.07,90.39-.07,135.58,0,1-.05,2,.04,3,.13,1.47,1.35,1.21,2.29,1.27,.94,.06,1.83-.11,1.87-1.34,.03-1,.03-2,.03-3,0-45.42,.03-90.83-.06-136.25,0-2.73,.67-3.54,3.47-3.53,21.99,.11,43.99,.14,65.98-.02,3.37-.03,4.21,.82,4.2,4.19-.12,45.19-.08,90.39-.08,135.58,0,1,0,2,.02,3,.04,1.24,.95,1.34,1.87,1.34,.95,0,1.81-.13,1.81-1.39,0-.89,.01-1.78,.01-2.66,0-45.53,.03-91.06-.07-136.58,0-2.79,.73-3.48,3.48-3.46,22.22,.12,44.43,.13,66.65-.01,3.16-.02,4.04,.69,4.03,3.96-.12,45.19-.08,90.39-.08,135.58,0,.78,.08,1.57-.02,2.33-.24,1.86,.8,2.24,2.35,2.28,2.87,.08,2.09-2.02,2.1-3.51,.03-45.64,.05-91.28-.04-136.92,0-2.83,.56-3.75,3.61-3.73,22.1,.14,44.21,.14,66.31,0,2.91-.02,3.67,.67,3.66,3.64-.11,45.42-.07,90.83-.07,136.25,0,.89,.04,1.78,0,2.66-.05,1.18,.64,1.52,1.65,1.57,1.13,.05,2-.21,2.02-1.58,0-.89,.02-1.78,.02-2.66,0-26.54,0-53.08,0-79.62,0-18.99,.02-37.98-.02-56.97,0-1.96,0-3.29,2.71-3.28,23.44,.13,46.87,.12,70.31,.15,.43,1.79-1.47,4.12,1.26,5.38,0,44.7,.01,89.41,.02,134.11,0,.89,.04,1.78,0,2.66-.07,1.28,.48,1.86,1.77,1.72,1.05-.12,2.37,.2,2.47-1.48,.04-.77,.04-1.55,.04-2.33,0-43.82,0-87.63,0-131.45,0-.99-.09-1.99-.13-2.98,.86-1.19,3.57,.47,3.44-2.5-.21-4.76-.05-9.53-.06-14.3,0-.63,.17-1.68-.58-1.69-3.61-.07-2.48-2.73-2.48-4.54-.04-42.24-.03-84.48-.03-126.72q0-4.12-4.25-3.65l-74.77-.07c-1.34-.09-2.73-.42-3.83,.75-1.27-1.04-2.77-.58-4.16-.58-25.66,.02-51.32,.09-76.98,.11-21.28,.02-42.57,0-63.85,.02-1.2,0-2.44-.28-3.6,.28-3.19-.21-2.12,2.22-2.13,3.7-.06,46.45-.06,92.9-.08,139.34l-.66-.39c0-46.5,0-92.99,0-139.49,0-.55,.05-1.11-.01-1.66-.09-.8,.36-1.94-.99-2.09-1.06-.11-2.3-.46-2.67,1.13-.13-.12-.27-.13-.41,0-.1-.14-.24-.21-.42-.2-1.25-.68-2.61-.37-3.92-.37-17.75-.02-35.5-.02-53.25,0-1.79,0-3.44,.07-3.14-2.5,.24-2.03-1.18-2.02-2.58-2.02-4.44,0-8.89,.22-13.31-.07-3.17-.21-4.56,.71-4.03,3.94l-69.87,.07Zm852.44,147.27v-99.27c0-14.66,0-29.31,0-43.97,0-2.48-1.89-3.83-3.71-2.66-1.42,.91-.73,2.45-.73,3.68-.04,45.53-.06,91.05,.03,136.58,0,2.89-.69,3.75-3.67,3.73-21.77-.13-43.54-.07-65.31-.07q-4.57,0-4.57-4.43c0-44.97,0-89.94,0-134.91,0-.78-.02-1.56,0-2.33,.05-1.31-.02-2.45-1.81-2.5-2-.05-2.05,1.22-2,2.66,.03,.78,0,1.55,0,2.33,0,45.08-.03,90.16,.07,135.25,0,3.24-.9,4.03-4.08,4.01-21.66-.14-43.32-.07-64.98-.07q-4.28,0-4.29-4.36c0-45.42-.02-90.83,.05-136.25,0-2.63-.46-3.91-3.41-3.6-2.86,.29-1.87,2.34-1.87,3.74-.05,45.53-.06,91.05,.02,136.58,0,2.93-.59,3.99-3.8,3.97-21.88-.15-43.76-.14-65.65,0-3.11,.02-3.85-.86-3.84-3.88,.09-45.3,.07-90.61,.07-135.91,0-.89-.02-1.78,0-2.66,.03-1.3-.67-1.77-1.87-1.75-1.11,.02-1.99,.27-1.95,1.65,.02,.89,0,1.78,0,2.66,0,45.3-.03,90.61,.06,135.91,0,2.95-.63,4-3.83,3.98-21.88-.14-43.76-.14-65.65,0-3.24,.02-4.04-.93-4.03-4.09,.1-45.19,.07-90.39,.07-135.58,0-.78-.06-1.56,.01-2.33,.17-1.84-.82-2.26-2.42-2.25-2.84,.02-2.04,2.11-2.04,3.59-.03,45.42-.02,90.83-.02,136.25,0,4.32,0,4.33-4.44,4.33-21.44,0-42.88,.02-64.31,0-5.45,0-4.86,.68-4.86-4.71-.01-45.42,0-90.83-.03-136.25,0-1.27,.7-3.04-1.75-3.15-2.29-.1-2.08,1.37-2.08,2.85,0,14.99,0,29.98,0,44.97s.36,29.99-.1,44.97c-.45,14.72,1.62,29.46-1.47,44.19-1.37,6.52,1.22,13.52,1.3,20.15,.53,43.41,.27,86.83,.27,130.25,0,.78,.04,1.56,0,2.33-.09,1.46,.32,2.28,2.02,2.27,1.84,0,1.88-1.12,1.84-2.43-.02-.78,0-1.55,0-2.33,0-45.19,.03-90.39-.06-135.58,0-2.84,.58-3.75,3.62-3.74,22.1,.14,44.21,.14,66.31,0,3.11-.02,3.82,.95,3.81,3.93-.09,45.19-.06,90.39-.06,135.58,0,.78,.07,1.56-.01,2.33-.22,2.13,1.09,2.36,2.7,2.27,2.61-.15,1.75-2.16,1.75-3.51,.04-45.64,.06-91.27-.04-136.91,0-2.91,.69-3.72,3.66-3.7,21.88,.13,43.76,.15,65.65-.01,3.43-.03,4.22,.93,4.21,4.26-.11,45.08-.07,90.16-.07,135.25,0,.89,.04,1.78,0,2.66-.07,1.44,.64,1.98,2.02,1.95,1.23-.03,1.85-.54,1.81-1.81-.03-.89,0-1.78,0-2.66,0-45.3,.03-90.61-.06-135.91,0-2.85,.6-3.75,3.63-3.73,21.66,.14,43.32,.06,64.98,.08,5.13,0,4.61-.61,4.61,4.63,.01,45.3,.02,90.61-.04,135.91,0,2.61,.44,3.96,3.45,3.57,2.83-.36,1.82-2.39,1.83-3.79,.05-45.42,.08-90.83-.05-136.25-.01-3.48,1-4.18,4.28-4.16,21.66,.15,43.32,.16,64.98-.01,3.42-.03,4.18,.89,4.18,4.22-.12,45.19-.08,90.38-.08,135.57,0,1-.02,2,.04,3,.07,1.2,.97,1.32,1.91,1.35,1,.03,1.77-.27,1.82-1.43,.04-1,.03-2,.03-3,0-45.3,.03-90.61-.06-135.91,0-2.87,.66-3.79,3.67-3.77,21.99,.13,43.99,.15,65.98-.01,3.3-.02,3.98,.94,3.97,4.08-.11,39.09-.07,78.17-.07,117.26,0,6.77,.03,13.55-.02,20.32-.01,1.6,.32,2.48,2.19,2.45,1.71-.02,2.49-.58,2.32-2.33-.07-.77-.01-1.55-.01-2.33,0-47.08,0-94.16,0-141.24Zm-1277.34-20.32c0-21.21-.05-42.42,.06-63.63,.01-2.59-.63-3.35-3.29-3.33-16.77,.13-33.55,.12-50.32,0-2.57-.02-3.38,.59-3.38,3.29,.09,42.53,.08,85.06,.01,127.59,0,2.47,.63,3.21,3.16,3.19,16.77-.11,33.55-.12,50.32,0,2.78,.02,3.52-.74,3.5-3.51-.12-21.21-.06-42.42-.06-63.63Zm74.77-24.66c0,2.15-.17,3.48,.03,4.76,.53,3.45-.76,4.36-4.25,4.34-21.09-.18-42.18,0-63.27-.17-3.17-.02-3.74,.96-3.7,3.85,.16,10.87,.17,21.75,0,32.62-.04,2.81,.49,3.7,3.55,3.67,21.31-.16,42.62-.04,63.94-.14,2.44-.01,3.39,.5,3.16,3.08-.24,2.66-.05,5.36-.05,8.04,2.62-3.3,4.73-6.6,6.57-10.03,3.19-5.95,5.96-12.15,9.43-17.93,1.64-2.73,1.64-4.34-.12-7.05-5.14-7.92-8.9-16.7-15.27-25.03Zm643.4,278.6c5.89-10.06,12.03-19.86,17.08-30.26,.48-.98,.54-1.78,0-2.79-4.86-9.22-10.71-17.83-16.45-27.6,0,2.54-.19,4.18,.04,5.77,.44,3.1-.8,3.8-3.79,3.78-21.2-.13-42.4-.03-63.59-.13-2.5-.01-3.18,.64-3.15,3.14,.15,9.98,.06,19.97,.06,29.95q0,6.75,6.8,6.75c19.98,0,39.95,.05,59.93-.06,2.49-.01,3.33,.61,3.12,3.13-.23,2.75-.05,5.54-.05,8.31Zm147.27-237.18c0,2.43,.11,4.87-.03,7.29-.13,2.17,1.13,2.19,2.71,2.24,1.73,.05,2.66-.3,2.6-2.34-.12-4.53-.1-9.06,0-13.59,.04-1.89-.37-2.8-2.53-2.79-2.19,0-2.94,.74-2.78,2.89,.16,2.09,.03,4.2,.03,6.3Zm-360.59-230.28c2.54,0,5.08-.05,7.63,.02,1.7,.04,2.31-.65,2.32-2.36,0-1.75-.65-2.33-2.34-2.31-5.08,.06-10.17,.06-15.25,0-1.62-.02-2.44,.39-2.46,2.19-.02,1.83,.56,2.59,2.48,2.49,2.54-.13,5.08-.03,7.62-.04Zm-.32,25.28c2.66,0,5.31-.06,7.97,.02,1.73,.05,2.28-.68,2.29-2.37,.01-1.76-.69-2.32-2.36-2.31-5.09,.05-10.18,.06-15.27,0-1.63-.02-2.4,.39-2.4,2.22,0,1.86,.57,2.58,2.47,2.48,2.43-.13,4.87-.03,7.3-.03Zm.04,18.65c2.55,0,5.09-.06,7.64,.02,1.75,.05,2.59-.42,2.6-2.41,0-2.13-1.12-2.29-2.73-2.28-4.98,.03-9.96,.06-14.94-.02-1.68-.03-2.36,.49-2.37,2.25-.02,1.87,.62,2.57,2.51,2.47,2.43-.13,4.87-.03,7.3-.03Zm.03,32.61c-2.43,0-4.87,.09-7.29-.03-1.82-.09-2.58,.47-2.54,2.41,.04,1.76,.7,2.29,2.38,2.27,5.08-.07,10.17-.06,15.25,0,1.61,.02,2.39-.39,2.41-2.22,.02-1.96-.83-2.49-2.58-2.45-2.54,.07-5.08,.02-7.62,.02Zm.22-74.53h0c-2.77,.01-5.53,.05-8.3,0-1.93-.04-1.66,1.31-1.72,2.51-.06,1.25,.17,2.15,1.75,2.14,5.42-.04,10.85-.03,16.27,0,1.7,0,1.95-.95,1.95-2.36,0-1.43-.29-2.34-1.98-2.3-2.66,.06-5.31,.02-7.97,.02Zm-.22,72.64c2.54,0,5.08-.05,7.62,.02,1.75,.04,2.6-.49,2.58-2.45-.02-1.85-.84-2.21-2.43-2.19-5.08,.06-10.16,.06-15.24,0-1.65-.02-2.33,.48-2.37,2.26-.04,1.99,.77,2.47,2.55,2.39,2.42-.11,4.86-.03,7.29-.02Zm.17-6.04c2.54,0,5.09-.04,7.63,.02,1.63,.04,2.41-.48,2.39-2.28-.02-1.65-.48-2.42-2.25-2.4-5.2,.06-10.4,.08-15.59,0-1.88-.03-2.14,.9-2.17,2.46-.04,1.77,.69,2.31,2.37,2.24,2.54-.1,5.09-.03,7.63-.03Zm-.17-6.06c2.55,0,5.09-.07,7.64,.02,1.79,.06,2.59-.47,2.56-2.43-.03-1.82-.83-2.26-2.43-2.25-5.09,.04-10.18,.06-15.27-.02-1.69-.02-2.29,.52-2.33,2.27-.04,1.97,.73,2.5,2.53,2.42,2.43-.1,4.87-.03,7.3-.02Zm-.08-17.19c-2.54,0-5.09,.07-7.63-.02-1.91-.07-2.11,.95-2.12,2.49-.01,1.54,.46,2.19,2.08,2.17,5.2-.06,10.39-.05,15.59,0,1.66,.01,2.35-.58,2.35-2.33,0-1.71-.58-2.38-2.31-2.33-2.65,.09-5.31,.02-7.96,.03Zm0-14.03c2.65,0,5.3-.04,7.95,.01,1.68,.04,2.32-.63,2.32-2.36,0-1.74-.63-2.32-2.33-2.3-5.08,.07-10.16,.09-15.24,0-1.93-.04-2.47,.73-2.47,2.53,0,1.86,.9,2.19,2.48,2.14,2.43-.08,4.86-.02,7.29-.02Zm.33-16.75c-2.65,0-5.31,.06-7.96-.02-1.59-.05-2.14,.59-2.12,2.13,.02,1.49,.15,2.57,2.09,2.54,5.19-.08,10.39-.07,15.58,0,1.69,.02,2.35-.54,2.33-2.29-.02-1.7-.59-2.41-2.31-2.37-2.54,.07-5.08,.02-7.63,.02Zm-.19-1.89c2.65,0,5.3-.02,7.94,0,1.52,.02,2.15-.62,2.13-2.19-.02-1.48-.74-1.95-2.03-1.96-5.3,0-10.6,.03-15.89-.03-1.66-.02-2.04,.75-2.02,2.24,.01,1.4,.5,1.98,1.93,1.95,2.65-.06,5.29-.02,7.94-.02Zm-.37,43.33c2.66,0,5.33-.02,7.99,0,1.55,.02,2.51-.37,2.46-2.24-.05-1.8-1.16-1.93-2.44-1.93-5.1-.01-10.21,.04-15.31-.02-1.55-.02-2.21,.52-2.22,2.09-.01,1.57,.63,2.16,2.19,2.11,2.44-.08,4.88-.02,7.33-.02Zm.51-18.63c2.43,0,4.86,0,7.28,0,1.39,0,2.63,0,2.66-2.01,.03-1.92-1.03-2.16-2.52-2.16-5.08,.01-10.16,.03-15.24-.01-1.45-.01-2.17,.34-2.21,2.03-.05,1.91,.87,2.2,2.41,2.17,2.54-.05,5.08-.01,7.61-.02Zm345.29,193.11c0,2.43,.04,4.86-.02,7.29-.03,1.4,.5,1.97,1.93,1.98,1.51,.01,2.22-.45,2.2-2.08-.06-4.86-.06-9.72,0-14.58,.02-1.73-.9-1.93-2.3-1.95-1.55-.03-1.85,.75-1.83,2.05,.04,2.43,.01,4.86,.01,7.29Zm9.3,.24c0-2.54-.04-5.09,.02-7.63,.03-1.42-.54-1.96-1.95-1.97-1.39,0-2.01,.49-2,1.93,.04,4.87,.05,9.74,0,14.6-.02,1.56,.52,2.16,2.12,2.13,1.53-.03,1.85-.79,1.83-2.09-.04-2.32-.01-4.65-.01-6.97Zm12.15-.24c0,2.32,.03,4.64-.01,6.96-.02,1.36,.12,2.36,1.91,2.34,1.66-.01,2.04-.76,2.03-2.24-.05-4.75-.05-9.5,0-14.25,.02-1.51-.44-2.22-2.08-2.18-1.5,.04-1.88,.76-1.85,2.08,.04,2.43,.01,4.86,0,7.29Zm9.32,.33c0-2.43-.04-4.86,.01-7.29,.04-1.56-.3-2.46-2.19-2.41-1.74,.05-1.96,.91-1.95,2.31,.04,4.64,.07,9.29,0,13.93-.03,1.62,.34,2.44,2.18,2.42,1.77-.02,1.97-.98,1.96-2.33-.02-2.21,0-4.42,0-6.63Zm403.72,3.69c0-2.44-.03-4.87,.01-7.31,.03-1.33-.36-2.07-1.87-2.05-1.31,.02-2.08,.31-2.07,1.83,.05,4.98,.04,9.96,0,14.94-.01,1.48,.66,1.88,2.02,1.89,1.45,0,1.95-.61,1.92-2-.06-2.43-.02-4.87-.02-7.31Zm5.4,.02c0-2.43-.03-4.86,.01-7.3,.02-1.31-.29-2.09-1.83-2.07-1.41,.02-2.32,.25-2.3,1.97,.06,4.86,.06,9.73,0,14.59-.02,1.63,.69,2.08,2.2,2.07,1.44,0,1.96-.57,1.93-1.98-.06-2.43-.02-4.86-.01-7.3Zm9.98,.22c0-2.54-.04-5.09,.02-7.63,.03-1.41-.52-1.97-1.94-1.97-1.38,0-2.01,.48-2,1.92,.04,4.87,.05,9.74,0,14.61-.02,1.56,.54,2.16,2.13,2.14,1.55-.02,1.84-.8,1.81-2.09-.04-2.32-.01-4.65-.01-6.97Zm-481.76-4.54c0,2.54,.04,5.08-.02,7.62-.03,1.43,.58,1.94,1.97,1.94,1.41,0,1.97-.54,1.96-1.96-.04-4.86-.03-9.72,0-14.58,0-1.28-.25-2.09-1.8-2.11-1.58-.03-2.18,.57-2.13,2.14,.07,2.32,.02,4.64,.02,6.96Zm9.27,.32c0-2.32-.05-4.64,.02-6.95,.05-1.54-.21-2.51-2.12-2.47-1.71,.03-1.99,.85-1.98,2.27,.04,4.75,.05,9.49,0,14.24-.02,1.55,.53,2.15,2.12,2.14,1.69,0,2.03-.83,1.99-2.28-.07-2.32-.02-4.63-.02-6.95Zm5.25-.37c0-2.32-.03-4.65,.01-6.97,.02-1.31-.32-2.05-1.84-2.08-1.62-.03-2.12,.62-2.11,2.15,.06,4.87,.05,9.74,0,14.61-.01,1.47,.66,1.88,2.02,1.9,1.44,.02,1.97-.57,1.93-1.97-.06-2.54-.02-5.09-.02-7.64Zm6.06,.53c0-2.32-.01-4.64,0-6.96,0-1.37,.13-2.62-1.95-2.62-1.88,0-2.17,.88-2.16,2.45,.06,4.64,.05,9.27,0,13.91-.02,1.43,.28,2.25,1.97,2.3,1.91,.06,2.18-.91,2.14-2.46-.06-2.21-.02-4.42-.02-6.62Zm1.3-.55c0,2.43,.02,4.86,0,7.29-.02,1.35,.12,2.35,1.9,2.36,1.7,.01,2.03-.8,2.01-2.25-.04-4.75-.05-9.5,0-14.25,.01-1.5-.45-2.21-2.09-2.18-1.54,.02-1.85,.78-1.83,2.07,.04,2.32,.01,4.64,0,6.96Zm8.69,.29c0-2.32-.03-4.65,.01-6.97,.02-1.34-.09-2.36-1.89-2.36-1.65,0-2.08,.74-2.06,2.22,.05,4.76,.05,9.51,0,14.27-.02,1.51,.44,2.19,2.07,2.19,1.82,0,1.89-1.07,1.87-2.39-.02-2.32,0-4.65,0-6.97Zm11.94-.26h-.01c0,2.43-.01,4.86,0,7.29,0,1.11-.07,2.25,1.62,2.28,1.55,.03,1.82-.8,1.81-2.09-.03-4.86-.01-9.72,0-14.58,0-1.12-.24-1.89-1.63-1.93-1.57-.05-1.82,.79-1.8,2.07,.04,2.32,.01,4.64,.01,6.96Zm430.6,3.98c0,2.55,0,5.09,0,7.64,0,1.09,.11,1.96,1.55,1.99,1.46,.03,1.93-.61,1.91-2-.04-4.87-.03-9.74,0-14.61,0-1.36-.45-2.03-1.93-1.99-1.46,.04-1.54,.93-1.54,2,0,2.33,0,4.65,0,6.98Zm-931.44,246.62c-1.25-.47-2.22-.86-3.21-1.19-1.49-.5-2.71,1.4-1.45,2.29,1.7,1.2,3.03-.3,4.66-1.1Zm-30.52-.33c1.23,.93,2.43,2.07,3.95,1.27,.33-.17,.42-1.75,.07-2.07-1.49-1.36-2.61,.45-4.02,.8Zm18.91-2.62c-.9,1.64-2.66,1.81-2.17,3.47,.15,.51,1.55,1.22,1.8,1.04,1.22-.88,.99-2.22,.37-4.52Zm2.52,4.83c.8-1.23,2-2.35,1.68-3.9-.13-.62-1.14-.39-1.78-.41,.69,1.41,.04,2.79,.1,4.31Z"/><path class="k" d="M538.64,346.47H280.08c7.93-1.79,15.1-5.55,22.53-8.61,1.52-.62,2.92-1.55,4.32-2.42,7.87-4.95,15.14-10.64,22.37-16.5,10.27-8.32,18.94-18.05,27.59-27.87,1.35-1.53,2.58-3.28,3.4-5.13,3.47-7.88,7.58-15.45,11.52-23.07,5.13-9.92,9.16-20.36,14.49-30.13,3.55-6.5,5.99-13.53,9.76-19.85,7.01-11.77,11.91-24.56,18.26-36.62,4.27-8.12,7.24-16.9,12.01-24.67,6.58-10.72,10.83-22.51,16.74-33.49,3.46-6.42,6.42-13.05,9.5-19.62,5.83-12.46,12.67-24.4,18.59-36.83,4.26-8.95,8.29-18.04,12.79-26.89,4.32-8.51,8.76-16.95,13-25.5,.78-1.56,1.49-.81,2.29-.47,5.39,2.3,10.78,4.62,16.15,6.97,11.35,4.98,22.68,9.99,34.04,14.97,20.76,9.1,41.52,18.2,62.32,27.21,1.81,.78,2.02,1.03,.88,2.87-2.13,3.46-3.69,7.28-5.45,10.96-6.05,12.65-11.48,25.65-18.32,37.86-6.32,11.28-11.1,23.24-17.16,34.58-5.01,9.37-8.29,19.63-13.92,28.52-6.05,9.55-9.4,20.29-14.97,29.94-4.38,7.58-7.44,15.74-11.38,23.51-5.57,10.98-11.28,21.88-16.72,32.93-3.9,7.91-7.41,16.01-11.41,23.86-1.29,2.53-2.31,5.15-4,7.52-2.77,3.88-2.8,8.6-2.62,13.14,.46,12.26,5.77,22.36,15.04,30.12,6.41,5.37,14.26,8.3,22.22,10.77,1.56,.49,3.13,.98,4.69,1.47l.04,.45Zm-41.05-125.48c.26,.04,.68,.2,.76,.1,.25-.32-.06-.47-.34-.57-.13-.3-.21-.64-.4-.89-6.96-8.83-14.88-16.86-21.39-26.05-.93-1.31-2.1-1.03-3.26-.95-7.42,.5-14.83,1.04-22.24,1.59-3.34,.25-6.68,.56-10.41,.88,1.82,1.83,3.78,2.04,5.51,2.68,2.21,.81,3,1.68,1.64,4.03-1.52,2.63-2.88,5.37-4.35,8.03-5.65,10.23-9.12,21.54-15.84,31.31-3.09,4.5-4.73,9.98-7.22,14.92-1.03,2.05-.77,2.99,1.42,3.91,9.56,4.03,19.04,8.26,28.58,12.33,2.3,.98,4.51,3.21,6.92,2.63,2.26-.54,2.49-3.64,3.65-5.6,.49-.82,1.27-1.48,1.69-2.33,3.82-7.8,7.35-15.74,11.5-23.4,3.95-7.29,7.12-15,10.65-22.51,2.15-4.57,2.16-4.54,6.67-2.67,2.15,.89,4.32,1.71,6.48,2.56Zm31.91-151.01c-15.99,0-31.99,.05-47.98-.05-2.61-.02-3.72,.48-3.68,3.42,.16,12.77,.14,25.54,.01,38.3-.03,2.8,.94,3.61,3.66,3.6,31.88-.07,63.75-.07,95.63,0,3.08,0,4.06-1.14,4.04-4.13-.11-12.43-.14-24.87,.02-37.3,.04-3.18-1.07-3.92-4.06-3.9-15.88,.13-31.76,.06-47.65,.06Zm-152.92,189.39c-.65-.16-.95,.18-1.3,.7-1.37,2.07-.51,3.02,1.54,3.87,17.96,7.5,35.9,15.03,53.95,22.33,17.34,7.02,34.48,14.53,51.71,21.82,3.06,1.29,6.13,2.57,9.21,3.8,1.56,.62,3.01,1.32,3.89-1.17,.9-2.53-1.23-2.26-2.25-2.71-2.92-1.3-6-2.24-8.94-3.5-19.11-8.19-38.33-16.13-57.59-23.97-16.31-6.64-32.46-13.66-48.68-20.52-.51-.22-1.02-.43-1.54-.65Z"/><path class="o" d="M231.94,926.77c-3.57,0-7.15-.01-10.72-.02,0-23.08,.02-46.16-.03-69.24,0-2.15,.1-3.42,2.93-3.4,22.53,.12,45.07,.1,67.6,.01,2.43,0,2.92,.82,2.91,3.06-.08,23.19-.06,46.38-.07,69.58-3.27,.01-6.55,.02-9.82,.04-.05-8.08-.11-16.15-.16-24.23,.42-2.36-.68-3.03-2.92-3.02-15.42,.08-30.83,.08-46.25,.11-1.94-.22-4.09-.7-3.3,2.57l-.15,24.56Z"/><path class="n" d="M283.34,926.46c-4.84,.86-9.72,.18-14.57,.37-.31,.01-.83-.08-.91-.27-2.02-4.66-6.13-1.94-9.25-2.67-1.56-.36-4.43,1.21-4.43-1.19,0-2.38,2.88-.61,4.37-1.14,1.45-.51,4.15,1.24,4.23-1.5,.08-2.82-2.66-1.18-4.11-1.62-.41-.12-.9,.06-1.32-.04-1.28-.3-3.48,.92-3.66-1.04-.19-2.13-1.86-4.75,1.07-6.58,1.63-1.02,1.86-2.74,.92-4.4-.8-1.43-2.21-1.88-3.73-1.44-1.93,.57-2.39,2.06-2.21,3.93,.48,5.19,.99,10.38,1.31,15.58,.13,2.12,.94,2.95,3.07,2.86,3.06-.12,6.12-.03,9.17-.5-5.77-2.17-11.56-.25-17.68,.22,.6-2.02,2.08-2.54,3-3.5,1.03-1.07,1.26-2.26,.51-3.29-.95-1.3-1.95,.2-2.86,.48-.76,.23-1.64,1.01-1.91,1.75-1.9,5.23-6.13,4.65-10.3,4.28-.01-7.24,0-14.48-.06-21.72-.01-1.5,.22-2.83,1.37-3.88,.76-.11,1.52-.31,2.28-.31,13.92-.02,27.85-.02,41.77,0,.87,0,1.74,.24,2.61,.37,.97,1.67,1.21,3.48,1.21,5.4,0,6.61,.07,13.22,.12,19.83Z"/><path class="p" d="M294.55,926.75c0-23.19-.01-46.38,.07-69.58,0-2.24-.48-3.07-2.91-3.06-22.53,.09-45.07,.1-67.6-.01-2.82-.01-2.93,1.25-2.93,3.4,.05,23.08,.03,46.16,.03,69.24-1.97-.58-1.06-2.22-1.06-3.34-.06-22.08-.05-44.17-.05-66.25v-3.59c-.27-.02-.55-.04-.82-.06v3.2c0,22.2,.02,44.39-.06,66.59,0,1.13,1.17,3.07-1.3,3.39-.01-23.83-.03-47.66-.03-71.49,0-2.84,1.71-4.13,4.15-2.69,1.61,.95,3.09,.95,4.71,.96,21.51,.02,43.02,0,64.53,.02,1.56,0,3.1,.03,4.55-.67,.05,12.6,.12,25.2,.14,37.8,.02,12.05,0,24.1-.01,36.15-.47,0-.93,0-1.4,0Z"/><path class="q" d="M1375.62,599.77c-3.46,.55-4.27-1.11-4.01-4.29,.28-3.39,.27-6.83,0-10.22-.25-3.16,.55-4.84,4.02-4.27,0,6.26,0,12.52,0,18.78Z"/><path class="f" d="M283.34,926.46c-.05-6.61-.13-13.22-.12-19.83,0-1.92-.23-3.73-1.21-5.4-.56-1.78-2.05-.96-3.09-.97-14.53-.08-29.05-.09-43.58-.12,.03-.17,.05-.33,.06-.5,15.42-.02,30.83-.02,46.25-.11,2.24-.01,3.35,.66,2.92,3.02-1.06,.81-.82,1.98-.82,3.06,0,6.96,.01,13.92,.02,20.88l-.22,.04-.21-.07Z"/><path class="d" d="M231.94,926.77c.05-8.19,.1-16.37,.15-24.56,1.82,.4,1.21,1.89,1.22,2.97,.04,7.19,0,14.38-.01,21.57h-1.36Z"/><path class="r" d="M233.3,926.76c.01-7.19,.05-14.38,.01-21.57,0-1.09,.61-2.57-1.22-2.97-.78-3.27,1.36-2.79,3.3-2.57,0,.17-.02,.34-.06,.5v1.02c-1.13,1.05-1.37,2.38-1.36,3.88,.06,7.24,.05,14.48,.06,21.72-.25,0-.5,0-.75,0Z"/><path class="r" d="M283.77,926.5c0-6.96-.02-13.92-.02-20.88,0-1.08-.24-2.25,.82-3.06,.05,8.07,.11,16.15,.16,24.22-.32-.1-.64-.19-.96-.29Z"/><path class="d" d="M299.19,853.05c7.41-.06,14.82-.15,22.23-.16,15.05-.03,30.09,0,45.14,0,2.96,0,5.94,.16,8.87-.52,.72,1.35,.46,2.82,.46,4.24,.02,23.35,.03,46.71,.04,70.06-.22,.02-.45,.03-.67,.05,0-23.3,0-46.6,.01-69.9,0-1.86,.23-3.35-2.6-3.33-23.31,.11-46.61,.09-69.92,.02-2.09,0-2.61,.69-2.6,2.68,.08,23.52,.08,47.04,.1,70.56-.32,.04-.64,.08-.96,.12-.03-24.6-.06-49.21-.1-73.81Z"/><path class="o" d="M452.78,926.82c-5.43,0-10.86,0-16.29,.01-.04-7.38-.18-14.77-.05-22.15,.04-2.58-.73-3.47-3.21-2.79-10.08-.59-20.17-.18-30.25-.22-5.64-.02-11.3-.37-16.94,.23-2.71-.76-3.02,.69-2.6,2.81-.05,7.35-.09,14.71-.14,22.06-1.29,.01-2.58,.03-3.87,.04-.03-23.42-.05-46.85-.13-70.27,0-1.88,.59-2.48,2.48-2.48,22.88,.05,45.75,.05,68.63,0,1.86,0,2.51,.61,2.5,2.49-.08,23.42-.1,46.85-.13,70.27Z"/><path class="n" d="M434.58,926.77c-9.07,.79-18.08-.97-27.14-.67-.92,.03-1.9,.02-1.93-1.23-.03-1.41,1.12-1.1,1.93-1.12,1.66-.05,3.33-.03,4.99-.03,.92,0,1.44-.33,1.45-1.35,.01-1.04-.25-1.73-1.45-1.72-.89,.01-1.79,.1-2.66-.04-1.54-.26-4.06,.96-4.42-.84-.45-2.22-2.09-5.13,1.28-7.06,1.48-.84,1.54-2.64,.6-4.16-.86-1.38-2.24-2-3.73-1.42-1.61,.63-3.49,1.51-2.91,3.75,1.05,4.09,1.3,8.25,1.71,12.42,.36,3.61,.42,3.61-3.26,3.44-.22-1,.84-1.17,1.18-1.81,.54-1,.32-2.11-.23-2.84-.84-1.1-1.46,.33-2.18,.58-.7,.25-1.61,.61-1.91,1.18-2.31,4.49-6.44,2.68-9.95,2.99-1.6,.14-1.36-1.07-1.36-2.03,.04-6.65,.1-13.31,.16-19.96,1.28-1.43,2.95-1.82,4.78-1.82,13.62,0,27.25,.02,40.87-.02,2.89,0,4.31,1.2,4.27,4.17-.08,6.53-.07,13.06-.1,19.59Z"/><path class="r" d="M452.78,926.82c.03-23.42,.05-46.85,.13-70.27,0-1.88-.64-2.49-2.5-2.49-22.88,.04-45.75,.05-68.63,0-1.88,0-2.49,.6-2.48,2.48,.08,23.42,.1,46.85,.13,70.27-.28,0-.56,0-.85,0,.06-4.33,.15-8.65,.16-12.98,.02-18.88,.07-37.75-.06-56.63-.02-2.88,.63-3.74,3.64-3.72,21.32,.14,42.65,.08,63.98,.06,1.83,0,3.57,.13,5.38-1.02,2.15-1.36,3.47-.19,3.47,2.68,.01,22.54,0,45.08,.01,67.62,0,1.33,.1,2.66,.16,3.98h-2.54Z"/><path class="r" d="M434.58,926.77c.03-6.53,.02-13.06,.1-19.59,.04-2.97-1.38-4.18-4.27-4.17-13.62,.04-27.25,.02-40.87,.02-1.83,0-3.5,.39-4.78,1.82-.25,0-.51,.01-.76,.02-.19-.03-.38-.08-.56-.16-.42-2.12-.11-3.58,2.6-2.81,1.04,.57,2.18,.33,3.27,.33,13.55,.02,27.1,.02,40.65,0,1.09,0,2.23,.24,3.27-.33,2.48-.68,3.25,.21,3.21,2.79-.13,7.38,.02,14.77,.05,22.15-.64-.02-1.27-.04-1.91-.06Z"/><path class="f" d="M383.44,904.7c.18,.08,.37,.13,.56,.16,.01,6.44,.05,12.87,0,19.31,0,.86,.64,2.04-.69,2.6l.14-22.06Z"/><path class="o" d="M300.24,926.74c-.02-23.52-.02-47.04-.1-70.56,0-1.99,.52-2.68,2.6-2.68,23.31,.07,46.61,.09,69.92-.02,2.83-.01,2.6,1.48,2.6,3.33-.02,23.3-.01,46.6-.01,69.9-6.21,.04-12.42,.08-18.63,.11-.03-6.19-.19-12.39-.03-18.58,.07-2.67-.62-3.78-3.33-3.03-3.88-.08-7.75-.25-11.62-.23-11.2,.04-22.4,.15-33.6,.23-2.64-.66-3.77,.24-3.09,3-.1,6.2-.2,12.41-.3,18.61l-4.4-.07Z"/><path class="n" d="M354.63,926.8c-5.66,.02-11.33,.04-16.99,.06-1.21,0-2.55,.27-2.38-1.72,.09-1.1-.78-1.16-1.59-1.16-1.11,0-2.26,.16-3.32-.06-1.7-.35-4.38,1.28-4.94-1.05-.52-2.19-1.92-5.16,1.5-6.99,1.31-.7,1.3-2.49,.47-3.91-.83-1.43-2.12-1.97-3.68-1.56-1.76,.45-2.54,1.74-2.41,3.5,.32,4.2,.71,8.39,1.18,13.87-2.19-4.6-3.68-1.03-5.37-.99-3.66,.08-7.32-.05-10.98-.09,0-3.88,.02-7.76,.02-11.64q0-8.7,8.8-8.7c11.64,0,23.29-.02,34.93,.01,4.19,.01,4.91,.73,4.91,4.81,0,5.21-.08,10.41-.13,15.62Z"/><path class="r" d="M354.63,926.8c.05-5.21,.13-10.41,.13-15.62,0-4.08-.72-4.8-4.91-4.81-11.64-.03-23.29-.01-34.93-.01q-8.8,0-8.8,8.7c0,3.88-.02,7.76-.02,11.64-.26,.02-.52,.04-.78,.06-.2-6.19,.5-12.39-.38-18.56-.68-2.76,.45-3.66,3.09-3,1.14,.64,2.38,.34,3.57,.34,12.69,.02,25.39,.02,38.08,0,1.19,0,2.43,.28,3.58-.34,2.72-.74,3.4,.36,3.33,3.03-.16,6.19,0,12.39,.03,18.58-.67,0-1.33-.02-1.99-.03Z"/><path class="p" d="M304.94,908.2c.89,6.17,.18,12.38,.38,18.56-.23,.02-.46,.03-.68,.05,.1-6.2,.2-12.41,.3-18.61Z"/><path class="u" d="M1347.74,589.71c0,47.08,0,94.16,0,141.24,0,.78-.06,1.56,.01,2.33,.17,1.75-.61,2.3-2.32,2.33-1.87,.03-2.2-.86-2.19-2.45,.05-6.77,.02-13.55,.02-20.32,0-39.09-.04-78.17,.07-117.26,0-3.14-.67-4.1-3.97-4.08-21.99,.16-43.99,.14-65.98,.01-3.02-.02-3.68,.91-3.67,3.77,.09,45.3,.06,90.61,.06,135.91,0,1,0,2-.03,3-.05,1.16-.82,1.46-1.82,1.43-.94-.02-1.84-.14-1.91-1.35-.06-1-.04-2-.04-3,0-45.19-.04-90.38,.08-135.57,0-3.33-.76-4.25-4.18-4.22-21.66,.17-43.32,.16-64.98,.01-3.28-.02-4.29,.68-4.28,4.16,.13,45.41,.09,90.83,.05,136.25,0,1.4,1.01,3.43-1.83,3.79-3.01,.39-3.46-.96-3.45-3.57,.06-45.3,.05-90.61,.04-135.91,0-5.24,.51-4.62-4.61-4.63-21.66-.02-43.32,.06-64.98-.08-3.02-.02-3.63,.87-3.63,3.73,.09,45.3,.06,90.61,.06,135.91,0,.89-.03,1.78,0,2.66,.04,1.27-.58,1.78-1.81,1.81-1.38,.03-2.08-.51-2.02-1.95,.04-.89,0-1.78,0-2.66,0-45.08-.04-90.16,.07-135.25,0-3.33-.78-4.29-4.21-4.26-21.88,.17-43.76,.15-65.65,.01-2.97-.02-3.67,.79-3.66,3.7,.1,45.64,.07,91.27,.04,136.91,0,1.34,.86,3.36-1.75,3.51-1.62,.09-2.93-.14-2.7-2.27,.08-.77,.01-1.55,.01-2.33,0-45.19-.03-90.39,.06-135.58,0-2.98-.7-3.95-3.81-3.93-22.1,.13-44.21,.13-66.31,0-3.04-.02-3.62,.89-3.62,3.74,.09,45.19,.06,90.39,.06,135.58,0,.78-.02,1.56,0,2.33,.04,1.31,0,2.42-1.84,2.43-1.69,0-2.11-.81-2.02-2.27,.05-.77,0-1.55,0-2.33,0-43.42,.26-86.84-.27-130.25-.08-6.63-2.67-13.62-1.3-20.15,3.09-14.73,1.02-29.48,1.47-44.19,.46-14.98,.1-29.98,.1-44.97s0-29.98,0-44.97c0-1.48-.22-2.95,2.08-2.85,2.45,.11,1.75,1.88,1.75,3.15,.03,45.42,.02,90.83,.03,136.25,0,5.39-.59,4.7,4.86,4.71,21.44,.02,42.88,.01,64.31,0,4.43,0,4.44-.01,4.44-4.33,0-45.42,0-90.83,.02-136.25,0-1.48-.8-3.57,2.04-3.59,1.6-.01,2.59,.41,2.42,2.25-.07,.77-.01,1.55-.01,2.33,0,45.19,.03,90.39-.07,135.58,0,3.17,.8,4.11,4.03,4.09,21.88-.14,43.76-.14,65.65,0,3.19,.02,3.83-1.03,3.83-3.98-.08-45.3-.06-90.61-.06-135.91,0-.89,.03-1.78,0-2.66-.04-1.38,.84-1.63,1.95-1.65,1.2-.02,1.9,.45,1.87,1.75-.02,.89,0,1.78,0,2.66,0,45.3,.03,90.61-.07,135.91,0,3.02,.73,3.9,3.84,3.88,21.88-.14,43.76-.15,65.65,0,3.21,.02,3.81-1.05,3.8-3.97-.08-45.53-.07-91.05-.02-136.58,0-1.41-.99-3.45,1.87-3.74,2.95-.3,3.42,.98,3.41,3.6-.07,45.42-.05,90.83-.05,136.25q0,4.36,4.29,4.36c21.66,0,43.32-.07,64.98,.07,3.17,.02,4.08-.77,4.08-4.01-.11-45.08-.07-90.16-.07-135.25,0-.78,.02-1.56,0-2.33-.05-1.43,0-2.71,2-2.66,1.79,.05,1.86,1.18,1.81,2.5-.03,.78,0,1.55,0,2.33,0,44.97,0,89.94,0,134.91q0,4.42,4.57,4.43c21.77,0,43.54-.06,65.31,.07,2.98,.02,3.68-.83,3.67-3.73-.09-45.53-.07-91.05-.03-136.58,0-1.23-.69-2.77,.73-3.68,1.82-1.17,3.71,.19,3.71,2.66,.02,14.66,0,29.31,0,43.97v99.27Z"/><path class="o" d="M645.41,443.39c.18,0,.31,.06,.42,.21,0,46.5,0,92.99,.09,139.48,0,2.78-.94,3.24-3.41,3.23-22.2-.08-44.4-.1-66.6,.02-2.87,.02-3.44-.9-3.44-3.57,.08-45.16,.09-90.33-.01-135.49,0-3,.84-3.66,3.72-3.65,21.64,.12,43.29,.07,64.94,.05,1.43,0,2.86-.18,4.29-.28Zm-60.21,47.13c-1.79,.11-4.65-1.37-3.86,2.59,0,14.23,0,28.46,0,42.69-.59,2.55,.26,3.38,3.01,3.36,15.51-.14,31.03-.13,46.54,0,2.52,.02,3.13-.66,3.11-3.14-.12-14.18-.14-28.36,0-42.54,.03-2.82-.9-3.56-3.42-2.96h-45.39Z"/><path class="g" d="M878.51,590.32c-23.44-.03-46.87-.02-70.31-.15-2.71-.02-2.71,1.32-2.71,3.28,.04,18.99,.02,37.98,.02,56.97,0,26.54,0,53.08,0,79.62,0,.89-.01,1.78-.02,2.66-.01,1.37-.89,1.62-2.02,1.58-1.01-.04-1.7-.38-1.65-1.57,.04-.89,0-1.78,0-2.66,0-45.42-.03-90.83,.07-136.25,0-2.97-.76-3.66-3.66-3.64-22.1,.13-44.21,.14-66.31,0-3.04-.02-3.61,.9-3.61,3.73,.09,45.64,.07,91.28,.04,136.92,0,1.49,.77,3.59-2.1,3.51-1.56-.05-2.59-.42-2.35-2.28,.1-.76,.02-1.55,.02-2.33,0-45.19-.04-90.39,.08-135.58,0-3.27-.87-3.98-4.03-3.96-22.22,.15-44.43,.13-66.65,.01-2.76-.01-3.49,.67-3.48,3.46,.09,45.53,.07,91.06,.07,136.58,0,.89-.01,1.78-.01,2.66,0,1.26-.86,1.39-1.81,1.39-.93,0-1.84-.09-1.87-1.34-.03-1-.02-2-.02-3,0-45.19-.04-90.39,.08-135.58,0-3.37-.83-4.22-4.2-4.19-21.99,.16-43.99,.13-65.98,.02-2.79-.01-3.47,.79-3.47,3.53,.08,45.42,.06,90.83,.06,136.25,0,1,0,2-.03,3-.04,1.23-.92,1.4-1.87,1.34-.94-.06-2.16,.2-2.29-1.27-.09-.99-.04-2-.04-3,0-45.19-.03-90.39,.07-135.58,0-3.19-.53-4.33-4.09-4.3-21.77,.19-43.54,.18-65.31,0-3.35-.03-3.92,.99-3.92,4.08,.1,45.42,.08,90.83,.03,136.25,0,1.18,.84,2.97-.89,3.47-1.66,.48-3.77,.7-3.51-2.26,.04-.44,0-.89,0-1.33,0-94.83,0-189.66,.01-284.49,0-1.61-.74-3.9,2.39-3.34-.01,.22,.02,.44,.09,.65-.02,.22-.06,.44-.06,.66,0,46.75,.01,93.49-.08,140.24,0,2.76,1.15,3,3.37,3,22.66-.06,45.32-.03,67.98-.04,.99,0,2.01,.17,2.92-.4,.58-.06,1.01-.28,1.02-.95,0-47.5,.01-95.01,.02-142.51,3.31-1.34,3.39,.66,3.38,3.11-.03,45.52,0,91.04-.09,136.56,0,3.23,.59,4.33,4.13,4.31,22.21-.19,44.42-.16,66.63-.02,3.15,.02,4.09-.69,4.08-3.98-.12-45.3-.08-90.59-.09-135.89,0-1.21-.2-2.41-.3-3.62,.37-1.59,1.61-1.25,2.67-1.13,1.35,.15,.9,1.29,.99,2.09,.06,.55,.01,1.11,.01,1.66,0,46.5,0,92.99,0,139.49,.13,.29,.25,.58,.38,.87,.53,.13,1.05,.27,1.58,.4,.55,.03,1.11,.09,1.66,.09,48.41,0,96.82-.03,145.23,.07,3.19,0,3.23-1.47,3.22-3.83-.04-45.4-.03-90.79-.04-136.19,0-1.19,.32-2.46-.5-3.54-.07-.1-.11-.21-.12-.34l.04-.02c1.1-1.17,2.49-.84,3.83-.75,.04,1.44,.1,2.88,.1,4.32,0,26.97,0,53.94,0,80.91,0,18.42-.02,36.85,.04,55.27,0,1.23-.91,3.05,1.33,3.53l.3,.05,.24-.17h-.02c1.08,1.2,2.5,.6,3.75,.6,21.43,.04,42.86,.08,64.29-.03,2.68-.01,3.65,.81,3.29,3.36Z"/><path class="e" d="M70.4,569.39c0,21.21-.05,42.42,.06,63.63,.02,2.77-.72,3.53-3.5,3.51-16.77-.13-33.55-.12-50.32,0-2.53,.02-3.16-.72-3.16-3.19,.07-42.53,.08-85.06-.01-127.59,0-2.7,.81-3.31,3.38-3.29,16.77,.11,33.55,.12,50.32,0,2.66-.02,3.3,.73,3.29,3.33-.1,21.21-.06,42.42-.06,63.63Zm-36.51-31.42c1,0,2-.07,2.99,.02,2.04,.18,3.24-.11,3.25-2.74,0-2.67-1.24-2.88-3.26-2.73-1.21,.09-2.44,0-3.66,.01-1.14,.02-1.83-.5-2.28-1.55-1.48-3.44-.09-8.7,2.91-10.86,3.51-2.52,9.18-2.24,11.94,.83,3.19,3.54,4.93,6.7,1.24,11.27-1.84,2.28-1.18,3.54,.92,4.99,2.38,1.65,3.52,.39,4.69-1.5,5.5-8.86,1.3-19.97-8.66-22.83-8.16-2.34-15.6,1.38-18.17,9.12-.97,2.92-.86,5.92-.35,8.89,1.04,6.02,2.34,7.08,8.43,7.09Zm20.79,17.98c0-3.37,.05-3.51-2.88-4.64-3.71-1.44-7.48-2.66-11.11-4.34-4.21-1.95-8.54-3.65-12.85-5.41-.71-.29-1.55-1.17-2.31-.07-.95,1.39,.08,5.61,1.67,5.97,3.66,.81,4.31,3.14,3.96,6.37-.2,1.86-.13,3.77-.02,5.65,.1,1.81-.48,3.09-2.33,3.43-3.31,.61-3.68,2.84-3.48,5.65,.13,1.8,.6,2.01,2.21,1.32,8.03-3.4,15.95-7.09,24.22-9.89,2.2-.75,3.45-1.86,2.9-4.04Zm-14.51,42.3c-4.1,0-8.21,.03-12.31-.02-1.54-.02-2.52,.24-2.5,2.14,.08,5.65,.08,11.31,0,16.96-.03,1.9,.92,2.13,2.47,2.16,1.7,.03,2.42-.52,2.36-2.29-.09-3.1,.19-6.23-.09-9.31-.29-3.13,1.05-3.64,3.81-3.63,2.62,.02,3.92,.52,3.61,3.45-.23,2.19,.05,4.44-.07,6.65-.11,1.92,.38,2.8,2.55,2.78,2.06-.02,2.38-.93,2.32-2.64-.09-2.55,.12-5.11-.06-7.65-.2-2.93,1.73-2.59,3.48-2.47,1.78,.12,4.28-.83,4.17,2.56-.1,3.1,.06,6.21-.06,9.31-.07,1.83,.48,2.55,2.43,2.54,1.94,0,2.47-.72,2.44-2.55-.09-5.1-.14-10.2,.01-15.3,.07-2.29-.82-2.83-2.92-2.76-3.88,.13-7.76,.04-11.65,.04Zm14.51-15.22c0-3.43-.06-6.87,.02-10.3,.04-1.79-.95-1.97-2.33-1.89-1.2,.08-2.57-.19-2.48,1.74,.05,1.1-.12,2.23,.02,3.32,.39,2.95-.91,3.87-3.75,3.8-6.09-.14-12.18,.07-18.27-.09-2.54-.06-2.56,1.28-2.54,3.11,.01,1.79-.07,3.22,2.51,3.12,4.87-.18,9.74-.05,14.62-.05,6.9,0,6.98,0,7.36,6.66,.11,1.9,.96,2.09,2.49,2.12,1.67,.03,2.43-.47,2.38-2.26-.09-3.1-.03-6.2-.03-9.3Z"/><path class="s" d="M145.17,544.73c6.37,8.33,10.13,17.11,15.27,25.03,1.76,2.71,1.76,4.32,.12,7.05-3.46,5.78-6.24,11.98-9.43,17.93-1.84,3.44-3.95,6.74-6.57,10.03,0-2.68-.19-5.38,.05-8.04,.23-2.58-.72-3.09-3.16-3.08-21.31,.1-42.62-.02-63.94,.14-3.05,.02-3.59-.87-3.55-3.67,.17-10.87,.17-21.75,0-32.62-.04-2.89,.53-3.87,3.7-3.85,21.09,.16,42.18,0,63.27,.17,3.49,.03,4.78-.89,4.25-4.34-.2-1.28-.03-2.61-.03-4.76Z"/><path class="t" d="M788.56,823.33c0-2.77-.18-5.56,.05-8.31,.21-2.52-.63-3.14-3.12-3.13-19.98,.11-39.95,.06-59.93,.06q-6.8,0-6.8-6.75c0-9.99,.09-19.97-.06-29.95-.04-2.5,.65-3.16,3.15-3.14,21.2,.1,42.4,0,63.59,.13,3,.02,4.23-.68,3.79-3.78-.23-1.59-.04-3.23-.04-5.77,5.74,9.76,11.6,18.38,16.45,27.6,.53,1.01,.47,1.81,0,2.79-5.05,10.4-11.19,20.19-17.08,30.26Z"/><path class="g" d="M883.92,595.94c.05,.99,.13,1.99,.13,2.98,0,43.82,0,87.63,0,131.45,0,.78,0,1.55-.04,2.33-.09,1.68-1.42,1.37-2.47,1.48-1.29,.14-1.83-.44-1.77-1.72,.05-.88,0-1.77,0-2.66,0-44.7-.01-89.41-.02-134.11,2.11,.02,2.83-1.07,2.71-3.1-.11-1.84,.03-3.69,.06-5.54,1.65,.27,1.21,1.58,1.25,2.6,.08,2.09,.09,4.18,.13,6.28Z"/><path class="p" d="M646.23,443.6c.1,1.21,.3,2.41,.3,3.62,.02,45.3-.02,90.59,.09,135.89,0,3.29-.93,4-4.08,3.98-22.21-.14-44.42-.17-66.63,.02-3.54,.03-4.14-1.08-4.13-4.31,.1-45.52,.06-91.04,.09-136.56,0-2.44-.07-4.44-3.38-3.11-.96,1.04-.55,2.33-.55,3.5-.02,45.17-.02,90.34,0,135.51,0,1.17-.44,2.46,.53,3.5,0,.67-.43,.89-1.02,.95-.12-.13-.24-.25-.36-.38,.04-.44,.12-.88,.12-1.32,0-46.15,0-92.3,.07-138.44,0-2.54-1.03-2.83-3.15-2.82-19.31,.06-38.62,.05-57.93,.03-3.65,0-7.31-.14-10.96-.21-.02-.16,0-.32,.06-.47,22.72,.04,45.44,.08,68.16,.12,.66,0,1.35,.01,1.7-.73-.53-3.23,.86-4.15,4.03-3.94,4.42,.29,8.87,.08,13.31,.07,1.4,0,2.82,0,2.58,2.02-.3,2.57,1.35,2.5,3.14,2.5,17.75-.03,35.5-.02,53.25,0,1.31,0,2.67-.31,3.92,.37-1.43,.1-2.86,.28-4.29,.28-21.65,.02-43.29,.07-64.94-.05-2.88-.02-3.73,.65-3.72,3.65,.1,45.16,.09,90.33,.01,135.49,0,2.68,.56,3.59,3.44,3.57,22.2-.12,44.4-.1,66.6-.02,2.48,0,3.42-.44,3.41-3.23-.1-46.49-.08-92.99-.09-139.48,.14-.12,.27-.11,.41,0Z"/><path class="r" d="M801.43,443.57c.82,1.09,.5,2.35,.5,3.54,.02,45.4,0,90.79,.04,136.19,0,2.37-.03,3.84-3.22,3.83-48.41-.1-96.82-.07-145.23-.07-.55,0-1.11-.06-1.66-.09,.04-.25,.09-.49,.13-.74,1.44,.03,2.88,.07,4.32,.07,23.17,.02,46.33,.03,69.5,.04,1.28-.9,.73-2.24,.73-3.37,.03-45.38-.01-90.76,.1-136.14,0-3.2-1.09-3.88-3.96-3.87-23.31,.09-46.62,.07-69.92,.08,1.16-.56,2.4-.28,3.6-.28,21.28-.02,42.57,0,63.85-.02,25.66-.03,51.32-.1,76.98-.11,1.39,0,2.9-.47,4.16,.58l-.05,.02c-23.43-.01-46.87,.03-70.3-.1-2.82-.02-3.21,1.02-3.21,3.45,.06,45.41,.07,90.81-.01,136.22,0,2.7,.63,3.56,3.46,3.54,22.1-.12,44.2-.14,66.3,.01,3.17,.02,3.79-.96,3.79-3.91-.09-44.85-.06-89.7-.06-134.55,0-1.44,.1-2.88,.15-4.32Z"/><path class="u" d="M883.92,595.94c-.04-2.09-.05-4.18-.13-6.28-.04-1.02,.41-2.33-1.25-2.6-.02-44.66-.04-89.33-.05-133.99,0-2.55-.09-5.1,.03-7.65,.09-1.91-.64-2.68-2.51-2.39,0-.17-.03-.33-.05-.5q4.25-.47,4.25,3.65c0,42.24,0,84.48,.03,126.72,0,1.82-1.13,4.48,2.48,4.54,.74,.01,.57,1.07,.58,1.69,.01,4.77-.15,9.54,.06,14.3,.13,2.97-2.58,1.3-3.44,2.5Z"/><path class="p" d="M652.76,443.05c23.31-.01,46.62,.01,69.92-.08,2.87-.01,3.97,.67,3.96,3.87-.12,45.38-.07,90.76-.1,136.14,0,1.14,.55,2.48-.73,3.37,.07-.55,.19-1.1,.2-1.65,.01-46.08,0-92.16,.07-138.25,0-2.56-1.11-2.82-3.2-2.82-22.55,.05-45.1,.08-67.65-.03-2.69-.01-3.31,.81-3.3,3.38,.08,46.42,.06,92.83,.07,139.25-.04,.25-.09,.49-.13,.74-.53-.13-1.05-.27-1.58-.4,.08-.17,.17-.32,.27-.48,.01-46.45,.02-92.9,.08-139.34,0-1.48-1.07-3.91,2.13-3.7Z"/><path class="p" d="M880,443.03c1.87-.29,2.6,.49,2.51,2.39-.12,2.54-.03,5.1-.03,7.65,.02,44.66,.03,89.33,.05,133.99-.03,1.85-.17,3.7-.06,5.54,.12,2.03-.59,3.12-2.71,3.1-2.73-1.25-.83-3.59-1.26-5.38,.36-2.55-.61-3.38-3.29-3.36-21.43,.11-42.86,.07-64.29,.03-1.25,0-2.67,.6-3.75-.62,1.33-.04,2.66-.1,3.99-.1,22.43,0,44.86-.04,67.28,.04,2.45,0,3.44-.4,3.44-3.22-.1-45.4-.09-90.79,0-136.19,0-2.71-.85-3.29-3.39-3.28-22.43,.09-44.86,.15-67.28-.04-3.54-.03-4.1,1.08-4.09,4.28,.1,46.17,.07,92.34,.07,138.52l-.24,.17-.3-.05c-.03-1-.07-2-.07-3,0-45.41,.03-90.83-.08-136.24,0-3.33,.75-4.27,4.19-4.25,23.1,.14,46.2,.03,69.31,0Z"/><path class="f" d="M880,443.03c-23.1,.03-46.21,.13-69.31,0-3.44-.02-4.2,.92-4.19,4.25,.11,45.41,.08,90.83,.08,136.24,0,1,.05,2,.07,3-2.24-.48-1.33-2.3-1.33-3.53-.06-18.42-.04-36.85-.04-55.27,0-26.97,0-53.94,0-80.91,0-1.44-.07-2.88-.1-4.33,24.92,.02,49.85,.04,74.77,.07,.03,.16,.04,.33,.05,.5Z"/><path class="d" d="M935.83,586.15c0-2.1,.12-4.21-.03-6.3-.16-2.15,.59-2.89,2.78-2.89,2.16,0,2.57,.91,2.53,2.79-.1,4.53-.12,9.06,0,13.59,.06,2.04-.88,2.39-2.6,2.34-1.58-.05-2.84-.07-2.71-2.24,.14-2.42,.03-4.86,.03-7.29Z"/><path class="d" d="M575.24,355.88c-2.54,0-5.09-.1-7.62,.03-1.92,.1-2.49-.67-2.48-2.49,.02-1.81,.84-2.21,2.46-2.19,5.08,.07,10.17,.06,15.25,0,1.69-.02,2.34,.56,2.34,2.31,0,1.71-.61,2.4-2.32,2.36-2.54-.07-5.08-.02-7.63-.02Z"/><path class="d" d="M574.92,381.16c-2.43,0-4.87-.09-7.3,.03-1.9,.1-2.47-.62-2.47-2.48,0-1.83,.77-2.24,2.4-2.22,5.09,.06,10.18,.06,15.27,0,1.66-.02,2.37,.54,2.36,2.31-.01,1.69-.56,2.42-2.29,2.37-2.65-.07-5.31-.02-7.97-.02Z"/><path class="d" d="M574.96,399.81c-2.43,0-4.87-.1-7.3,.03-1.88,.1-2.53-.6-2.51-2.47,.02-1.76,.69-2.28,2.37-2.25,4.98,.08,9.96,.05,14.94,.02,1.61-.01,2.74,.16,2.73,2.28,0,1.99-.85,2.46-2.6,2.41-2.54-.08-5.09-.02-7.64-.02Z"/><path class="d" d="M574.99,432.42c2.54,0,5.08,.05,7.62-.02,1.75-.05,2.6,.48,2.58,2.45-.02,1.83-.81,2.23-2.41,2.22-5.08-.05-10.17-.06-15.25,0-1.67,.02-2.34-.51-2.38-2.27-.04-1.94,.72-2.5,2.54-2.41,2.42,.12,4.86,.03,7.29,.03Z"/><path class="d" d="M575.21,357.89c2.66,0,5.31,.04,7.97-.02,1.69-.04,1.99,.87,1.98,2.3,0,1.41-.25,2.37-1.95,2.36-5.42-.03-10.85-.04-16.27,0-1.58,.01-1.81-.89-1.75-2.14,.05-1.2-.21-2.54,1.72-2.51,2.77,.05,5.53,.01,8.3,.01h0Z"/><path class="d" d="M574.99,430.53c-2.43,0-4.86-.08-7.29,.02-1.79,.08-2.6-.4-2.55-2.39,.04-1.78,.72-2.28,2.37-2.26,5.08,.06,10.16,.06,15.24,0,1.59-.02,2.41,.35,2.43,2.19,.02,1.96-.84,2.49-2.58,2.45-2.54-.06-5.08-.02-7.62-.02Z"/><path class="d" d="M575.16,424.49c-2.54,0-5.09-.07-7.63,.03-1.68,.07-2.4-.47-2.37-2.24,.03-1.56,.3-2.49,2.17-2.46,5.2,.08,10.4,.07,15.59,0,1.77-.02,2.23,.75,2.25,2.4,.02,1.8-.76,2.32-2.39,2.28-2.54-.06-5.09-.02-7.63-.01Z"/><path class="d" d="M574.99,418.43c-2.43,0-4.87-.08-7.3,.02-1.8,.08-2.58-.46-2.53-2.42,.04-1.76,.64-2.3,2.33-2.27,5.09,.07,10.18,.06,15.27,.02,1.6-.01,2.4,.43,2.43,2.25,.03,1.96-.77,2.5-2.56,2.43-2.54-.09-5.09-.02-7.64-.02Z"/><path class="d" d="M574.91,401.24c2.65,0,5.31,.06,7.96-.02,1.73-.06,2.3,.61,2.31,2.33,0,1.75-.69,2.35-2.35,2.33-5.2-.04-10.39-.05-15.59,0-1.61,.02-2.09-.63-2.08-2.17,.01-1.55,.21-2.57,2.12-2.49,2.54,.1,5.09,.02,7.63,.02Z"/><path class="d" d="M574.91,387.21c-2.43,0-4.86-.06-7.29,.02-1.58,.05-2.48-.28-2.48-2.14,0-1.8,.54-2.57,2.47-2.53,5.08,.1,10.16,.08,15.24,0,1.7-.02,2.33,.56,2.33,2.3,0,1.72-.64,2.39-2.32,2.36-2.65-.06-5.3-.01-7.95-.02Z"/><path class="d" d="M575.24,370.46c2.54,0,5.09,.05,7.63-.02,1.71-.05,2.29,.67,2.31,2.37,.02,1.75-.64,2.31-2.33,2.29-5.19-.07-10.39-.08-15.58,0-1.94,.03-2.08-1.05-2.09-2.54-.02-1.54,.53-2.18,2.12-2.13,2.65,.09,5.3,.02,7.96,.02Z"/><path class="q" d="M575.06,368.57c-2.65,0-5.3-.04-7.94,.02-1.43,.03-1.91-.55-1.93-1.95-.02-1.49,.36-2.26,2.02-2.24,5.3,.06,10.6,.02,15.89,.03,1.29,0,2.01,.48,2.03,1.96,.02,1.57-.61,2.21-2.13,2.19-2.65-.03-5.3,0-7.94,0Z"/><path class="q" d="M574.69,411.9c-2.44,0-4.89-.06-7.33,.02-1.56,.05-2.2-.54-2.19-2.11,.01-1.58,.67-2.11,2.22-2.09,5.1,.06,10.21,0,15.31,.02,1.28,0,2.39,.13,2.44,1.93,.05,1.87-.91,2.26-2.46,2.24-2.66-.03-5.33,0-7.99,0Z"/><path class="q" d="M575.2,393.27c-2.54,0-5.08-.03-7.61,.02-1.53,.03-2.46-.26-2.41-2.17,.05-1.68,.76-2.04,2.21-2.03,5.08,.04,10.16,.03,15.24,.01,1.48,0,2.54,.24,2.52,2.16-.03,2-1.28,2.01-2.66,2.01-2.43,0-4.86,0-7.28,0Z"/><path class="q" d="M920.48,586.38c0-2.43,.03-4.86-.01-7.29-.02-1.3,.28-2.08,1.83-2.05,1.4,.03,2.33,.22,2.3,1.95-.06,4.86-.07,9.72,0,14.58,.02,1.62-.68,2.09-2.2,2.08-1.43-.01-1.96-.58-1.93-1.98,.06-2.43,.02-4.86,.02-7.29Z"/><path class="d" d="M929.78,586.62c0,2.32-.03,4.65,.01,6.97,.02,1.3-.3,2.06-1.83,2.09-1.6,.03-2.14-.57-2.12-2.13,.06-4.87,.05-9.73,0-14.6-.01-1.44,.6-1.93,2-1.93,1.41,0,1.98,.55,1.95,1.97-.06,2.54-.02,5.09-.02,7.63Z"/><path class="d" d="M941.93,586.38c0-2.43,.03-4.86-.01-7.29-.02-1.32,.35-2.04,1.85-2.08,1.64-.04,2.09,.68,2.08,2.18-.05,4.75-.06,9.5,0,14.25,.02,1.48-.37,2.23-2.03,2.24-1.79,.01-1.93-.99-1.91-2.34,.04-2.32,.01-4.64,.01-6.96Z"/><path class="q" d="M951.25,586.71c0,2.21-.01,4.42,0,6.63,.01,1.35-.18,2.31-1.96,2.33-1.84,.02-2.21-.8-2.18-2.42,.08-4.64,.05-9.29,0-13.93-.01-1.41,.21-2.26,1.95-2.31,1.89-.06,2.23,.84,2.19,2.41-.06,2.43-.01,4.86-.01,7.29Z"/><path class="d" d="M1354.97,590.4c0,2.44-.04,4.87,.02,7.31,.03,1.39-.47,2-1.92,2-1.36,0-2.03-.41-2.02-1.89,.05-4.98,.05-9.96,0-14.94-.01-1.52,.75-1.82,2.07-1.83,1.51-.02,1.89,.72,1.87,2.05-.05,2.43-.01,4.87-.01,7.31Z"/><path class="q" d="M1360.37,590.43c0,2.43-.05,4.87,.02,7.3,.04,1.4-.49,1.97-1.93,1.98-1.51,.01-2.22-.44-2.2-2.07,.06-4.86,.06-9.73,0-14.59-.02-1.72,.89-1.96,2.3-1.97,1.53-.02,1.85,.76,1.83,2.07-.04,2.43-.01,4.86-.01,7.3Z"/><path class="d" d="M1370.35,590.65c0,2.32-.03,4.65,.01,6.97,.02,1.29-.27,2.07-1.81,2.09-1.59,.02-2.15-.58-2.13-2.14,.06-4.87,.05-9.74,0-14.61-.01-1.44,.61-1.92,2-1.92,1.42,0,1.98,.56,1.94,1.97-.06,2.54-.02,5.09-.02,7.63Z"/><path class="d" d="M888.59,586.11c0-2.32,.05-4.64-.02-6.96-.05-1.56,.55-2.16,2.13-2.14,1.55,.03,1.81,.84,1.8,2.11-.03,4.86-.04,9.72,0,14.58,.01,1.42-.55,1.96-1.96,1.96-1.4,0-2.01-.51-1.97-1.94,.06-2.54,.02-5.08,.02-7.62Z"/><path class="q" d="M897.86,586.43c0,2.32-.05,4.64,.02,6.95,.04,1.45-.29,2.27-1.99,2.28-1.59,0-2.14-.59-2.12-2.14,.06-4.74,.05-9.49,0-14.24-.01-1.43,.27-2.24,1.98-2.27,1.91-.04,2.17,.93,2.12,2.47-.07,2.32-.02,4.63-.02,6.95Z"/><path class="d" d="M903.11,586.06c0,2.55-.04,5.09,.02,7.64,.03,1.4-.49,1.99-1.93,1.97-1.36-.01-2.03-.42-2.02-1.9,.05-4.87,.05-9.74,0-14.61-.02-1.54,.49-2.19,2.11-2.15,1.53,.03,1.87,.77,1.84,2.08-.04,2.32-.01,4.65-.01,6.97Z"/><path class="q" d="M909.17,586.59c0,2.21-.05,4.42,.02,6.62,.04,1.54-.23,2.51-2.14,2.46-1.7-.05-1.99-.87-1.97-2.3,.05-4.64,.06-9.27,0-13.91-.02-1.57,.27-2.45,2.16-2.45,2.07,0,1.96,1.25,1.95,2.62-.02,2.32,0,4.64,0,6.96Z"/><path class="d" d="M910.48,586.04c0-2.32,.03-4.64-.01-6.96-.02-1.29,.29-2.05,1.83-2.07,1.64-.02,2.1,.68,2.09,2.18-.05,4.75-.04,9.5,0,14.25,.01,1.45-.32,2.26-2.01,2.25-1.78-.01-1.92-1.01-1.9-2.36,.03-2.43,0-4.86,.01-7.29Z"/><path class="d" d="M919.17,586.33c0,2.32-.02,4.65,0,6.97,.01,1.32-.06,2.38-1.87,2.39-1.64,0-2.09-.67-2.07-2.19,.06-4.76,.05-9.51,0-14.27-.01-1.49,.41-2.22,2.06-2.22,1.8,0,1.91,1.01,1.89,2.36-.04,2.32-.01,4.65,0,6.97Z"/><path class="q" d="M931.1,586.07c0-2.32,.03-4.64-.01-6.96-.02-1.27,.23-2.12,1.8-2.07,1.39,.04,1.63,.81,1.63,1.93-.01,4.86-.03,9.72,0,14.58,0,1.29-.26,2.11-1.81,2.09-1.69-.03-1.61-1.17-1.62-2.28-.02-2.43,0-4.86,0-7.29h.01Z"/><path class="q" d="M1361.71,590.05c0-2.33,0-4.65,0-6.98,0-1.07,.07-1.96,1.54-2,1.48-.04,1.94,.63,1.93,1.99-.03,4.87-.04,9.74,0,14.61,.01,1.39-.45,2.03-1.91,2-1.44-.03-1.56-.9-1.55-1.99,.01-2.55,0-5.09,0-7.64Z"/><path class="f" d="M565.17,442.37c-.35,.75-1.03,.74-1.7,.73-22.72-.04-45.44-.08-68.16-.12-.01-.18-.02-.36-.02-.54l69.87-.07Z"/><path class="m" d="M430.27,836.67c-1.64,.79-2.96,2.29-4.66,1.1-1.26-.89-.04-2.79,1.45-2.29,.99,.33,1.96,.72,3.21,1.19Z"/><path class="l" d="M399.75,836.34c1.41-.35,2.53-2.16,4.02-.8,.35,.32,.25,1.9-.07,2.07-1.52,.8-2.72-.34-3.95-1.27Z"/><path class="m" d="M410.18,836.38c.66-.55,.63-1.72,1.97-1.95,.48,1.21,1.29,2.55,.31,3.78-1,1.25-1.6-.35-2.37-.73,.03-.37,.06-.73,.09-1.1Z"/><path class="m" d="M418.65,833.72c.62,2.3,.85,3.64-.37,4.52-.25,.18-1.65-.53-1.8-1.04-.49-1.67,1.26-1.84,2.17-3.47Z"/><path class="c" d="M410.18,836.38c-.03,.37-.06,.73-.09,1.1-.73,.06-1.17,2.02-1.92,.61-.44-.83-1.49-2.42-.2-3.31,1.63-1.12,1.09,1.55,2.21,1.6Z"/><path class="c" d="M421.18,838.55c-.06-1.52,.59-2.9-.1-4.31,.64,.02,1.65-.21,1.78,.41,.32,1.55-.88,2.67-1.68,3.9Z"/><path class="q" d="M495.29,442.44c0,.18,0,.36,.02,.54-.05,.15-.07,.31-.06,.47-.44,.09-.89,.18-1.33,.27l-.59-.57c-.07-.21-.1-.43-.09-.65,.69-.02,1.37-.04,2.06-.06Z"/><path class="r" d="M650.56,586.1c-.1,.15-.19,.31-.27,.48-.13-.29-.26-.58-.38-.87l.66,.39Z"/><path class="t" d="M497.6,220.99c-2.16-.85-4.34-1.67-6.48-2.56-4.51-1.87-4.52-1.89-6.67,2.67-3.53,7.51-6.7,15.22-10.65,22.51-4.15,7.66-7.67,15.6-11.5,23.4-.42,.85-1.2,1.51-1.69,2.33-1.16,1.95-1.4,5.06-3.65,5.6-2.4,.58-4.62-1.65-6.92-2.63-9.54-4.07-19.02-8.3-28.58-12.33-2.18-.92-2.45-1.85-1.42-3.91,2.48-4.94,4.12-10.43,7.22-14.92,6.72-9.77,10.19-21.07,15.84-31.31,1.47-2.67,2.83-5.4,4.35-8.03,1.36-2.35,.56-3.21-1.64-4.03-1.72-.64-3.68-.85-5.51-2.68,3.72-.32,7.06-.63,10.41-.88,7.41-.55,14.83-1.08,22.24-1.59,1.16-.08,2.33-.37,3.26,.95,6.51,9.19,14.44,17.22,21.39,26.05,.2,.25,.27,.59,.4,.89-.15,.15-.29,.3-.42,.47Z"/><path class="l" d="M529.5,69.98c15.88,0,31.77,.07,47.65-.06,2.99-.02,4.1,.73,4.06,3.9-.17,12.43-.13,24.87-.02,37.3,.03,2.99-.95,4.14-4.04,4.13-31.88-.07-63.75-.07-95.63,0-2.72,0-3.68-.8-3.66-3.6,.12-12.77,.14-25.54-.01-38.3-.04-2.95,1.07-3.44,3.68-3.42,15.99,.1,31.99,.05,47.98,.05Zm.24,2.65c-15.11,0-30.21,.07-45.32-.06-2.9-.02-4.04,.55-3.97,3.78,.22,10.88,.16,21.76,.03,32.64-.03,2.67,.58,3.63,3.46,3.62,30.32-.1,60.65-.1,90.98,0,3.05,.01,3.72-1.06,3.68-3.87-.14-10.88-.15-21.77,0-32.65,.04-2.78-.76-3.55-3.53-3.53-15.11,.13-30.21,.06-45.32,.06Z"/><path class="g" d="M376.58,259.37c.51,.22,1.02,.43,1.54,.64,16.22,6.85,32.37,13.88,48.68,20.52,19.26,7.84,38.48,15.78,57.59,23.97,2.94,1.26,6.02,2.2,8.94,3.5,1.02,.45,3.15,.19,2.25,2.71-.89,2.49-2.34,1.8-3.89,1.17-3.08-1.24-6.15-2.51-9.21-3.8-17.23-7.29-34.37-14.8-51.71-21.82-18.04-7.3-35.99-14.83-53.95-22.33-2.05-.86-2.9-1.8-1.54-3.87,.34-.52,.65-.86,1.3-.69Z"/><path class="t" d="M498.01,220.52c.28,.1,.59,.25,.34,.57-.08,.1-.5-.06-.76-.1,.13-.17,.27-.32,.42-.47Z"/><path class="g" d="M235.35,901.16v-1.02c14.51,.03,29.04,.04,43.56,.12,1.05,0,2.53-.81,3.09,.97-.87-.13-1.74-.37-2.61-.37-13.92-.02-27.84-.02-41.77,0-.76,0-1.52,.2-2.28,.31Z"/><path class="p" d="M433.23,901.89c-1.04,.57-2.18,.33-3.27,.33-13.55,.02-27.1,.02-40.65,0-1.09,0-2.23,.24-3.27-.33,5.64-.6,11.3-.25,16.94-.23,10.08,.04,20.17-.37,30.25,.22Z"/><path class="p" d="M353.26,905.21c-1.14,.62-2.38,.34-3.58,.34-12.69,.02-25.39,.02-38.08,0-1.19,0-2.43,.3-3.57-.34,11.2-.08,22.4-.19,33.61-.22,3.87-.01,7.75,.15,11.62,.23Z"/><path class="r" d="M630.59,490.51c2.52-.6,3.45,.14,3.42,2.96-.15,14.18-.13,28.36,0,42.54,.02,2.48-.6,3.16-3.11,3.14-15.51-.12-31.03-.13-46.54,0-2.75,.02-3.59-.81-3.01-3.36,.72-.71,.57-1.63,.57-2.49,0-12.57,0-25.14,0-37.71,0-.86,.16-1.78-.57-2.49-.79-3.96,2.07-2.48,3.86-2.59,.81,.82,1.85,.58,2.82,.58,13.25,.01,26.5,.01,39.75,0,.97,0,2.01,.24,2.82-.59Zm-23.09,1.23c-6.77,0-13.55-.03-20.32,.01-4.04,.03-4.58,.61-4.58,4.69-.01,12.1-.01,24.2,0,36.3,0,3.93,.71,4.81,4.57,4.83,13.66,.07,27.31,.02,40.97,.03,3.04,0,4.37-1.42,4.35-4.52-.08-12.21-.02-24.42-.04-36.63,0-3.97-.75-4.69-4.64-4.71-6.77-.02-13.55,0-20.32,0Z"/><path class="d" d="M630.59,490.51c-.81,.83-1.85,.58-2.82,.59-13.25,.01-26.5,.01-39.75,0-.97,0-2.01,.24-2.82-.58,15.13,0,30.26,0,45.38,0Z"/><path class="d" d="M581.34,493.1c.73,.71,.57,1.63,.57,2.49,0,12.57,0,25.14,0,37.71,0,.87,.15,1.78-.57,2.49,0-14.23,0-28.46,0-42.69Z"/><path class="o" d="M801.43,443.57c-.05,1.44-.15,2.88-.15,4.32,0,44.85-.03,89.7,.06,134.55,0,2.95-.62,3.93-3.79,3.91-22.1-.15-44.2-.13-66.3-.01-2.83,.02-3.46-.84-3.46-3.54,.08-45.41,.07-90.81,.01-136.22,0-2.44,.39-3.47,3.21-3.45,23.43,.13,46.86,.09,70.3,.1,0,.12,.05,.24,.12,.34Zm-66.68,49.59l-.03,42.76c-.56,2.39,.16,3.25,2.82,3.23,15.66-.13,31.32-.12,46.98,0,2.44,.02,3.23-.52,3.21-3.1-.13-14.21-.13-28.42,0-42.63,.02-2.56-.69-3.51-3.2-2.9-15.84-.04-31.68-.04-47.53-.16-2.27-.02-2.68,.93-2.25,2.81Z"/><path class="p" d="M493.33,443.15c.2,.19,.39,.38,.59,.57,0,46.29,.04,92.58-.04,138.87,0,2.82,.54,3.76,3.6,3.74,23.21-.15,46.42-.1,69.62-.11,.12,.12,.24,.25,.36,.38-.91,.58-1.94,.4-2.92,.4-22.66,0-45.32-.01-67.98,.04-2.22,0-3.38-.24-3.37-3,.09-46.75,.07-93.49,.08-140.24,0-.22,.04-.44,.06-.66Z"/><path class="f" d="M568.47,585.65c-.97-1.04-.53-2.33-.53-3.5-.02-45.17-.02-90.34,0-135.51,0-1.17-.41-2.46,.55-3.5,0,47.5-.01,95.01-.02,142.51Z"/><path class="m" d="M33.88,537.97c-6.09-.01-7.39-1.07-8.43-7.09-.51-2.97-.62-5.97,.35-8.89,2.56-7.74,10.01-11.46,18.17-9.12,9.96,2.86,14.16,13.97,8.66,22.83-1.17,1.89-2.31,3.16-4.69,1.5-2.1-1.46-2.76-2.71-.92-4.99,3.69-4.56,1.95-7.73-1.24-11.27-2.76-3.06-8.43-3.35-11.94-.83-3,2.16-4.39,7.42-2.91,10.86,.45,1.05,1.14,1.57,2.28,1.55,1.22-.02,2.45,.08,3.66-.01,2.02-.15,3.27,.06,3.26,2.73,0,2.63-1.2,2.93-3.25,2.74-.99-.09-2-.02-2.99-.02Z"/><path class="m" d="M54.67,555.96c.56,2.17-.7,3.29-2.9,4.04-8.27,2.81-16.19,6.49-24.22,9.89-1.61,.68-2.09,.48-2.21-1.32-.2-2.81,.17-5.04,3.48-5.65,1.85-.34,2.43-1.62,2.33-3.43-.11-1.88-.18-3.78,.02-5.65,.34-3.23-.31-5.55-3.96-6.37-1.59-.35-2.62-4.58-1.67-5.97,.75-1.1,1.6-.22,2.31,.07,4.3,1.75,8.63,3.46,12.85,5.41,3.62,1.68,7.4,2.9,11.11,4.34,2.94,1.14,2.89,1.27,2.88,4.64Zm-7.46-.36c-3.43-1.44-5.87-2.49-8.33-3.48-.76-.3-2-.96-2.18,.32-.28,2.06-.14,4.2-.04,6.3,.04,.93,.85,.89,1.51,.62,2.74-1.12,5.46-2.27,9.04-3.77Z"/><path class="m" d="M40.16,598.26c3.88,0,7.77,.09,11.65-.04,2.1-.07,2.99,.46,2.92,2.76-.15,5.1-.11,10.2-.01,15.3,.03,1.83-.5,2.54-2.44,2.55-1.95,0-2.49-.71-2.43-2.54,.11-3.1-.04-6.21,.06-9.31,.11-3.39-2.39-2.44-4.17-2.56-1.75-.12-3.68-.46-3.48,2.47,.18,2.54-.03,5.1,.06,7.65,.06,1.71-.26,2.62-2.32,2.64-2.16,.02-2.65-.86-2.55-2.78,.12-2.21-.16-4.45,.07-6.65,.31-2.93-.99-3.43-3.61-3.45-2.76-.02-4.1,.5-3.81,3.63,.28,3.08,0,6.21,.09,9.31,.05,1.76-.67,2.32-2.36,2.29-1.56-.03-2.5-.26-2.47-2.16,.08-5.65,.08-11.31,0-16.96-.03-1.9,.95-2.16,2.5-2.14,4.1,.05,8.21,.02,12.31,.01Z"/><path class="m" d="M54.67,583.04c0,3.1-.07,6.2,.03,9.3,.05,1.78-.71,2.29-2.38,2.26-1.52-.03-2.38-.22-2.49-2.12-.38-6.67-.46-6.66-7.36-6.66-4.87,0-9.75-.13-14.62,.05-2.58,.09-2.5-1.33-2.51-3.12-.01-1.83,0-3.17,2.54-3.11,6.09,.16,12.18-.05,18.27,.09,2.83,.07,4.14-.85,3.75-3.8-.15-1.09,.03-2.21-.02-3.32-.09-1.93,1.28-1.66,2.48-1.74,1.38-.09,2.37,.1,2.33,1.89-.08,3.43-.02,6.86-.02,10.3Z"/><path class="o" d="M567.1,586.23c-23.21,.01-46.42-.04-69.62,.11-3.06,.02-3.6-.92-3.6-3.74,.08-46.29,.05-92.58,.04-138.87,.44-.09,.89-.18,1.33-.27,3.65,.07,7.31,.21,10.96,.21,19.31,.02,38.62,.04,57.93-.03,2.11,0,3.15,.28,3.15,2.82-.08,46.15-.06,92.3-.07,138.44,0,.44-.08,.88-.12,1.32Zm-62.57-47.96c14.69,0,29.38,0,44.07,0,3.26,.03,4.12-1.61,4.08-4.76-.16-13.43-.13-26.86-.02-40.29,.02-2.62-.95-3.56-3.44-3.56-15.21,.03-30.42,.06-45.64-.04-2.35-.02-2.61,.98-2.24,2.8v42.93c-.72,2.9,.72,3.47,3.17,2.92Z"/><path class="o" d="M651.99,586.24c0-46.42,0-92.83-.07-139.25,0-2.57,.61-3.39,3.3-3.38,22.55,.11,45.1,.08,67.65,.03,2.09,0,3.2,.26,3.2,2.82-.07,46.08-.05,92.16-.07,138.25,0,.55-.13,1.1-.2,1.65-23.17-.01-46.33-.03-69.5-.04-1.44,0-2.88-.05-4.32-.07Zm12.63-47.97c14.63,0,29.26,0,43.89,0,4.71,.29,4.7,.29,4.7-4.27,0-13.76-.06-27.51,.06-41.27,.02-2.51-.66-3.14-3.15-3.12-15.31,.12-30.63,.13-45.94,0-2.61-.02-3.08,.81-3.06,3.2,.11,14.09,.13,28.18-.01,42.26-.03,2.83,.7,3.93,3.52,3.19Z"/><path class="o" d="M807.2,586.38c0-46.17,.03-92.34-.07-138.52,0-3.2,.55-4.31,4.09-4.28,22.43,.19,44.85,.13,67.28,.04,2.54-.01,3.39,.57,3.39,3.28-.09,45.4-.09,90.79,0,136.19,0,2.82-.99,3.22-3.44,3.22-22.43-.08-44.86-.05-67.28-.04-1.33,0-2.66,.07-3.99,.1h.02Zm60.7-95.85c-15.13,0-30.27,0-45.4,0-2.53-.62-3.17,.38-3.15,2.91,.12,14.2,.13,28.41-.01,42.61-.02,2.57,.73,3.13,3.18,3.11,15.32-.11,30.63-.14,45.95,.02,2.93,.03,3.39-.94,3.37-3.58-.14-13.87-.18-27.74,.02-41.61,.05-3.3-1-4.16-3.95-3.46Z"/><path class="c" d="M529.74,72.63c15.11,0,30.21,.07,45.32-.06,2.77-.02,3.57,.75,3.53,3.53-.15,10.88-.15,21.76,0,32.65,.04,2.82-.63,3.88-3.68,3.87-30.32-.1-60.65-.1-90.98,0-2.88,0-3.5-.95-3.46-3.62,.13-10.88,.19-21.77-.03-32.64-.06-3.23,1.07-3.8,3.97-3.78,15.11,.13,30.21,.06,45.32,.06Zm-34.64,33.31c3.47,0,6.36-.09,9.24,.03,2.01,.08,2.39-.91,2.39-2.64,0-1.74-.4-2.69-2.4-2.64-3.77,.11-7.55-.09-11.32,.07-2.61,.11-2.42-1.48-2.48-3.22-.06-1.83,.28-2.94,2.51-2.86,3.66,.14,7.33,0,10.99,.05,1.54,.02,2.55-.25,2.52-2.15-.03-1.86-.8-2.58-2.62-2.55-3.55,.06-7.11-.1-10.65,.06-2.32,.11-2.76-.92-2.77-2.96-.01-2.14,.38-3.29,2.89-3.16,3.54,.19,7.1,0,10.65,.07,1.69,.03,2.71-.28,2.69-2.33-.01-1.91-.73-2.5-2.56-2.47-5.44,.08-10.88,.13-16.32-.02-2.33-.06-2.78,.94-2.73,2.97,.11,4.44-.04,8.88,.06,13.31,.07,3.31-1.4,7.58,.57,9.67,2.16,2.28,6.53,.39,9.33,.77Zm41.53-.52c-2.83-3.99-5.38-7.86-8.23-11.49-1.01-1.29-1.25-1.73-.07-3.15,2.47-2.97,4.47-6.32,6.73-9.47,1.18-1.65,.57-2.01-1.14-2.08-2.02-.08-3.75,.14-4.7,2.25-.36,.79-.83,1.55-1.68,2-2.05,1.07-2.04,5.45-5.03,4.21-1.89-.78-3.12-3.61-4.23-5.74-1.25-2.38-3.03-2.82-5.46-2.74-2.46,.08-2.36,.89-1.11,2.47,2.04,2.6,3.97,5.28,6.08,7.82,1.48,1.78,1.59,3.21,.23,5.28-2.07,3.16-4.78,5.77-6.93,8.84-1.37,1.95-.78,2.11,1.27,2.4,4.45,.62,5.57-2.92,7.35-5.52,3.18-4.64,3.29-5.46,7.07-.22,2.1,2.91,4.05,7.4,9.86,5.14Zm23.19-10.38c0,2.78,.07,5.55-.03,8.33-.06,1.78,.43,2.63,2.41,2.62,1.93,0,2.48-.76,2.45-2.58-.09-4.44-.03-8.88-.03-13.32q0-6,6.12-6.16c.33,0,.67-.02,1-.01,1.85,.05,2.11-1.1,2.14-2.62,.03-1.67-.78-2.05-2.26-2.04-6.44,.04-12.88,.04-19.33,0-1.58-.01-2.46,.32-2.47,2.19-.01,1.86,.58,2.65,2.49,2.52,1.66-.12,3.34,.06,4.99-.04,1.86-.12,2.6,.58,2.53,2.48-.11,2.88-.03,5.77-.03,8.66Zm-14.54-2.19c0-3.54-.07-7.08,.03-10.61,.05-1.94-.22-3.09-2.63-3.05-2.18,.03-2.86,.73-2.82,2.88,.11,7.07,.1,14.15,0,21.22-.03,2,.61,2.68,2.65,2.71,2.2,.03,2.91-.72,2.82-2.88-.15-3.42-.04-6.85-.04-10.28Z"/><path class="n" d="M607.5,491.74c6.77,0,13.55-.02,20.32,0,3.89,.01,4.63,.74,4.64,4.71,.02,12.21-.04,24.42,.04,36.63,.02,3.1-1.31,4.52-4.35,4.52-13.66,0-27.32,.04-40.97-.03-3.86-.02-4.57-.9-4.57-4.83-.01-12.1-.01-24.2,0-36.3,0-4.08,.54-4.66,4.58-4.69,6.77-.05,13.55-.01,20.32-.01Zm2.21,22.71v.04c-1.44,0-2.89,.02-4.33,0-.86-.02-1.99,.09-1.93-1.21,.05-1.12,1.11-.86,1.82-.88,1.66-.05,3.33-.02,5-.04,1.2-.01,1.44-.79,1.41-1.79-.03-.92-.41-1.47-1.38-1.49-1-.02-2-.02-3-.03-4.29-.01-5.26-1.25-4.7-5.53,.18-1.42,1.43-1.57,2.08-2.39,1.1-1.38,1.25-2.83,.22-4.29-.95-1.34-2.32-1.69-3.84-1.21-1.61,.51-3.08,2.25-2.74,3.3,1.71,5.26,1.2,10.7,1.8,16.03,.25,2.17,.96,3.14,3.03,2.7,8.22-1.76,12.89,1.7,14.57,9.71,.49,2.31,1.99,2.33,3.79,1.6,.93-.38,1.84-.77,2.78-1.11,1-.36,1.93-.71,1.39-2.09-.45-1.16-1.24-1.01-2.17-.67-1.06,.39-2.08,.72-2.79-.72-1.11-2.26-2.71-4.33-3.49-6.69-.92-2.78-2.53-3.62-5.2-3.24-.76,.11-1.55,.02-2.33,.02Zm4.06,8.97c-1.15,.84-1.85,2.04-2.68,3.17-2.26,3.07-6.06,4.3-9.75,3.35-4.04-1.04-6.65-3.45-7.22-7.66-.49-3.62,1.11-6.51,3.86-8.69,1.39-1.1,.43-1.84-.02-2.68-.7-1.32-1.53-.4-2.15,.07-3.81,2.9-5.81,6.8-5.2,11.54,.64,4.9,3.18,8.59,8.14,10.36,5.07,1.81,9.48,.78,13.76-2.26,3.1-2.2,4.19-4.46,1.26-7.19Z"/><path class="r" d="M784.52,490.51c2.5-.61,3.22,.34,3.2,2.9-.12,14.21-.12,28.42,0,42.63,.02,2.58-.77,3.11-3.21,3.1-15.66-.11-31.32-.12-46.98,0-2.66,.02-3.38-.84-2.82-3.23,.15-.09,.31-.15,.48-.19,.28,0,.55,0,.83,0,1.26,1.44,2.85,1.94,4.74,1.88,2.32-.08,4.65-.02,6.98-.02,11.08,0,22.16,.02,33.25-.01,4.18-.01,4.92-.76,4.93-4.77,.02-12.19-.02-24.37,.03-36.56,0-2.18-.34-3.98-2.8-4.59,.46-.38,.91-.77,1.37-1.15Z"/><path class="q" d="M784.52,490.51c-.46,.38-.91,.77-1.36,1.15-13.98,.04-27.95,.09-41.93,.1-1.8,0-3.57-.04-4.97,1.34-.38,0-.77,0-1.15,.01-.11,.04-.23,.05-.35,.05-.43-1.88-.02-2.82,2.25-2.81,15.84,.12,31.68,.12,47.53,.16Z"/><path class="f" d="M734.74,493.17c.12,0,.24,0,.35-.05,.03,14.2,.07,28.41,.1,42.61-.17,.04-.33,.1-.48,.19,0-14.25,.02-28.5,.03-42.76Z"/><path class="e" d="M47.21,555.6c-3.57,1.49-6.3,2.65-9.04,3.77-.66,.27-1.47,.31-1.51-.62-.1-2.1-.25-4.23,.04-6.3,.18-1.28,1.42-.63,2.18-.32,2.46,.98,4.9,2.04,8.33,3.48Z"/><path class="r" d="M501.36,492.42c-.37-1.82-.11-2.82,2.24-2.8,15.21,.1,30.42,.07,45.64,.04,2.49,0,3.46,.94,3.44,3.56-.11,13.43-.15,26.86,.02,40.29,.04,3.15-.82,4.79-4.08,4.76-.01-.18-.02-.36-.01-.54,.23-.37,.46-.73,.69-1.1,2.2-1,1.84-3.04,1.85-4.83,.04-11.98,.03-23.97,.01-35.95,0-4.17-.71-4.87-4.82-4.87-12.88-.01-25.75-.01-38.63,0-4.67,0-5.07,.43-5.09,5.17-.05,12.53-.1,25.07-.15,37.6-.13,.03-.26,.06-.39,.09-.04-12.53-.07-25.06-.15-37.59,0-1.29,.44-2.68-.55-3.84Z"/><path class="u" d="M549.28,536.63c-.23,.37-.46,.73-.69,1.1-13.74,0-27.48-.02-41.22-.02-.97,0-2.02-.25-2.84,.55-2.46,.55-3.89-.01-3.18-2.92,.24-.5,.47-1,.71-1.5,.13-.03,.26-.07,.39-.09,.36,3.02,2.56,3.2,4.91,3.2,10.32,0,20.64,.04,30.96-.03,3.65-.02,7.32,.39,10.95-.29Z"/><path class="d" d="M504.53,538.27c.83-.8,1.87-.55,2.84-.55,13.74,0,27.48,0,41.22,.02,0,.18,0,.36,.01,.54-14.69,0-29.38,0-44.07,0Z"/><path class="d" d="M502.06,533.85c-.24,.5-.47,1-.71,1.5,0-14.31,0-28.62,0-42.93,.99,1.16,.55,2.55,.55,3.84,.08,12.53,.11,25.06,.15,37.59Z"/><path class="r" d="M664.62,538.27c-2.82,.74-3.54-.36-3.52-3.19,.14-14.09,.12-28.18,.01-42.26-.02-2.39,.45-3.22,3.06-3.2,15.31,.13,30.63,.12,45.94,0,2.49-.02,3.17,.61,3.15,3.12-.13,13.75-.07,27.51-.06,41.27,0,4.56,.02,4.56-4.7,4.27-.74-.69-1.66-.49-2.53-.49-12.94,0-25.89,0-38.83,0-.86,0-1.79-.21-2.53,.49Zm21.94-1.62c6.65,0,13.31,.02,19.96-.01,3.5-.02,5.13-1.5,5.15-4.94,.06-11.97,.06-23.95,0-35.92-.02-3.25-1.7-4.78-4.95-4.79-13.42-.02-26.84,.02-40.25-.03-2.8-.01-4.02,1.13-4,3.97,.06,12.53,.07,25.05,0,37.58-.02,2.99,1.16,4.21,4.14,4.17,6.65-.09,13.31-.03,19.96-.03Z"/><path class="d" d="M664.62,538.27c.74-.69,1.66-.48,2.53-.49,12.94-.01,25.89,0,38.83,0,.87,0,1.79-.2,2.53,.49-14.63,0-29.26,0-43.89,0Z"/><path class="r" d="M867.9,490.52c2.95-.71,4,.16,3.95,3.46-.2,13.87-.15,27.74-.02,41.61,.03,2.64-.43,3.61-3.37,3.58-15.32-.16-30.63-.13-45.95-.02-2.45,.02-3.2-.54-3.18-3.11,.14-14.2,.13-28.4,.01-42.61-.02-2.54,.62-3.54,3.15-2.91,.68,.38,1.36,.76,2.04,1.14-2.67-.02-3.94,1.03-3.91,3.97,.12,12.3,.04,24.6,.06,36.91,0,3.93,.75,4.96,4.5,4.99,13.64,.12,27.27,.07,40.91,.05,2.69,0,3.95-1.3,3.93-4.14-.08-12.52-.05-25.05-.01-37.57,0-2.15-.69-3.65-2.88-4.2,.26-.38,.51-.76,.77-1.14Z"/><path class="q" d="M867.9,490.52c-.26,.38-.51,.76-.77,1.14-14.19,0-28.39,0-42.59,0-.68-.38-1.36-.76-2.04-1.14,15.13,0,30.27,0,45.4,0Z"/><path class="l" d="M495.11,105.94c-2.8-.38-7.17,1.51-9.33-.77-1.98-2.09-.51-6.36-.57-9.67-.09-4.44,.05-8.88-.06-13.31-.05-2.04,.4-3.04,2.73-2.97,5.44,.14,10.88,.1,16.32,.02,1.83-.03,2.55,.56,2.56,2.47,.01,2.05-1,2.36-2.69,2.33-3.55-.07-7.11,.12-10.65-.07-2.52-.13-2.91,1.02-2.89,3.16,.01,2.04,.44,3.07,2.77,2.96,3.54-.16,7.1,0,10.65-.06,1.82-.03,2.59,.69,2.62,2.55,.03,1.9-.98,2.17-2.52,2.15-3.66-.05-7.33,.09-10.99-.05-2.23-.08-2.56,1.03-2.51,2.86,.06,1.75-.13,3.33,2.48,3.22,3.77-.15,7.55,.04,11.32-.07,2.01-.06,2.4,.9,2.4,2.64,0,1.73-.38,2.72-2.39,2.64-2.88-.12-5.77-.03-9.24-.03Z"/><path class="l" d="M536.64,105.42c-5.81,2.26-7.76-2.23-9.86-5.14-3.79-5.25-3.89-4.43-7.07,.22-1.78,2.59-2.89,6.14-7.35,5.52-2.05-.29-2.64-.45-1.27-2.4,2.15-3.07,4.86-5.69,6.93-8.84,1.36-2.07,1.25-3.49-.23-5.28-2.11-2.54-4.04-5.22-6.08-7.82-1.24-1.58-1.35-2.39,1.11-2.47,2.43-.08,4.21,.36,5.46,2.74,1.11,2.13,2.34,4.95,4.23,5.74,3,1.24,2.98-3.14,5.03-4.21,.85-.44,1.32-1.2,1.68-2,.95-2.11,2.68-2.34,4.7-2.25,1.72,.07,2.33,.43,1.14,2.08-2.26,3.15-4.26,6.5-6.73,9.47-1.18,1.42-.94,1.86,.07,3.15,2.85,3.63,5.4,7.5,8.23,11.49Z"/><path class="l" d="M559.83,95.04c0-2.89-.08-5.78,.03-8.66,.07-1.9-.67-2.6-2.53-2.48-1.66,.11-3.34-.07-4.99,.04-1.91,.13-2.5-.66-2.49-2.52,.01-1.86,.89-2.2,2.47-2.19,6.44,.05,12.88,.04,19.33,0,1.48,0,2.29,.38,2.26,2.04-.03,1.52-.29,2.67-2.14,2.62-.33,0-.67,0-1,.01q-6.12,.17-6.12,6.16c0,4.44-.06,8.88,.03,13.32,.04,1.82-.51,2.58-2.45,2.58-1.98,0-2.47-.84-2.41-2.62,.1-2.77,.03-5.55,.02-8.33Z"/><path class="l" d="M545.29,92.85c0,3.43-.11,6.86,.04,10.28,.09,2.16-.62,2.91-2.82,2.88-2.04-.03-2.67-.71-2.65-2.71,.09-7.07,.1-14.15,0-21.22-.03-2.15,.64-2.85,2.82-2.88,2.41-.04,2.69,1.11,2.63,3.05-.1,3.53-.03,7.07-.03,10.61Z"/><path class="g" d="M609.71,514.45c.78,0,1.57,.09,2.33-.02,2.67-.38,4.29,.46,5.2,3.24,.78,2.36,2.38,4.43,3.49,6.69,.71,1.44,1.72,1.11,2.79,.72,.93-.34,1.71-.49,2.17,.67,.54,1.39-.39,1.73-1.39,2.09-.94,.34-1.86,.74-2.78,1.11-1.8,.73-3.31,.71-3.79-1.6-1.68-8.01-6.35-11.47-14.57-9.71-2.07,.44-2.78-.53-3.03-2.7-.6-5.33-.09-10.77-1.8-16.03-.34-1.05,1.13-2.79,2.74-3.3,1.52-.48,2.89-.13,3.84,1.21,1.03,1.46,.88,2.91-.22,4.29-.65,.82-1.89,.97-2.08,2.39-.56,4.29,.41,5.52,4.7,5.53,1,0,2,0,3,.03,.97,.02,1.36,.57,1.38,1.49,.03,1-.21,1.78-1.41,1.79-1.67,.02-3.33-.01-5,.04-.71,.02-1.77-.24-1.82,.88-.06,1.3,1.06,1.19,1.93,1.21,1.44,.03,2.89,0,4.33,0v-.04Z"/><path class="g" d="M613.76,523.42c2.93,2.74,1.84,4.99-1.26,7.19-4.28,3.04-8.69,4.06-13.76,2.26-4.96-1.77-7.5-5.46-8.14-10.36-.62-4.74,1.39-8.64,5.2-11.54,.62-.47,1.45-1.39,2.15-.07,.45,.84,1.4,1.59,.02,2.68-2.75,2.18-4.35,5.06-3.86,8.69,.57,4.21,3.18,6.62,7.22,7.66,3.69,.94,7.5-.28,9.75-3.35,.83-1.13,1.53-2.33,2.68-3.17Z"/><path class="n" d="M736.25,493.11c1.41-1.38,3.17-1.34,4.97-1.34,13.98-.01,27.96-.06,41.93-.1,2.46,.6,2.8,2.4,2.79,4.59-.04,12.19-.01,24.37-.03,36.56,0,4.01-.75,4.76-4.93,4.77-11.08,.03-22.16,.01-33.25,.01-2.33,0-4.66-.06-6.98,.02-1.89,.06-3.48-.44-4.74-1.88-.05-12.57-.1-25.14-.13-37.71,0-1.64-.27-3.31,.35-4.92Zm27.2,21.38c-1.44,0-2.89,.02-4.33,0-.85-.02-2.04,.21-2.11-1-.09-1.34,1.16-1.05,1.97-1.08,1.55-.06,3.11-.04,4.66-.02,1.13,.01,1.56-.53,1.56-1.63,0-1.06-.34-1.69-1.5-1.68-1.78,.01-3.55,0-5.33-.03-.75-.01-1.88,.1-1.81-.92,.15-2.23-1.69-4.77,1.2-6.64,1.57-1.02,1.82-2.74,.8-4.42-.94-1.55-2.39-1.88-4.06-1.43-1.77,.48-2.95,1.42-2.76,3.5,.35,3.98,.45,7.98,1,11.93,.91,6.62,1.03,6.61,7.76,6.62,6.62,.01,6.73,.08,9.34,6.3,.09,.2,.14,.42,.23,.63q2.04,4.89,7.07,3.27c1.11-.36,2.69-.19,2.06-2.13-.54-1.65-1.75-1.05-2.72-.62-1.69,.75-2.63,.31-3.2-1.45-.44-1.36-1.09-2.67-1.7-3.97-2.96-6.31-.83-5.13-8.12-5.21Zm2.99,8.76c-.26,.44-.4,.61-.47,.82-1.51,3.94-4.4,6.17-8.6,6.14-3.84-.03-7.24-1.33-8.93-5.21-1.75-4.02-.96-7.6,2.22-10.59,.91-.85,1.31-1.72,1.05-2.93-.23-1.06-.58-1.52-1.8-.95-4.5,2.09-7.47,7.92-6.37,12.73,2.35,10.23,14.97,13.99,22.82,6.81,3.65-3.34,3.66-3.55,.09-6.81Z"/><path class="g" d="M736.25,493.11c-.61,1.6-.35,3.28-.35,4.92,.02,12.57,.08,25.14,.13,37.71-.28,0-.55,0-.83,0-.03-14.2-.07-28.41-.1-42.61,.38,0,.77,0,1.15-.01Z"/><path class="n" d="M549.28,536.63c-3.63,.68-7.3,.27-10.95,.29-10.32,.07-20.64,.02-30.96,.03-2.35,0-4.55-.18-4.91-3.2,.05-12.54,.11-25.07,.15-37.61,.02-4.75,.41-5.17,5.09-5.17,12.88,0,25.75-.01,38.63,0,4.11,0,4.81,.7,4.82,4.87,.02,11.98,.03,23.97-.01,35.95,0,1.79,.35,3.83-1.85,4.83Zm-19.54-22.92c-2.54,0-4.31,.01-6.08,0-.82,0-1.63-.18-1.53-1.25,.09-.91,.91-.83,1.54-.84,1.99-.03,3.99-.03,5.98-.02,1.09,0,1.98-.15,2.04-1.55,.07-1.58-.88-1.8-2.13-1.77-1.44,.04-2.9,.13-4.32-.04-1.26-.15-3.37,.93-3.52-1.24-.14-2.06-1.79-4.62,1.17-6.24,1.49-.81,2.35-2.17,1.29-3.79-.96-1.47-2.17-2.95-4.32-2.21-1.84,.63-2.48,2.04-2.31,3.92,.37,4.08,.71,8.16,1.05,12.24q.49,5.95,6.61,5.97c7.78,.01,7.68,.06,10.8,7.24,2.4,5.52,.84,4.93,7.05,3.09,.21-.06,.43-.11,.63-.2,.79-.34,1.77-.51,1.41-1.8-.38-1.35-1.19-1.34-2.29-.89-2.32,.96-3.47-.17-4.12-2.3-.29-.95-.89-1.81-1.14-2.76-1.2-4.44-3.58-7-7.81-5.56Zm3.17,8.63c-.37,.83-.58,1.34-.82,1.83-2.05,4.15-5.7,5.25-9.95,5.23-4.52-.01-7.09-2.99-8.9-6.44-1.93-3.69,.63-6.47,2.91-9.09,.22-.25,.48-.46,.73-.68,1.15-1.01,1.03-2.34,.32-3.32-.93-1.3-1.64,.25-2.43,.58-2.68,1.12-4.01,3.39-4.86,5.98-2,6.1,.05,11.18,5.81,14.62,5.51,3.29,12.88,2.41,17.25-1.88,2.25-2.21,2.46-4.24-.05-6.81Z"/><path class="n" d="M686.57,536.64c-6.65,0-13.31-.07-19.96,.03-2.98,.04-4.16-1.18-4.14-4.17,.08-12.53,.07-25.05,0-37.58-.01-2.84,1.2-3.98,4-3.97,13.42,.05,26.84,0,40.25,.03,3.25,0,4.93,1.54,4.95,4.79,.06,11.97,.06,23.95,0,35.92-.02,3.44-1.65,4.92-5.15,4.94-6.65,.04-13.31,.01-19.96,0Zm3.01-23.01c-2.64,0-4.31,.04-5.97-.02-.72-.02-1.72,.07-1.62-1.11,.08-.92,.93-.79,1.55-.82,1.55-.06,3.12,.04,4.65-.13,1.22-.13,3.19,.93,3.28-1.54,.09-2.46-1.85-1.64-3.12-1.72-1.55-.1-3.11-.07-4.66-.02-1.4,.04-2.61-.27-2.32-1.94,.31-1.75-1.64-4.32,1.25-5.12,2.45-.68,3.08-2.1,2.56-4.15-.69-2.76-3.22-2.49-5.19-2.3-2.07,.2-2.81,1.9-2.63,3.95,.37,4.08,.71,8.17,1.1,12.25q.56,5.91,6.65,5.91,7.64,0,10.62,7.04c2.13,5.01,3.49,5.51,8.14,2.99,.68-.37,1.46-.61,1.05-1.69-.37-.98-.82-1.56-1.95-.98-2.05,1.05-3.02,.01-3.62-1.86-.3-.94-.75-1.85-1.2-2.74-1.98-3.92-3.93-7.9-8.59-6.01Zm3.2,8.78c-.51,1.02-.85,1.82-1.3,2.57-2.3,3.83-5.86,4.8-10.03,4.39-3.67-.36-6.19-2.28-7.55-5.66-1.49-3.7-.55-6.96,2.08-9.81,.67-.73,1.56-1.3,1.38-2.49-.18-1.12-.17-2.37-1.97-1.53-2.69,1.26-6.73,7.99-6.1,10.88,1.13,5.17,3.34,9.72,8.88,11.51,5.23,1.69,10.06,.93,14.29-2.8,2.38-2.1,3.06-4.28,.31-7.07Z"/><path class="n" d="M824.55,491.65c14.2,0,28.39,0,42.59,0,2.19,.56,2.89,2.05,2.88,4.2-.04,12.52-.07,25.05,.01,37.57,.02,2.84-1.24,4.14-3.93,4.14-13.64,.02-27.27,.06-40.91-.05-3.75-.03-4.5-1.07-4.5-4.99-.02-12.3,.06-24.6-.06-36.91-.03-2.93,1.25-3.99,3.91-3.97Zm23.46,22.83c-1.66,0-3.32,.03-4.99-.01-.84-.02-2,.15-1.93-1.17,.05-1.08,1.1-.89,1.82-.9,1.77-.05,3.55-.05,5.32-.02,1.06,.02,1.64-.34,1.67-1.51,.03-1.23-.36-1.87-1.69-1.82-1.55,.05-3.11,.09-4.65-.03-1.09-.08-2.95,.65-2.96-1.11-.01-2-1.71-4.63,.97-5.98,2.01-1.01,2.66-2.37,2-4.24-.83-2.33-2.9-2.41-4.99-2.09-2.2,.33-2.93,1.75-2.76,3.79,.45,5.4,.98,10.8,1.32,16.22,.11,1.69,.92,2.05,2.3,2.05,3.1,0,6.21,.1,9.31-.01,2.16-.08,3.53,.7,4.3,2.76,.9,2.38,2.06,4.66,2.93,7.04,.64,1.75,1.59,2.22,3.27,1.46,1.01-.46,2.04-.85,3.08-1.23,1.06-.39,1.25-1.06,.89-2.08-.38-1.07-1.08-.96-1.84-.58-2.1,1.07-2.98-.07-3.6-1.87-.36-1.04-.87-2.03-1.31-3.05q-2.45-5.69-8.47-5.63Zm-6.3,19.33c3.02,.21,6-.87,8.54-3.04,1.07-.91,2.52-1.37,3.19-2.8,.96-2.04-.18-3.82-1.45-4.65-1.35-.87-1.35,1.25-1.83,2.07-2,3.39-4.93,5-8.83,4.86-4.07-.15-7.38-1.64-8.99-5.65-1.52-3.8-.71-7.23,2.22-10.03,1.34-1.29,1.92-2.83,.67-4.01-1.05-.99-2.13,.59-2.96,1.34-3.99,3.61-5.2,8.95-3.27,13.94,1.9,4.91,6.48,7.86,12.7,7.97Z"/><path class="g" d="M763.44,514.49c7.29,.08,5.16-1.1,8.12,5.21,.61,1.3,1.26,2.61,1.7,3.97,.57,1.75,1.51,2.2,3.2,1.45,.98-.43,2.18-1.04,2.72,.62,.63,1.94-.95,1.78-2.06,2.13q-5.03,1.61-7.07-3.27c-.09-.2-.14-.42-.23-.63-2.61-6.21-2.72-6.29-9.34-6.3-6.74-.01-6.85,0-7.76-6.62-.55-3.95-.65-7.96-1-11.93-.18-2.08,.99-3.03,2.76-3.5,1.66-.45,3.12-.12,4.06,1.43,1.02,1.68,.77,3.4-.8,4.42-2.89,1.87-1.05,4.41-1.2,6.64-.07,1.02,1.06,.91,1.81,.92,1.78,.03,3.55,.04,5.33,.03,1.17,0,1.5,.62,1.5,1.68,0,1.1-.43,1.64-1.56,1.63-1.55-.02-3.11-.03-4.66,.02-.82,.03-2.06-.26-1.97,1.08,.08,1.21,1.26,.99,2.11,1,1.44,.03,2.89,0,4.33,0Z"/><path class="g" d="M766.43,523.25c3.57,3.26,3.56,3.47-.09,6.81-7.86,7.19-20.47,3.42-22.82-6.81-1.1-4.8,1.87-10.64,6.37-12.73,1.22-.57,1.57-.11,1.8,.95,.26,1.21-.14,2.08-1.05,2.93-3.18,2.99-3.97,6.57-2.22,10.59,1.69,3.88,5.09,5.18,8.93,5.21,4.19,.03,7.09-2.19,8.6-6.14,.08-.2,.22-.38,.47-.82Z"/><path class="g" d="M529.74,513.72c4.23-1.44,6.6,1.12,7.81,5.56,.26,.95,.85,1.81,1.14,2.76,.65,2.13,1.81,3.26,4.12,2.3,1.09-.45,1.91-.46,2.29,.89,.37,1.29-.62,1.46-1.41,1.8-.2,.09-.42,.13-.63,.2-6.21,1.83-4.65,2.42-7.05-3.09-3.13-7.18-3.03-7.23-10.8-7.24q-6.12-.01-6.61-5.97c-.34-4.08-.68-8.16-1.05-12.24-.17-1.88,.47-3.29,2.31-3.92,2.15-.74,3.37,.75,4.32,2.21,1.06,1.62,.19,2.98-1.29,3.79-2.96,1.62-1.31,4.17-1.17,6.24,.15,2.17,2.26,1.09,3.52,1.24,1.42,.17,2.88,.07,4.32,.04,1.26-.03,2.2,.19,2.13,1.77-.06,1.4-.95,1.56-2.04,1.55-1.99-.01-3.99-.01-5.98,.02-.63,.01-1.45-.07-1.54,.84-.11,1.07,.7,1.24,1.53,1.25,1.77,.02,3.55,0,6.08,0Z"/><path class="g" d="M532.91,522.35c2.51,2.57,2.3,4.6,.05,6.81-4.37,4.29-11.74,5.17-17.25,1.88-5.76-3.44-7.81-8.51-5.81-14.62,.85-2.58,2.18-4.86,4.86-5.98,.79-.33,1.5-1.88,2.43-.58,.71,.98,.83,2.31-.32,3.32-.25,.22-.51,.43-.73,.68-2.28,2.62-4.84,5.39-2.91,9.09,1.81,3.46,4.38,6.43,8.9,6.44,4.25,.01,7.9-1.09,9.95-5.23,.24-.49,.45-1,.82-1.83Z"/><path class="g" d="M689.58,513.63c4.66-1.89,6.61,2.09,8.59,6.01,.45,.89,.89,1.8,1.2,2.74,.6,1.88,1.57,2.91,3.62,1.86,1.13-.58,1.58,0,1.95,.98,.41,1.08-.36,1.32-1.05,1.69-4.65,2.52-6.01,2.02-8.14-2.99q-2.98-7.03-10.62-7.04-6.07,0-6.65-5.91c-.39-4.08-.73-8.17-1.1-12.25-.19-2.04,.55-3.74,2.63-3.95,1.97-.19,4.5-.46,5.19,2.3,.51,2.05-.11,3.47-2.56,4.15-2.89,.8-.94,3.37-1.25,5.12-.3,1.68,.92,1.98,2.32,1.94,1.55-.05,3.11-.09,4.66,.02,1.26,.08,3.21-.74,3.12,1.72-.09,2.46-2.06,1.4-3.28,1.54-1.54,.17-3.1,.06-4.65,.13-.62,.03-1.47-.1-1.55,.82-.1,1.18,.89,1.08,1.62,1.11,1.66,.05,3.32,.02,5.97,.02Z"/><path class="g" d="M692.78,522.42c2.75,2.79,2.07,4.97-.31,7.07-4.23,3.73-9.06,4.49-14.29,2.8-5.54-1.79-7.75-6.34-8.88-11.51-.63-2.89,3.41-9.61,6.1-10.88,1.79-.84,1.79,.4,1.97,1.53,.19,1.19-.71,1.76-1.38,2.49-2.63,2.85-3.57,6.11-2.08,9.81,1.36,3.38,3.88,5.3,7.55,5.66,4.17,.4,7.73-.57,10.03-4.39,.45-.74,.79-1.55,1.3-2.57Z"/><path class="g" d="M848.01,514.49q6.02-.06,8.47,5.63c.44,1.02,.95,2.01,1.31,3.05,.62,1.8,1.5,2.94,3.6,1.87,.76-.39,1.45-.5,1.84,.58,.36,1.02,.17,1.69-.89,2.08-1.04,.38-2.08,.77-3.08,1.23-1.67,.76-2.63,.28-3.27-1.46-.87-2.39-2.03-4.66-2.93-7.04-.78-2.06-2.14-2.84-4.3-2.76-3.1,.11-6.2,.01-9.31,.01-1.38,0-2.2-.36-2.3-2.05-.34-5.41-.87-10.81-1.32-16.22-.17-2.05,.56-3.46,2.76-3.79,2.09-.31,4.16-.24,4.99,2.09,.66,1.87,.01,3.22-2,4.24-2.68,1.35-.98,3.98-.97,5.98,.01,1.76,1.87,1.03,2.96,1.11,1.54,.11,3.1,.08,4.65,.03,1.34-.05,1.72,.6,1.69,1.82-.03,1.17-.6,1.52-1.67,1.51-1.77-.03-3.55-.02-5.32,.02-.72,.02-1.77-.17-1.82,.9-.06,1.32,1.1,1.14,1.93,1.17,1.66,.05,3.32,.01,4.99,.01Z"/><path class="g" d="M841.71,533.82c-6.22-.11-10.8-3.06-12.7-7.97-1.94-4.99-.72-10.33,3.27-13.94,.83-.75,1.91-2.33,2.96-1.34,1.25,1.17,.67,2.72-.67,4.01-2.93,2.8-3.74,6.23-2.22,10.03,1.61,4.01,4.92,5.5,8.99,5.65,3.89,.15,6.83-1.47,8.83-4.86,.49-.82,.48-2.95,1.83-2.07,1.27,.83,2.41,2.6,1.45,4.65-.67,1.43-2.12,1.89-3.19,2.8-2.54,2.17-5.52,3.25-8.54,3.04Z"/></g><circle class="h" cx="1073.02" cy="515.58" r="29.58"/><line class="j" x1="90.13" y1="565.18" x2="416.63" y2="563.75"/><polyline class="j" points="98.43 558 395.43 558 395.43 432 521.43 432 521.43 540"/><polyline class="j" points="116.43 549 422.43 549 422.43 423"/><g><polyline class="i" points="125.43 513 431.43 513 431.43 387 1070.43 387 1070.43 474.57"/><polygon class="b" points="1053.48 454.65 1070.43 471.61 1087.38 454.65 1087.38 469.05 1070.43 486 1053.48 469.05 1053.48 454.65"/></g></svg>