<?xml version="1.0" encoding="UTF-8"?><svg id="a" xmlns="http://www.w3.org/2000/svg" viewBox="0 0 1376.43 927.77"><defs><style>.b{fill:#5fffb4;}.c{fill:#afaf8e;}.d{fill:#4c4c4c;}.e{fill:#9c9c9c;}.f{fill:#f6f399;}.g{fill:#e9eef4;}.h{fill:#eaeaea;}.i{stroke-width:.75px;}.i,.j{stroke:#5fffb4;stroke-miterlimit:10;}.k{fill:#fdfd02;}.l,.j{fill:none;}.m{fill:#4f4f4f;}.n{fill:#050505;}.o{fill:#11110b;}.p{fill:#1b5598;}.j{stroke-width:10px;}.q{fill:#fefe01;}.r{fill:#a2a2a2;}.s{fill:#b4bbba;}.t{fill:#fefefe;}.u{fill:#dfdfdf;}</style></defs><g><path class="m" d="M217.99,927.71h-2.67c0-85.29,0-170.59,.1-255.88,0-3-1.45-2.76-3.42-2.76-66.31,.02-132.61,0-198.92,.09-3.09,0-3.77-.83-3.76-3.82,.09-61.42,.11-122.83-.03-184.25,0-3.56,1.08-4.03,4.23-4.03,66.08,.09,132.17,.05,198.25,.14,2.91,0,3.66-.66,3.65-3.62-.11-40.31-.05-80.63-.13-120.94,0-2.88,.51-3.9,3.72-3.9,384.29,.08,768.57,.08,1152.86,0,3.06,0,3.8,.79,3.8,3.82-.09,75.41-.07,150.82-.07,226.23,0,1-.05,2-.08,2.99-3.03-.32-4.36,.73-4.04,4.06,.34,3.52,.34,7.12,0,10.64-.31,3.32,.99,4.4,4.03,4.08,.03,55.2,.04,110.4,.13,165.6,0,2.31-.98,2.42-2.77,2.41-9.22-.06-18.44,.08-27.66-.09-2.6-.05-3.11,.78-3.08,3.2,.13,11.22,.13,22.44,0,33.65-.03,2.41,.46,3.21,3.05,3.16,8.99-.18,17.99,.05,26.99-.14,2.73-.06,3.48,.57,3.48,3.4-.11,38.65-.07,77.3-.07,115.96h-62.65c.05-.22,.13-.43,.13-.65,.02-25.16,.03-50.33,.04-75.49,0-1.26,.1-2.5-1.77-2.48-1.78,.02-1.82,1.15-1.82,2.47,.04,25.38,.06,50.77,.08,76.15h-72.64c-1.06-1.14-.54-2.54-.54-3.81-.04-23.95-.07-47.9,.03-71.85,.01-2.7-.99-3.35-3.29-2.8-1.96,.47-1.2,2.15-1.21,3.32-.04,23.73-.03,47.46-.04,71.19,0,1.32-.19,2.63-.29,3.95h-108.63c-1-1.03-.56-2.32-.56-3.49-.03-13.1-.02-26.2-.02-39.3,0-10.1-.09-20.21,.06-30.31,.04-2.64-1.15-3.02-3.21-2.68-2.1,.34-1.31,2.06-1.31,3.2-.05,22.87-.03,45.74-.05,68.61,0,1.32-.16,2.64-.24,3.96h-73.31c0-23.98,0-47.96,0-71.95,0-.78-.02-1.55-.02-2.33,0-1.13-.6-1.58-1.66-1.59-1.12,0-1.99,.28-1.97,1.64,0,.89-.02,1.78-.02,2.66,0,22.54,0,45.08-.01,67.62,0,1.31,.27,2.67-.32,3.94h-73.98c.05-8.88,.12-17.75,.13-26.63,.02-15.43-.03-30.86,.05-46.29,.01-2.31-.63-3.38-3.02-2.9-2.05,.41-1.31,2.08-1.31,3.24-.05,17.87-.05,35.74-.02,53.62,0,6.32,.12,12.64,.18,18.96h-73.31c-.06-1.32-.17-2.65-.17-3.97-.01-22.62,0-45.23,0-67.85,0-.89,.01-1.78-.04-2.66-.06-1.19-.91-1.39-1.87-1.38-.94,0-1.82,.14-1.87,1.36-.04,1-.04,2-.04,2.99,0,23.84,0,47.67,0,71.51h-73.31c-.02-24.27-.06-48.55-.05-72.82,0-1.86-.09-3.17-2.58-3.15-2.45,.02-2.59,1.27-2.58,3.16,.04,13.63,.04,27.27,.02,40.9-.02,10.64-.09,21.27-.14,31.91h-72.64c-.06-1.32-.18-2.65-.18-3.97-.01-21.84,0-43.69,0-65.53,0-1.55-.04-3.11,0-4.66,.03-1.36-.75-1.65-1.91-1.66-1.17,0-1.96,.27-1.9,1.64,.03,.55,0,1.11,0,1.66,0,24.17,.01,48.35,.02,72.52h-119.29c.02-23.98,.05-47.95,.07-71.93,0-.44,0-.89-.04-1.33-.14-1.27-1.11-1.15-2-1.17-.89-.02-1.53,.25-1.56,1.27-.02,.89-.03,1.78-.03,2.66,0,22.2,0,44.4-.02,66.61,0,1.3,.38,2.67-.42,3.89h-73.31c.03-23.97,.06-47.94,.08-71.9,0-.55-.02-1.11-.12-1.65-.15-.83-.85-.95-1.53-.96-.65,0-1.53-.08-1.72,.66-.25,.94-.24,1.97-.24,2.96-.01,18.09-.02,36.18,0,54.26,0,5.54,.12,11.08,.19,16.63h-74.64c-.05-1.33-.14-2.66-.14-3.99,0-22.42,0-44.85-.01-67.27,0-3.26-1.18-4.45-3.45-3.07-1.82,1.1-3.56,1.01-5.39,1.01-20.98,.02-41.96,0-62.95,.02-5.16,0-4.54-.48-4.55,4.71-.02,14.54,0,29.09-.01,43.63-.01,8.32-.09,16.64-.14,24.97h-.67c-.03-1.11-.09-2.21-.09-3.32,0-22.59,0-45.17-.01-67.76,0-1.68,.58-3.86-2.44-3.43-3.15,.69-6.35,.51-9.54,.51-14.6,0-29.2-.02-43.8,.01-7.63,.01-15.26,.11-22.88,.17-1.11-.16-2.16-1.29-3.36-.24-1.33,.66-2.77,.66-4.21,.66-21.9,0-43.79-.01-65.69,.01-1.45,0-2.83-.04-4.02-1-.83,0-1.67-.02-2.5-.03-2.22-.21-1.49,1.52-1.5,2.51-.07,6.44-.05,12.87-.03,19.31,.04,17.53,.09,35.06,.13,52.6Zm192.1-89.41c.73,.43,1.32,1.92,2.31,.72,1.01-1.22,.18-2.5-.32-3.69-1.26,.28-1.28,1.36-1.88,1.94-1.02-.16-.74-2.63-2.29-1.51-1.08,.77-.24,2.22,.21,3.03,.77,1.41,1.29-.31,1.98-.48Zm472.32-395.06c-2.31-1.07-4.51,.33-6.8,.31-21.65-.15-43.3-.02-64.96-.16-3.27-.02-4.3,.69-4.29,4.18,.13,44.97,.09,89.94,.06,134.9,0,1.5,.5,3.14-.77,4.44-.09-1.43-.25-2.86-.25-4.29-.01-45.1-.01-90.2-.01-135.31,0-.78-.05-1.56,.01-2.33,.14-1.79-.9-2.03-2.31-1.85-1.52,.06-3.05,.16-4.57,.17-27.04,.06-54.07,.13-81.11,.16-20.54,.02-41.08,0-61.61,.01-6.04,0-5.22-.55-5.22,5.06-.02,44.63,0,89.25-.04,133.88,0,1.36,.6,2.9-.64,4.09-.01-46.17-.02-92.35-.03-138.52,0-.89,.05-1.78-.02-2.66-.06-.8,.36-1.95-.98-2.09-1.05-.12-2.3-.48-2.67,1.12l-.2-.17-.24,.11c-.08-.11-.19-.16-.33-.16-1.26-.65-2.61-.39-3.93-.39-17.64-.02-35.28,0-52.92-.02-1.74,0-3.79,.43-3.57-2.46,.13-1.71-.99-1.99-2.36-1.99-5.1,0-10.21,.01-15.31,0-1.24,0-2.3,.19-2.11,1.77,.32,2.71-1.38,2.71-3.33,2.7-10.54-.04-21.08,0-31.62-.03-11.65-.03-23.29-.11-34.94-.17-.63-.65-1.36-.6-2.12-.28-3.5-.49-2.34,2.17-2.34,3.72-.04,94.51-.04,189.02-.04,283.54,0,.78-.04,1.56,.02,2.33,.16,1.82,2.44,2.97,3.81,1.86,1.12-.9,.55-2.28,.55-3.43,.03-45.31,.02-90.63,.04-135.94,0-4.9-.75-4.34,4.49-4.34,21.32-.02,42.65-.02,63.97,0,5.3,0,4.68-.57,4.69,4.54,.01,45.09,0,90.18,0,135.27,0,1-.05,2.01,.05,3,.14,1.45,1.36,1.21,2.3,1.27,.95,.06,1.82-.14,1.85-1.36,.03-1,.03-2,.03-3,0-45.42,.03-90.85-.06-136.27,0-2.76,.72-3.53,3.49-3.52,21.99,.11,43.98,.14,65.97-.02,3.38-.03,4.22,.85,4.21,4.21-.12,45.2-.08,90.4-.08,135.6,0,1,0,2,.04,3,.05,1.23,.95,1.34,1.89,1.34,.97,0,1.77-.23,1.75-1.45-.01-.89,0-1.78,0-2.67,0-45.42,.02-90.85-.06-136.27,0-2.75,.41-3.78,3.54-3.76,22.32,.16,44.65,.15,66.97,0,3.01-.02,3.63,.83,3.62,3.7-.09,45.42-.07,90.85-.07,136.27,0,.89,0,1.78,.01,2.67,.02,1.74,1.38,1.43,2.41,1.52,1.09,.09,2.01-.21,2.01-1.59,0-.89,.01-1.78,.01-2.67,0-45.31,.04-90.63-.08-135.94,0-3.31,.95-3.98,4.08-3.96,21.88,.14,43.76,.12,65.64,.01,2.9-.01,3.93,.55,3.9,3.75-.17,20.1-.08,40.2-.08,60.31,0,25.54-.02,51.09,.05,76.63,0,1.18-1.03,3.07,1.36,3.42,.53,.64,1.03,.45,1.52-.05,1.2-1.21,.68-2.74,.68-4.12,.03-45.27,.07-90.53-.06-135.8,0-3.46,.97-4.18,4.26-4.16,22.74,.15,45.49,.08,68.23,.08,.59,1,.52,2.07,.38,3.17-.15,1.2,.02,2.21,1.53,2.32,0,44.71,0,89.43,.01,134.14,0,.89,.05,1.78,0,2.66-.1,1.62,.88,1.74,2.13,1.72,1.25-.02,2.22-.25,2.16-1.8-.03-.66,0-1.33,0-2,0-43.83,0-87.65,0-131.48,0-.99-.1-1.99-.15-2.98,.84-1.19,3.49,.18,3.32-2.71-.27-4.64-.07-9.3-.08-13.96,0-.65,.13-1.7-.52-1.75-3.73-.28-2.45-3.08-2.46-4.96-.06-42.01-.04-84.03-.04-126.04,0-.89-.03-1.77,0-2.66,.03-1.18-.58-1.57-1.67-1.41Zm465.22,147.35v-89.96c0-17.66,0-35.32,0-52.98,0-2.9-1.16-3.99-3.37-3.13-1.94,.75-1.04,2.5-1.04,3.77-.05,45.43-.08,90.85,.03,136.28,0,3.25-.93,4.04-4.09,4.02-21.77-.14-43.54-.15-65.31,0-3.37,.02-4.26-.84-4.25-4.24,.12-45.09,.08-90.19,.08-135.28,0-1-.03-2,0-3,.03-1.35-.76-1.69-1.91-1.69-1.22,0-1.88,.5-1.85,1.78,.02,.89,0,1.78,0,2.67,0,43.87,0,87.74,0,131.61q0,8.07-8.23,8.07c-20.44,0-40.88-.07-61.31,.07-3.13,.02-4.07-.93-3.87-3.95,.24-3.54,.06-7.1,.06-10.66,0-42.09-.02-84.19,.06-126.28,0-2.61-.66-3.6-3.32-3.36-2.87,.26-1.85,2.35-1.86,3.75-.05,45.54-.07,91.08,.03,136.61,0,3.08-.85,3.91-3.92,3.89-21.77-.13-43.54-.16-65.31,.03-3.56,.03-4.14-1.1-4.13-4.31,.1-44.98,.07-89.96,.07-134.95,0-.78-.02-1.56,0-2.33,.05-1.44,0-2.69-2.01-2.64-1.81,.05-1.85,1.17-1.81,2.48,.03,.78,0,1.55,0,2.33,0,45.2-.03,90.41,.06,135.61,0,2.89-.71,3.79-3.7,3.77-21.88-.13-43.76-.15-65.64,.02-3.5,.03-4.18-1.04-4.17-4.31,.1-45.09,.07-90.19,.07-135.28,0-.89-.05-1.78,0-2.66,.11-1.74-.95-2-2.33-1.98-1.26,.02-2.19,.32-2.12,1.86,.04,.89,0,1.78,0,2.67,0,45.2-.03,90.4,.07,135.61,0,3.26-.97,4.1-4.14,4.08-21.55-.12-43.1-.05-64.64-.07-5.56,0-4.92,.67-4.93-5-.02-45.32,0-90.63-.03-135.95,0-1.28,.68-3.03-1.78-3.13-2.35-.09-2.03,1.44-2.03,2.87,0,22.44,.41,44.88-.11,67.3-.52,22.3,2.04,44.65-1.51,66.92-1.07,6.68,1.3,13.59,1.38,20.25,.48,43.42,.25,86.85,.25,130.28,0,1-.02,2,.05,3,.08,1.21,.97,1.31,1.92,1.31,.99,0,1.8-.2,1.84-1.4,.03-1,.03-2,.03-3,0-45.32,.03-90.63-.06-135.95,0-2.86,.63-3.75,3.64-3.73,21.99,.14,43.98,.15,65.98,0,3.46-.03,4.17,1.04,4.16,4.31-.11,45.09-.07,90.19-.07,135.28,0,1,0,2,.03,3,.05,1.64,1.28,1.54,2.39,1.58,1.11,.03,2-.27,2.01-1.62,0-1,.02-2,.02-3,0-45.2,.03-90.41-.06-135.61,0-2.95,.63-3.95,3.8-3.93,21.77,.15,43.54,.08,65.31,.08q4.33,0,4.33,4.31c0,44.98,0,89.96,0,134.95,0,.89,.03,1.78,0,2.67-.04,1.29,.33,2.14,1.84,2.15,1.42,0,2.02-.63,1.97-2.02-.03-.89,0-1.78,0-2.67,0-45.2,.03-90.41-.07-135.61,0-3.05,.81-3.87,3.86-3.85,21.55,.13,43.1,.06,64.64,.08,5.32,0,4.78-.67,4.78,4.82,.01,45.2,.02,90.41-.03,135.61,0,2.5,.26,4.1,3.37,3.67,2.8-.38,1.79-2.44,1.79-3.84,.05-45.54,.07-91.08-.02-136.61,0-2.91,.74-3.75,3.7-3.73,21.88,.13,43.76,.16,65.64-.03,3.51-.03,4.15,1.05,4.14,4.28-.1,45.09-.07,90.19-.07,135.28,0,1,.01,2,.02,3,0,1.36,.91,1.62,2.01,1.62,1.05,0,1.68-.47,1.71-1.58,.02-1,.03-2,.03-3,0-45.09,.03-90.19-.07-135.28,0-3.23,.62-4.35,4.15-4.32,21.77,.18,43.54,.17,65.31,0,3.41-.03,4.2,.89,4.19,4.22-.11,45.09-.08,90.19-.08,135.28,0,1,.02,2,.02,3,0,1.36,.85,1.64,1.99,1.6,1.11-.04,2.35,.15,2.41-1.51,.04-1,.03-2,.03-3,0-47.09,0-94.19,0-141.28Zm-1277.3-20.42c0-21.2-.04-42.4,.06-63.61,.01-2.56-.6-3.37-3.28-3.35-16.76,.13-33.52,.12-50.29,0-2.66-.02-3.34,.75-3.34,3.36,.08,42.4,.08,84.81,0,127.21,0,2.75,.71,3.57,3.51,3.54,16.65-.13,33.3-.13,49.95,0,2.86,.02,3.46-.87,3.45-3.57-.11-21.2-.06-42.4-.06-63.61Zm74.2,35.32c2.87-4.07,5.6-7.91,7.8-12.11,3.26-6.24,5.79-12.89,10.07-18.58,.45-.59,.41-1.22-.26-1.71-1.51-1.09-1.97-2.89-2.88-4.38-4.55-7.48-8.1-15.56-13.74-22.6-.68,1.48-.5,2.84-.34,4.08,.42,3.32-.57,4.45-4.21,4.42-21.32-.2-42.65-.07-63.97-.14-2.17,0-3.07,.31-3.04,2.81,.14,11.55,.11,23.1,.02,34.65-.02,2,.43,2.7,2.55,2.62,4.66-.17,9.33-.05,13.99-.05,16.88,0,33.77,.07,50.65-.07,2.82-.02,3.68,.78,3.41,3.52-.24,2.49-.05,5.02-.05,7.53Zm644.6,158.07c0,2.52-.19,4.16,.04,5.74,.45,3.13-.83,3.79-3.8,3.77-21.08-.13-42.17-.02-63.25-.13-2.79-.02-3.5,.77-3.46,3.52,.16,10.76,.25,21.53-.03,32.29-.09,3.58,1.11,4.12,4.3,4.1,20.53-.14,41.06,.03,61.59-.17,3.5-.03,4.41,1,4.05,4.24-.27,2.41-.05,4.87-.05,7.31,5.77-10.09,11.95-19.65,16.82-29.92,.49-1.03,.94-1.9,.31-3.09-4.88-9.22-10.7-17.87-16.5-27.66Zm146.62-176.52c0,2.32,.09,4.65-.03,6.96-.1,1.93,.74,2.5,2.54,2.47,1.62-.03,2.77-.16,2.72-2.27-.1-4.75-.08-9.5-.01-14.25,.03-1.88-.98-2.17-2.52-2.14-1.59,.02-2.84,.16-2.73,2.28,.12,2.31,.03,4.64,.02,6.96Zm-360.59-180.42c2.43,0,4.86-.04,7.29,.01,1.73,.04,2.65-.5,2.63-2.46-.02-1.88-1-2.18-2.52-2.17-4.97,.03-9.94,.05-14.91,0-1.78-.02-2.58,.5-2.56,2.45,.02,1.87,.88,2.22,2.45,2.19,2.54-.06,5.08-.02,7.62-.02Zm-.58-18.65c2.76,0,5.51-.02,8.27,0,1.75,.02,2.22-.9,2.22-2.51,0-1.63-.78-2.1-2.24-2.09-5.18,.03-10.37,.05-15.55,0-1.85-.02-2.17,.97-2.17,2.51,0,1.56,.67,2.16,2.2,2.11,2.42-.07,4.85-.02,7.28-.02Zm.34-6.06c2.54,0,5.09-.02,7.63,0,1.53,.02,2.5-.35,2.53-2.2,.04-1.95-.85-2.48-2.61-2.46-4.98,.05-9.95,.05-14.93,0-1.59-.02-2.43,.38-2.45,2.22-.02,1.9,.69,2.54,2.53,2.47,2.43-.1,4.86-.02,7.3-.02Zm.27-10.71c-2.65,0-5.3,.05-7.95-.02-1.58-.04-2.12,.64-2.14,2.16-.02,1.59,.4,2.5,2.21,2.48,5.19-.06,10.38-.04,15.57,0,1.5,0,2.19-.55,2.19-2.14,0-1.63-.52-2.5-2.26-2.47-2.54,.04-5.08,.01-7.62,0Zm0,61.97c-2.65,0-5.3,.05-7.94-.02-1.58-.04-2.13,.64-2.14,2.17-.01,1.6,.4,2.48,2.21,2.46,5.19-.06,10.37-.04,15.56-.01,1.5,0,2.18-.55,2.19-2.14,.01-1.65-.55-2.49-2.27-2.47-2.54,.03-5.08,0-7.61,0Zm-.33-69.89c2.54,0,5.09-.05,7.63,.02,1.78,.04,2.62-.56,2.59-2.49-.03-1.87-1.01-2.18-2.53-2.17-4.98,.03-9.96,.07-14.93-.01-1.85-.03-2.54,.6-2.53,2.49,.02,1.85,.89,2.23,2.47,2.19,2.43-.07,4.87-.02,7.3-.01Zm.08-6.66c2.65,0,5.3-.02,7.95,0,1.79,.02,2.19-.96,2.18-2.54,0-1.64-.83-2.09-2.27-2.08-5.19,.02-10.38,.04-15.56,0-1.6-.01-2.12,.73-2.13,2.21-.02,1.57,.4,2.51,2.23,2.44,2.54-.09,5.08-.02,7.62-.03Zm.58,70.11v.02c-2.87,0-5.73,.02-8.6,0-1.8-.01-1.77,1.19-1.8,2.48-.03,1.34,.4,2.09,1.86,2.08,5.29-.02,10.58-.02,15.88,0,1.74,0,2.22-.91,2.22-2.52,0-1.65-.83-2.08-2.27-2.06-2.43,.04-4.85,.01-7.28,.01Zm-.91-26.17c2.65,0,5.31-.02,7.96,0,1.54,.02,2.51-.37,2.5-2.22,0-1.66-.56-2.46-2.28-2.45-5.2,.03-10.4,.05-15.59,0-1.64-.02-2.08,.75-2.09,2.23,0,1.56,.35,2.54,2.2,2.46,2.43-.09,4.86-.02,7.3-.02Zm.4,24.7c2.54,0,5.08-.03,7.62,0,1.6,.02,2.44-.51,2.44-2.29,0-1.71-.67-2.38-2.35-2.37-5.08,.04-10.16,.06-15.25,0-1.69-.02-2.39,.58-2.38,2.31,.01,1.63,.51,2.44,2.28,2.37,2.54-.1,5.08-.02,7.62-.02Zm-.1-6.08c2.54,0,5.09-.02,7.63,0,1.51,.02,2.52-.28,2.54-2.17,.02-1.92-.8-2.51-2.59-2.49-4.98,.05-9.95,.04-14.93,0-1.54-.01-2.45,.29-2.47,2.18-.02,1.91,.66,2.57,2.51,2.5,2.43-.09,4.87-.02,7.3-.02Zm.27-54.03c-2.65,0-5.3,.04-7.95-.01-1.59-.03-2.11,.69-2.08,2.22,.03,1.39,.52,1.99,1.93,1.99,5.19-.03,10.38,0,15.57,0,1.36,0,2.35-.32,2.38-2.01,.04-1.88-1.07-2.19-2.55-2.19-2.43,0-4.86,0-7.29,0Zm-.43,28.89c2.65,0,5.3,0,7.95,0,1.41,0,2.3-.45,2.31-2.09,.01-1.65-.89-2.1-2.3-2.1-5.19,0-10.39,.01-15.58,0-1.35,0-1.99,.45-2,1.93,0,1.47,.33,2.31,1.99,2.28,2.54-.05,5.08-.01,7.62,0Zm.13,18.62c2.67,0,5.33,.01,8,0,1.26,0,2.09-.45,2.14-1.93,.05-1.6-.72-2.24-2.18-2.24-5.22-.01-10.43,.02-15.65-.03-1.68-.02-2.06,.87-2.05,2.31,.01,1.44,.72,1.94,2.08,1.92,2.55-.04,5.11-.01,7.66-.02Zm317.53,174.57c0-2.43-.02-4.86,0-7.29,.01-1.27-.29-2.12-1.82-2.12-1.38,0-2.06,.49-2.05,1.91,.02,4.97,.02,9.94,0,14.91,0,1.24,.57,1.77,1.82,1.78,1.36,.02,2.07-.46,2.05-1.9-.04-2.43-.01-4.86,0-7.29Zm5.37-.04c0-2.54-.01-5.09,0-7.63,.01-1.57-.98-1.71-2.21-1.72-1.22,0-1.85,.45-1.85,1.73,.01,4.98,.02,9.96-.02,14.93,0,1.45,.69,1.91,2.05,1.9,1.35-.01,2.07-.46,2.04-1.92-.04-2.43-.01-4.87-.02-7.3Zm5.23,.04c0-2.33,0-4.65,0-6.98,0-1.29-.03-2.42-1.85-2.44-1.67-.02-2.07,.78-2.06,2.24,.04,4.76,.03,9.52,0,14.28,0,1.31,.35,2.06,1.86,2.1,1.67,.04,2.09-.77,2.06-2.24-.05-2.32-.01-4.65-.01-6.98Zm6.07-.05c0-2.43-.03-4.87,.01-7.3,.02-1.33-.4-2.03-1.89-2.05-1.53-.02-2.24,.48-2.22,2.08,.04,4.87,.03,9.74,0,14.61,0,1.47,.76,1.87,2.08,1.89,1.38,.02,2.05-.49,2.02-1.93-.04-2.43-.01-4.87-.01-7.3Zm5.14-.08c0-2.43-.01-4.86,0-7.29,0-1.34-.5-2.01-1.96-2.01-1.49,0-1.9,.71-1.89,2.04,.03,4.86,.03,9.72,0,14.57,0,1.36,.51,2.01,1.94,2.01,1.48,0,1.92-.72,1.91-2.05-.03-2.43,0-4.86,0-7.29Zm4.86-.06c0-2.21-.02-4.42,0-6.64,.01-1.41,0-2.65-2.01-2.6-1.77,.05-1.9,1.1-1.89,2.43,.01,4.65,.03,9.29,0,13.94-.01,1.44,.35,2.29,2.03,2.27,1.8-.02,1.88-1.13,1.87-2.43,0-2.32,0-4.65,0-6.97Zm5.42,.19c0-2.44-.04-4.87,.02-7.31,.04-1.6-.69-2.1-2.22-2.09-1.46,.01-1.93,.64-1.92,2.01,.03,4.76,.04,9.53,0,14.29-.01,1.44,.32,2.3,2.02,2.28,1.59-.01,2.17-.67,2.12-2.2-.06-2.32-.02-4.65-.01-6.98Zm1.29-.14c0,2.43,.03,4.87-.01,7.3-.02,1.34,.41,2.06,1.9,2.05,1.39-.01,2.02-.53,2.01-1.95-.03-4.87-.03-9.74,0-14.61,0-1.34-.43-2.05-1.9-2.06-1.41,0-2.02,.57-2,1.96,.03,2.43,0,4.87,0,7.3Zm19.95,.09c0-2.43-.02-4.86,0-7.29,.02-1.31-.38-2.07-1.88-2.08-1.42,0-2,.6-1.99,1.97,.02,4.86,.02,9.72,0,14.58,0,1.3,.37,2.06,1.88,2.07,1.68,.01,2.04-.86,2-2.3-.05-2.32-.01-4.64-.01-6.96Zm5.44,.27c0-2.33,0-4.65,0-6.98,0-1.35,.1-2.65-1.98-2.66-1.89,0-2.19,.91-2.17,2.48,.05,4.54,.06,9.09,0,13.63-.02,1.56,.25,2.51,2.14,2.51,2.04,0,2.01-1.28,2.01-2.66,0-2.11,0-4.21,0-6.32Zm399.77,3.52c0,2.44,.04,4.87-.02,7.31-.03,1.49,.43,2.25,2.08,2.21,1.54-.04,1.82-.88,1.82-2.15-.02-4.76-.03-9.53,0-14.29,.01-1.49-.45-2.25-2.1-2.21-1.56,.04-1.81,.89-1.8,2.15,.03,2.33,0,4.65,0,6.98Zm9.3,.23c0-2.44-.03-4.88,.01-7.31,.03-1.38-.49-2.03-1.94-2-1.26,.02-2.19,.26-2.18,1.78,.01,4.99,.01,9.97,0,14.96,0,1.49,.83,1.82,2.13,1.84,1.41,.02,2.01-.54,1.99-1.95-.05-2.44-.01-4.88,0-7.31Zm6.1,0c0,2.44,.03,4.87-.01,7.31-.02,1.39,.57,1.97,1.99,1.98,1.47,0,1.92-.68,1.91-2.03-.03-4.87-.04-9.74,0-14.61,0-1.4-.55-1.98-1.97-1.98-1.46,0-1.94,.69-1.92,2.04,.03,2.44,0,4.87,.01,7.31Zm-4.76-.06c0,2.44,0,4.89,0,7.33,0,1.11,.21,1.97,1.61,1.97,1.22,0,1.86-.46,1.86-1.75-.01-5,0-9.99,0-14.99,0-1.21-.54-1.81-1.82-1.81-1.38,0-1.66,.78-1.66,1.92,.01,2.44,0,4.89,0,7.33Zm-427.16-3.87c0-2.44-.01-4.87,0-7.31,0-1.25-.24-2.15-1.82-2.11-1.4,.04-1.61,.84-1.61,1.96,0,4.87,0,9.74,0,14.62,0,1.1,.25,1.94,1.64,1.97,1.56,.03,1.81-.88,1.79-2.14-.03-2.33,0-4.65,0-6.98Zm-504.38,250.16c-1.27-.47-2.17-.94-3.11-1.12-3.01-.58-1.92,1.78-1.18,2.32,1.41,1.02,2.84-.14,4.29-1.2Zm-30.82-.45c1.69,1.44,2.99,2.03,4.33,1.53,.63-.24,.61-1.63,.16-2.06-1.49-1.43-2.59,.34-4.5,.53Zm19.46-1.69c-1.32,.71-2.51,1.27-2.2,2.67,.1,.45,1.51,1.14,1.81,.94,1.21-.8,.78-2.07,.39-3.61Zm2.5,4.08c1.1-.76,1.21-2.03,1.64-3.08,.35-.87-.38-1.17-1.08-1.17-.31,0-1.52-.26-.79,.55,1.16,1.3-.72,2.49,.23,3.7Z"/><path class="t" d="M1375.6,927.71c0-38.65-.03-77.3,.07-115.96,0-2.83-.75-3.46-3.48-3.4-8.99,.18-17.99-.04-26.99,.14-2.59,.05-3.08-.76-3.05-3.16,.13-11.22,.13-22.44,0-33.65-.03-2.41,.48-3.25,3.08-3.2,9.22,.17,18.44,.03,27.66,.09,1.79,.01,2.77-.1,2.77-2.41-.1-55.2-.11-110.4-.13-165.6,0-6.26,0-12.52,0-18.78,.03-1,.08-2,.08-2.99,0-75.41-.02-150.82,.07-226.23,0-3.03-.74-3.82-3.8-3.82-384.29,.07-768.57,.07-1152.86,0-3.21,0-3.73,1.02-3.72,3.9,.09,40.31,.02,80.63,.13,120.94,0,2.96-.74,3.63-3.65,3.62-66.08-.09-132.17-.05-198.25-.14-3.15,0-4.24,.47-4.23,4.03,.14,61.42,.12,122.83,.03,184.25,0,2.99,.68,3.82,3.76,3.82,66.31-.1,132.61-.07,198.92-.09,1.97,0,3.42-.23,3.42,2.76-.1,85.29-.09,170.59-.1,255.88-70.87,0-141.73-.01-212.6,.06C.45,927.78,0,927.33,0,925.04,.07,617.61,.07,310.17,0,2.73,0,.45,.45,0,2.73,0c456.96,.06,913.92,.06,1370.87,0,2.28,0,2.73,.45,2.73,2.73-.07,307.44-.06,614.88-.1,922.32,0,.86,.75,2.07-.63,2.67ZM280.09,347.04h259.36c-2.51-.79-4.07-1.28-5.64-1.77-7.84-2.45-15.52-5.43-21.96-10.57-7.53-6.01-12.49-14.03-14.4-23.46-1.33-6.6-2.1-13.58,1.7-19.75,2.15-3.5,3.67-7.24,5.51-10.85,3.5-6.87,6.75-13.88,10.03-20.84,5.64-11.96,12.16-23.44,17.87-35.34,3.38-7.05,6.45-14.22,10.2-21.13,5.69-10.48,9.8-21.73,16.04-32.01,5.01-8.27,8.15-17.57,12.74-26.16,6.11-11.44,10.94-23.51,17.31-34.89,6.89-12.31,12.35-25.42,18.43-38.19,1.67-3.5,3.05-7.17,5.11-10.41,1.15-1.81,1.45-2.13-.73-3.08-20.8-8.99-41.55-18.11-62.31-27.21-11.35-4.98-22.68-10-34.03-14.97-5.37-2.35-10.76-4.66-16.15-6.97-.84-.36-1.52-.99-2.27,.53-4.23,8.55-8.67,17-12.99,25.51-4.49,8.85-8.55,17.93-12.79,26.89-6.03,12.75-13.11,24.94-19.02,37.74-2.9,6.29-5.77,12.59-9.07,18.73-5.9,10.98-10.17,22.77-16.74,33.5-4.76,7.77-7.72,16.55-12.01,24.67-6.32,11.95-11.1,24.67-18.11,36.33-3.85,6.39-6.55,13.45-9.85,20.17-7.45,15.12-14.64,30.37-22.23,45.44-3.66,7.27-7.83,13.98-13.32,19.89-6.65,7.15-13.46,14.09-21,20.42-7.65,6.43-15.59,12.32-23.97,17.69-.84,.54-1.65,1.18-2.58,1.51-7.74,2.75-14.88,7.14-23.11,8.57Z"/><path class="q" d="M375.27,927.71h-18.66c-.04-6.19-.21-12.38-.05-18.56,.07-2.66-.63-3.78-3.34-3.05-2.76-.08-5.52-.24-8.28-.23-12.29,.05-24.58,.14-36.87,.22-2.61-.63-3.78,.24-3.13,3l-.31,18.61h-4.67c.08-1.32,.22-2.65,.23-3.97,.01-21.88,.06-43.76-.05-65.63-.01-2.76,.45-3.82,3.58-3.8,22.65,.15,45.31,.15,67.97,0,3.09-.02,3.6,.98,3.59,3.77-.09,23.21-.03,46.42,0,69.63Z"/><path class="k" d="M452.58,927.71h-15.99c-.7-7.35-.25-14.72-.23-22.08,0-2.46-.58-3.59-3.17-2.85-9.85-.58-19.71-.18-29.56-.22-5.86-.02-11.73-.35-17.59,.23-2.83-.77-2.98,.84-2.6,2.93-.05,7.33-.11,14.66-.16,22h-4c.01-22.96,.1-45.93-.04-68.89-.02-3.3,.98-4,4.1-3.98,21.85,.13,43.71,.14,65.56,0,3.17-.02,4.12,.78,4.1,4.03-.14,21.85-.07,43.71-.09,65.56,0,1.09-.22,2.18-.33,3.27Z"/><path class="q" d="M294.63,927.71h-10c0-8.22-.04-16.43,.05-24.65,.02-1.96-.5-2.72-2.6-2.71-15.76,.11-31.53,.11-47.29,.14-1.56-.17-3.31-.59-2.73,2.07-.03,8.38-.06,16.76-.09,25.14h-10.66c-.05-.44-.14-.88-.14-1.32,0-22.85,.04-45.7-.07-68.55-.01-2.88,1.42-2.88,3.49-2.87,21.96,.04,43.93,.11,65.89-.07,3.47-.03,4.16,.99,4.15,4.26-.12,22.85-.03,45.7,0,68.54Z"/><path class="p" d="M283.3,927.71h-15.99c.2-2.31-.93-3.19-3.16-3.11-2.77,.1-5.55,.08-8.33,.08-.8,0-1.69-.13-1.69-1.16,0-1.1,.98-1.01,1.74-1.02,1.66-.03,3.33-.04,5,0,1.24,.03,2.21-.13,2.15-1.74-.05-1.4-.91-1.57-2.02-1.56-1.78,.02-3.55,0-5.33-.02-.89,0-2.04,.04-2-1.17,.08-2.22-1.59-4.76,1.4-6.54,1.48-.88,1.55-2.65,.72-4.18-.78-1.44-2.15-1.9-3.71-1.56-1.81,.39-2.62,1.71-2.47,3.44,.51,6.19,1.13,12.37,1.71,18.55h-5.33c-.05-2.01,2.02-2.3,2.93-3.54,.85-1.16,.93-2.38,.24-3.34-.82-1.14-1.84,.12-2.53,.5-2.5,1.37-4.08,3.55-4.64,6.39h-8c.21-8.22-.45-16.44,.36-24.65,.32-.32,.64-.65,.95-.97,.87-.13,1.73-.37,2.6-.37,14.7,0,29.4,.02,44.1,.05l-.07-.06c.24,.35,.49,.71,.73,1.06,.15,1.96,.4,3.92,.44,5.88,.11,6.36,.15,12.72,.21,19.07Z"/><path class="p" d="M402.59,927.71h-4c.25-.34,.43-.79,.76-1.02,1.49-1.05,1.54-2.61,.66-3.73-1.07-1.37-2.12,.43-2.97,.84-1.5,.71-2.85,2-3.12,3.91h-9.33c.06-7.33,.11-14.66,.17-21.99,1.14-1.41,2.69-1.82,4.43-1.81,13.74,0,27.48,.01,41.21-.01,2.87,0,4.29,1.23,4.25,4.21-.08,6.53-.06,13.07-.08,19.61h-15.99c-.94-1.08-2.21-.84-3.41-.84-2.44,0-4.88,.05-7.32,.04-.94,0-2.3,.3-2.25-1.19,.05-1.52,1.47-.95,2.35-1.02,1.1-.09,2.22,.05,3.32-.04,1.07-.09,2.58,.58,2.62-1.51,.04-2.26-1.58-1.64-2.77-1.73-.88-.07-1.8,.12-2.65-.05-1.15-.22-3.17,.88-3.23-1.15-.06-1.99-1.74-4.36,.77-6.06,1.71-1.16,2.29-2.69,1.31-4.58-.82-1.59-2.29-2.22-3.92-1.64-1.79,.64-3.43,1.64-2.9,4.07,1.13,5.17,1.51,10.45,2.08,15.7Z"/><path class="p" d="M354.61,927.71h-19.33c.4-2.22-.32-3.33-2.76-3-1.19,.16-2.45,.16-3.64-.02-1.25-.19-3.37,.96-3.52-1.17-.14-1.98-1.64-4.37,.82-6.06,1.71-1.18,2.21-2.73,1.24-4.59-.83-1.59-2.27-2.11-3.93-1.6-2.07,.65-2.4,2.29-2.21,4.25,.4,4.05,.98,8.1,.68,12.19h-15.99c.06-5.42,.14-10.84,.16-16.26,0-2.48,.95-4.17,3.61-4.17,13.84-.04,27.68-.04,41.52,0,2.22,0,3.52,1.18,3.51,3.51-.03,5.64-.09,11.28-.14,16.92Z"/><path class="u" d="M1231.65,927.71c.1-1.32,.28-2.63,.29-3.95,.02-23.73,0-47.46,.04-71.19,0-1.18-.75-2.85,1.21-3.32,2.3-.55,3.3,.1,3.29,2.8-.1,23.95-.07,47.9-.03,71.85,0,1.27-.52,2.67,.54,3.81h-5.33Z"/><path class="u" d="M806.46,927.71c.05-10.64,.12-21.27,.14-31.91,.02-13.63,.03-27.27-.02-40.9,0-1.89,.13-3.14,2.58-3.16,2.49-.02,2.58,1.28,2.58,3.15,0,24.27,.03,48.55,.05,72.82h-5.33Z"/><path class="u" d="M1117.69,927.71c.09-1.32,.24-2.64,.24-3.96,.02-22.87,0-45.74,.05-68.61,0-1.14-.79-2.86,1.31-3.2,2.06-.33,3.25,.04,3.21,2.68-.15,10.1-.06,20.2-.06,30.31,0,13.1-.01,26.2,.02,39.3,0,1.17-.44,2.46,.56,3.49h-5.33Z"/><path class="u" d="M885.1,927.71c0-23.84,0-47.67,0-71.51,0-1,0-2,.04-2.99,.04-1.22,.93-1.35,1.87-1.36,.96-.01,1.81,.19,1.87,1.38,.05,.88,.04,1.77,.04,2.66,0,22.62,0,45.23,0,67.85,0,1.32,.11,2.65,.17,3.97h-4Z"/><path class="u" d="M729.82,927.71c0-24.17-.02-48.35-.02-72.52,0-.55,.03-1.11,0-1.66-.06-1.37,.73-1.65,1.9-1.64,1.17,0,1.94,.3,1.91,1.66-.03,1.55,0,3.1,0,4.66,0,21.84,0,43.69,0,65.53,0,1.32,.12,2.65,.18,3.97h-4Z"/><path class="h" d="M962.41,927.71c-.06-6.32-.17-12.64-.18-18.96-.02-17.87-.02-35.74,.02-53.62,0-1.16-.74-2.83,1.31-3.24,2.4-.48,3.04,.59,3.02,2.9-.08,15.43-.02,30.86-.05,46.29-.01,8.88-.09,17.75-.13,26.63h-4Z"/><path class="h" d="M1040.38,927.71c.59-1.27,.32-2.63,.32-3.94,.02-22.54,.01-45.08,.01-67.62,0-.89,.03-1.78,.02-2.66-.01-1.37,.85-1.65,1.97-1.64,1.06,0,1.67,.46,1.66,1.59,0,.78,.02,1.55,.02,2.33,0,23.98,0,47.96,0,71.95h-4Z"/><path class="s" d="M452.58,927.71c.11-1.09,.33-2.18,.33-3.27,.02-21.85-.05-43.71,.09-65.56,.02-3.26-.93-4.05-4.1-4.03-21.85,.14-43.71,.13-65.56,0-3.13-.02-4.12,.68-4.1,3.98,.14,22.96,.05,45.93,.04,68.89h-.67c.05-8.32,.13-16.64,.14-24.97,.02-14.54,0-29.09,.01-43.63,0-5.18-.61-4.7,4.55-4.71,20.98-.02,41.96,0,62.95-.02,1.83,0,3.57,.09,5.39-1.01,2.27-1.37,3.45-.19,3.45,3.07,0,22.42,0,44.85,.01,67.27,0,1.33,.09,2.66,.14,3.99h-2.67Z"/><path class="h" d="M606.53,927.71c.8-1.22,.42-2.59,.42-3.89,.03-22.2,.02-44.4,.02-66.61,0-.89,0-1.78,.03-2.66,.02-1.02,.67-1.29,1.56-1.27,.89,.02,1.86-.1,2,1.17,.05,.44,.04,.89,.04,1.33-.02,23.98-.05,47.95-.07,71.93h-4Z"/><path class="h" d="M1309.62,927.71c-.03-25.38-.05-50.77-.08-76.15,0-1.31,.04-2.45,1.82-2.47,1.86-.02,1.77,1.22,1.77,2.48-.01,25.16-.02,50.33-.04,75.49,0,.22-.09,.43-.13,.65h-3.33Z"/><path class="h" d="M529.88,927.71c-.06-5.54-.18-11.08-.19-16.63-.02-18.09-.01-36.18,0-54.26,0-.99-.01-2.02,.24-2.96,.2-.74,1.07-.67,1.72-.66,.68,0,1.37,.13,1.53,.96,.1,.54,.12,1.1,.12,1.65-.02,23.97-.05,47.94-.08,71.9h-3.33Z"/><path class="h" d="M295.81,853.65c1.2-1.05,2.24,.08,3.36,.24-.02,19.62-.05,39.24-.05,58.86,0,4.98,.11,9.97,.18,14.95h-3.33c0-13.17,.02-26.35,0-39.52-.02-11.51-.1-23.02-.15-34.53Z"/><path class="c" d="M295.81,853.65c.05,11.51,.12,23.02,.15,34.53,.03,13.17,0,26.35,0,39.52h-1.33c-.02-22.85-.12-45.7,0-68.54,.02-3.27-.68-4.29-4.15-4.26-21.96,.18-43.93,.1-65.89,.07-2.08,0-3.51,0-3.49,2.87,.11,22.85,.06,45.7,.07,68.55,0,.44,.09,.88,.14,1.32h-.67c-.03-23.61-.05-47.21-.15-70.82,0-1.5,.82-2.43,1.39-3.57,1.18,.96,2.57,1,4.02,1,21.9-.02,43.79-.02,65.69-.01,1.44,0,2.87,0,4.21-.66Z"/><path class="g" d="M251.31,927.71c-.58-6.18-1.19-12.36-1.71-18.55-.14-1.72,.67-3.05,2.47-3.44,1.55-.34,2.92,.12,3.71,1.56,.83,1.53,.76,3.3-.72,4.18-2.98,1.77-1.32,4.32-1.4,6.54-.04,1.2,1.11,1.16,2,1.17,1.78,.02,3.55,.04,5.33,.02,1.11-.01,1.97,.16,2.02,1.56,.06,1.61-.91,1.76-2.15,1.74-1.66-.04-3.33-.02-5,0-.76,.01-1.73-.08-1.74,1.02,0,1.02,.89,1.16,1.69,1.16,2.78,0,5.55,.03,8.33-.08,2.24-.08,3.36,.79,3.16,3.11h-15.99Z"/><path class="u" d="M375.39,853.21c3.02-.43,2.44,1.74,2.44,3.43,.01,22.59,0,45.17,.01,67.76,0,1.11,.06,2.21,.09,3.32h-2c-.03-23.42-.06-46.83-.1-70.25,0-1.43,.25-2.9-.44-4.26Z"/><path class="e" d="M375.39,853.21c.69,1.36,.44,2.83,.44,4.26,.04,23.42,.07,46.83,.1,70.25h-.67c-.02-23.21-.08-46.42,0-69.63,.01-2.79-.51-3.79-3.59-3.77-22.65,.15-45.31,.15-67.97,0-3.12-.02-3.59,1.04-3.58,3.8,.1,21.88,.06,43.75,.05,65.63,0,1.32-.15,2.65-.23,3.97h-.67c-.06-4.98-.18-9.97-.18-14.95,0-19.62,.03-39.24,.05-58.86,7.63-.06,15.26-.15,22.88-.17,14.6-.03,29.2,0,43.8-.01,3.19,0,6.39,.17,9.54-.51Z"/><path class="g" d="M402.59,927.71c-.57-5.25-.95-10.52-2.08-15.7-.53-2.43,1.11-3.43,2.9-4.07,1.63-.58,3.1,.04,3.92,1.64,.98,1.89,.39,3.42-1.31,4.58-2.51,1.7-.83,4.07-.77,6.06,.06,2.02,2.08,.92,3.23,1.15,.86,.17,1.77-.02,2.65,.05,1.2,.09,2.82-.53,2.77,1.73-.04,2.09-1.55,1.42-2.62,1.51-1.1,.09-2.22-.05-3.32,.04-.88,.08-2.3-.5-2.35,1.02-.05,1.49,1.31,1.18,2.25,1.19,2.44,.02,4.88-.03,7.32-.04,1.2,0,2.47-.24,3.41,.84h-15.99Z"/><path class="e" d="M283.3,927.71c-.06-6.36-.1-12.72-.21-19.07-.03-1.96-.28-3.92-.44-5.88-.24-.35-.49-.71-.73-1.06l.07,.06c-.46-.63-1.15-.59-1.81-.59-14.2,0-28.4,0-42.6,0-.88,0-1.81-.12-2.29,.91-.32,.32-.64,.65-.95,.97-1.45,.72-1,2.07-1,3.21-.04,7.15-.02,14.3-.02,21.44h-1.33c.03-8.38,.06-16.76,.09-25.14,1.25-.25,1.99-1.16,2.73-2.07,15.76-.03,31.53-.03,47.29-.14,2.1-.01,2.62,.75,2.6,2.71-.09,8.21-.05,16.43-.05,24.65h-1.33Z"/><path class="g" d="M321.95,927.71c.31-4.09-.27-8.14-.68-12.19-.19-1.96,.13-3.6,2.21-4.25,1.66-.52,3.1,0,3.93,1.6,.97,1.86,.47,3.41-1.24,4.59-2.46,1.69-.96,4.09-.82,6.06,.16,2.13,2.27,.98,3.52,1.17,1.19,.18,2.44,.17,3.64,.02,2.45-.32,3.16,.79,2.76,3h-13.33Z"/><path class="s" d="M354.61,927.71c.05-5.64,.1-11.28,.14-16.92,.01-2.33-1.29-3.5-3.51-3.51-13.84-.04-27.68-.04-41.52,0-2.65,0-3.6,1.7-3.61,4.17-.02,5.42-.1,10.84-.16,16.26h-.67c-.15-6.2,.51-12.42-.36-18.61-.65-2.77,.52-3.63,3.13-3,1.16,.57,2.4,.33,3.6,.33,11.65,.02,23.29,.03,34.94,0,2.2,0,4.43,.36,6.61-.31,2.72-.73,3.41,.39,3.34,3.05-.15,6.18,.02,12.37,.05,18.56h-2Z"/><path class="u" d="M221.9,853.32c-.57,1.14-1.4,2.08-1.39,3.57,.1,23.61,.11,47.21,.15,70.82h-1.33c-.05-1.33-.14-2.65-.14-3.98,0-21.93-.01-43.87,0-65.8,0-1.55,.13-3.09,.2-4.64,.83,0,1.67,.02,2.5,.03Z"/><path class="c" d="M219.39,853.29c-.07,1.55-.2,3.09-.2,4.64-.01,21.93-.01,43.87,0,65.8,0,1.33,.09,2.65,.14,3.98h-1.33c-.04-17.53-.09-35.06-.13-52.6-.01-6.44-.04-12.87,.03-19.31,.01-.99-.72-2.72,1.5-2.51Z"/><path class="s" d="M434.58,927.71c.02-6.54,0-13.07,.08-19.61,.04-2.98-1.38-4.21-4.25-4.21-13.74,.02-27.48,.01-41.21,.01-1.73,0-3.28,.4-4.43,1.81-.31,0-.61,.02-.92,.02-.14,.03-.28,.02-.42-.03-.38-2.08-.23-3.7,2.6-2.93,1.32,.1,2.63,.3,3.95,.3,12.31,.02,24.62,.03,36.93,0,2.09,0,4.21,.34,6.28-.3,2.59-.74,3.17,.39,3.17,2.85-.01,7.36-.47,14.72,.23,22.08h-2Z"/><path class="g" d="M241.98,927.71c.57-2.84,2.14-5.02,4.64-6.39,.69-.38,1.71-1.64,2.53-.5,.69,.96,.61,2.18-.24,3.34-.91,1.25-2.98,1.54-2.93,3.54h-4Z"/><path class="g" d="M393.93,927.71c.26-1.92,1.61-3.21,3.12-3.91,.85-.4,1.9-2.21,2.97-.84,.88,1.12,.83,2.69-.66,3.73-.33,.23-.51,.67-.76,1.02h-4.67Z"/><path class="s" d="M233.32,927.71c0-7.15-.02-14.3,.02-21.44,0-1.14-.44-2.49,1-3.21-.8,8.21-.15,16.43-.36,24.65h-.67Z"/><path class="m" d="M383.43,905.71c.14,.05,.28,.06,.42,.03,.03,7.32,.06,14.64,.09,21.96h-.67c.05-7.33,.11-14.66,.16-22Z"/><path class="g" d="M383.93,927.71c-.03-7.32-.06-14.64-.09-21.96,.31,0,.61-.02,.92-.02-.06,7.33-.11,14.66-.17,21.99h-.67Z"/><path class="c" d="M304.93,909.09c.87,6.19,.21,12.41,.36,18.61h-.67l.31-18.61Z"/><path class="u" d="M1347.64,590.59c0,47.09,0,94.19,0,141.28,0,1,0,2-.03,3-.06,1.66-1.31,1.47-2.41,1.51-1.14,.04-1.99-.23-1.99-1.6,0-1-.02-2-.02-3,0-45.09-.04-90.19,.08-135.28,0-3.34-.79-4.25-4.19-4.22-21.77,.17-43.54,.18-65.31,0-3.53-.03-4.16,1.09-4.15,4.32,.1,45.09,.07,90.19,.07,135.28,0,1,0,2-.03,3-.02,1.1-.66,1.57-1.71,1.58-1.11,0-2.01-.25-2.01-1.62,0-1-.02-2-.02-3,0-45.09-.03-90.19,.07-135.28,0-3.24-.63-4.31-4.14-4.28-21.88,.19-43.76,.15-65.64,.03-2.96-.02-3.71,.82-3.7,3.73,.09,45.54,.07,91.08,.02,136.61,0,1.4,1.01,3.46-1.79,3.84-3.11,.43-3.37-1.17-3.37-3.67,.05-45.2,.05-90.41,.03-135.61,0-5.49,.54-4.81-4.78-4.82-21.55-.02-43.1,.05-64.64-.08-3.05-.02-3.86,.8-3.86,3.85,.1,45.2,.07,90.41,.07,135.61,0,.89-.03,1.78,0,2.67,.05,1.39-.55,2.03-1.97,2.02-1.51-.01-1.88-.86-1.84-2.15,.03-.89,0-1.78,0-2.67,0-44.98,0-89.96,0-134.95q0-4.31-4.33-4.31c-21.77,0-43.54,.07-65.31-.08-3.17-.02-3.8,.98-3.8,3.93,.09,45.2,.06,90.41,.06,135.61,0,1-.01,2-.02,3-.01,1.35-.89,1.65-2.01,1.62-1.11-.03-2.34,.06-2.39-1.58-.03-1-.03-2-.03-3,0-45.09-.04-90.19,.07-135.28,0-3.27-.7-4.34-4.16-4.31-21.99,.16-43.98,.15-65.98,0-3.01-.02-3.65,.87-3.64,3.73,.09,45.32,.06,90.63,.06,135.95,0,1,0,2-.03,3-.04,1.19-.85,1.4-1.84,1.4-.95,0-1.84-.11-1.92-1.31-.06-1-.05-2-.05-3,0-43.43,.23-86.86-.25-130.28-.07-6.67-2.44-13.57-1.38-20.25,3.55-22.27,.99-44.62,1.51-66.92,.52-22.42,.11-44.87,.11-67.3,0-1.43-.32-2.96,2.03-2.87,2.46,.1,1.78,1.85,1.78,3.13,.03,45.32,.02,90.63,.03,135.95,0,5.67-.63,5,4.93,5,21.55,.02,43.1-.05,64.64,.07,3.16,.02,4.14-.82,4.14-4.08-.1-45.2-.07-90.4-.07-135.61,0-.89,.04-1.78,0-2.67-.07-1.54,.86-1.84,2.12-1.86,1.39-.02,2.44,.24,2.33,1.98-.05,.88,0,1.78,0,2.66,0,45.09,.03,90.19-.07,135.28,0,3.27,.67,4.34,4.17,4.31,21.88-.18,43.76-.15,65.64-.02,2.99,.02,3.7-.88,3.7-3.77-.09-45.2-.06-90.41-.06-135.61,0-.78,.02-1.56,0-2.33-.04-1.31,0-2.43,1.81-2.48,2.01-.05,2.06,1.2,2.01,2.64-.03,.78,0,1.55,0,2.33,0,44.98,.03,89.96-.07,134.95,0,3.21,.57,4.34,4.13,4.31,21.77-.19,43.54-.16,65.31-.03,3.06,.02,3.92-.81,3.92-3.89-.09-45.54-.07-91.08-.03-136.61,0-1.4-1.01-3.49,1.86-3.75,2.66-.24,3.33,.75,3.32,3.36-.08,42.09-.06,84.19-.06,126.28,0,3.55,.18,7.12-.06,10.66-.2,3.02,.74,3.97,3.87,3.95,20.44-.14,40.87-.07,61.31-.07q8.23,0,8.23-8.07c0-43.87,0-87.74,0-131.61,0-.89,.03-1.78,0-2.67-.03-1.28,.63-1.78,1.85-1.78,1.16,0,1.95,.35,1.91,1.69-.02,1,0,2,0,3,0,45.09,.04,90.19-.08,135.28,0,3.4,.88,4.26,4.25,4.24,21.77-.16,43.54-.15,65.31,0,3.17,.02,4.1-.77,4.09-4.02-.11-45.43-.08-90.85-.03-136.28,0-1.27-.9-3.02,1.04-3.77,2.2-.86,3.37,.23,3.37,3.13,0,17.66,0,35.32,0,52.98v89.96Z"/><path class="q" d="M645.41,444.13c.14,0,.25,.05,.33,.16,.02,46.62,.02,93.24,.13,139.85,0,2.83-1.25,2.93-3.4,2.92-22.2-.05-44.4-.08-66.6,.04-2.87,.02-3.46-.92-3.46-3.6,.08-45.17,.09-90.35-.02-135.52,0-3.05,.97-3.65,3.78-3.63,21.64,.11,43.29,.06,64.93,.04,1.43,0,2.87-.17,4.3-.26Zm-64.12,49.73c0,14.25,0,28.5,0,42.75-.45,2.22-.09,3.35,2.73,3.33,15.66-.14,31.32-.12,46.97-.01,2.37,.02,2.96-.69,2.95-3-.1-14.21-.13-28.43,.01-42.64,.03-2.76-.81-3.64-3.4-3-15.14,0-30.29,0-45.43,0-1.79,.09-4.61-1.34-3.83,2.57Z"/><path class="f" d="M70.34,570.17c0,21.2-.05,42.4,.06,63.61,.01,2.69-.59,3.59-3.45,3.57-16.65-.14-33.3-.13-49.95,0-2.8,.02-3.51-.8-3.51-3.54,.08-42.4,.08-84.81,0-127.21,0-2.61,.68-3.38,3.34-3.36,16.76,.12,33.52,.12,50.29,0,2.68-.02,3.29,.78,3.28,3.35-.1,21.2-.06,42.4-.06,63.61Zm-36.52-31.42c1,0,2-.06,2.99,.01,1.97,.14,3.31,.03,3.3-2.69-.01-2.6-1.15-2.97-3.23-2.78-1.1,.1-2.22-.04-3.32,.02-1.61,.1-2.42-.67-2.84-2.17-1.14-4.11,.41-8.76,3.61-10.61,3.81-2.2,8.96-1.64,11.64,1.38,3.02,3.4,4.71,6.73,.92,11.3-1.84,2.21-.86,3.44,.98,4.74,2,1.41,3.27,.82,4.55-1.12,5.86-8.87,1.5-20.58-8.72-23.24-8.18-2.13-15.31,1.5-17.88,9.12-.98,2.91-.87,5.92-.38,8.89,1.02,6.09,2.29,7.13,8.37,7.14Zm20.76,17.84c.78-2.6-.68-3.82-2.92-4.6-3.23-1.12-6.48-2.17-9.61-3.6-4.73-2.16-9.56-4.1-14.35-6.11-.66-.28-1.39-.9-2.1-.16-.98,1.02,0,5.74,1.44,6.06,3.98,.87,4.51,3.51,4.14,6.92-.18,1.64-.13,3.33-.01,4.98,.14,1.93-.47,3.28-2.47,3.68-3.07,.62-3.59,2.63-3.37,5.4,.15,1.9,.53,2.24,2.36,1.47,8.03-3.39,16.1-6.71,24.22-9.89,2.06-.81,3.26-1.76,2.68-4.14Zm-14.66,42.46c-4,0-8,.06-12-.03-1.8-.04-2.62,.46-2.58,2.43,.1,5.55,.09,11.11,0,16.66-.03,1.88,.88,2.17,2.46,2.19,1.69,.02,2.42-.53,2.37-2.3-.09-3.44,.11-6.89-.07-10.33-.15-2.92,1.73-2.59,3.49-2.48,1.67,.1,4.05-.93,3.88,2.39-.14,2.77,.05,5.55-.04,8.33-.06,2.03,1.2,1.96,2.62,2,1.49,.05,2.27-.36,2.22-2.03-.09-2.77,.11-5.56-.05-8.33-.15-2.7,1.6-2.55,3.26-2.34,1.7,.21,4.37-1.12,4.37,2.33,0,3.22,.06,6.44-.03,9.66-.04,1.66,.43,2.41,2.24,2.39,1.74-.02,2.66-.35,2.62-2.38-.11-5.22-.12-10.44,0-15.66,.05-2.18-.9-2.6-2.8-2.55-4,.1-8,.03-12,.04Zm-2.53-18.58c-3.22,0-6.45,.12-9.66-.04-2.73-.14-2.31,1.63-2.37,3.28-.06,1.71,0,3,2.37,2.93,4.99-.14,9.99-.04,14.99-.04,6.68,0,6.76,0,7.11,6.62,.1,1.87,.89,2.15,2.46,2.17,1.65,.02,2.43-.44,2.41-2.24-.07-6.44-.08-12.88,0-19.32,.02-1.85-.78-2.23-2.41-2.21-1.56,.02-2.61,.26-2.43,2.17,.1,1.1-.09,2.23,.03,3.33,.29,2.46-.77,3.43-3.19,3.36-3.11-.09-6.22-.02-9.32-.01Z"/><path class="h" d="M877.8,591c-22.75,0-45.49,.07-68.24-.08-3.29-.02-4.27,.7-4.26,4.16,.13,45.27,.09,90.53,.06,135.8,0,1.38,.52,2.91-.68,4.12-.52-.31-1.03-.31-1.52,.05-2.38-.36-1.35-2.24-1.36-3.42-.06-25.54-.05-51.09-.05-76.63,0-20.1-.08-40.2,.08-60.31,.03-3.2-1-3.77-3.9-3.75-21.88,.11-43.76,.12-65.64-.01-3.13-.02-4.09,.65-4.08,3.96,.12,45.31,.08,90.63,.08,135.94,0,.89-.01,1.78-.01,2.67,0,1.38-.91,1.68-2.01,1.59-1.02-.08-2.39,.22-2.41-1.52,0-.89-.01-1.78-.01-2.67,0-45.42-.03-90.85,.07-136.27,0-2.88-.61-3.72-3.62-3.7-22.32,.14-44.65,.15-66.97,0-3.13-.02-3.55,1.01-3.54,3.76,.08,45.42,.06,90.85,.06,136.27,0,.89-.02,1.78,0,2.67,.02,1.23-.78,1.46-1.75,1.45-.93,0-1.84-.11-1.89-1.34-.04-1-.04-2-.04-3,0-45.2-.04-90.4,.08-135.6,0-3.36-.83-4.23-4.21-4.21-21.99,.16-43.98,.13-65.97,.02-2.77-.01-3.5,.76-3.49,3.52,.09,45.42,.06,90.85,.06,136.27,0,1,0,2-.03,3-.04,1.22-.9,1.42-1.85,1.36-.94-.06-2.16,.18-2.3-1.27-.1-.99-.05-2-.05-3,0-45.09,0-90.18,0-135.27,0-5.11,.62-4.54-4.69-4.54-21.32-.02-42.65-.02-63.97,0-5.24,0-4.49-.56-4.49,4.34-.02,45.31,0,90.63-.04,135.94,0,1.15,.57,2.52-.55,3.43-1.37,1.11-3.65-.04-3.81-1.86-.07-.77-.02-1.55-.02-2.33,0-94.51,0-189.02,.04-283.54,0-1.55-1.16-4.21,2.34-3.72-.01,.22,.02,.44,.1,.64-.03,.55-.09,1.11-.09,1.66,0,46.3,.02,92.6-.07,138.9,0,3.03,1.23,3.39,3.75,3.38,22.43-.07,44.86-.04,67.29-.06,1.09,0,2.18-.23,3.27-.36,.59-.02,.95-.33,1.06-.91,.03-.66,.09-1.33,.09-1.99,0-46.88,0-93.76-.01-140.65,3.49-1.17,3.21,1.16,3.21,3.38-.01,45.41-.01,90.83-.01,136.24q0,4.3,4.39,4.3c21.99,0,43.97,0,65.96,0q4.37,0,4.38-4.26c0-45.08,0-90.16-.01-135.24,0-1.32-.2-2.64-.31-3.96,.37-1.6,1.62-1.23,2.67-1.12,1.34,.15,.92,1.29,.98,2.09,.07,.88,.02,1.77,.02,2.66,.01,46.17,.02,92.35,.03,138.52,.7,2.27,2.6,1.25,3.93,1.25,47.85,.06,95.71,.04,143.56,.04q4.5,0,4.5-4.5c0-45.19,0-90.38,.01-135.56,0-1.62-.45-3.39,1.2-4.59,1.41-.18,2.45,.06,2.31,1.85-.06,.77-.01,1.55-.01,2.33,0,45.1,0,90.2,.01,135.31,0,1.43,.17,2.86,.25,4.29,1.06,1.5,2.64,.85,3.99,.86,21.83,.04,43.65,.04,65.48,.02,2.23,0,4.37-.04,2.68,3.2Z"/><path class="t" d="M144.55,605.48c0-2.51-.19-5.04,.05-7.53,.27-2.74-.59-3.54-3.41-3.52-16.88,.14-33.76,.07-50.65,.07-4.66,0-9.33-.12-13.99,.05-2.12,.08-2.57-.62-2.55-2.62,.09-11.55,.13-23.1-.02-34.65-.03-2.5,.87-2.82,3.04-2.81,21.32,.08,42.65-.06,63.97,.14,3.64,.03,4.62-1.1,4.21-4.42-.16-1.24-.34-2.6,.34-4.08,5.63,7.04,9.19,15.13,13.74,22.6,.91,1.49,1.37,3.28,2.88,4.38,.67,.49,.7,1.11,.26,1.71-4.28,5.69-6.81,12.34-10.07,18.58-2.19,4.19-4.92,8.03-7.8,12.11Z"/><path class="t" d="M789.14,763.55c5.8,9.79,11.62,18.44,16.5,27.66,.63,1.19,.18,2.05-.31,3.09-4.88,10.27-11.05,19.83-16.82,29.92,0-2.44-.21-4.9,.05-7.31,.36-3.24-.55-4.27-4.05-4.24-20.53,.19-41.06,.03-61.59,.17-3.19,.02-4.39-.52-4.3-4.1,.28-10.76,.2-21.53,.03-32.29-.04-2.75,.67-3.53,3.46-3.52,21.08,.12,42.17,0,63.25,.13,2.97,.02,4.26-.64,3.8-3.77-.23-1.58-.04-3.21-.04-5.74Z"/><path class="c" d="M803.09,443.15c-1.65,1.2-1.2,2.98-1.2,4.59-.01,45.19-.01,90.38-.01,135.56q0,4.5-4.5,4.5c-47.85,0-95.71,.02-143.56-.04-1.32,0-3.23,1.02-3.93-1.25,1.24-1.2,.64-2.73,.64-4.09,.04-44.63,.02-89.25,.04-133.88,0-5.6-.81-5.05,5.22-5.06,20.54-.02,41.08,.01,61.61-.01,27.04-.03,54.07-.1,81.11-.16,1.53,0,3.05-.11,4.57-.17Zm-151.16,72.33c0,22.76,.04,45.51-.06,68.27-.01,2.59,.66,3.37,3.32,3.36,22.42-.11,44.85-.1,67.27,0,2.69,.01,3.62-.62,3.61-3.48-.09-45.18-.09-90.36,0-135.54,0-2.92-.77-3.75-3.72-3.74-22.31,.12-44.63,.11-66.94,0-2.76-.01-3.56,.73-3.55,3.53,.11,22.53,.06,45.07,.06,67.61Zm75.91-.06c0,22.66,.06,45.31-.07,67.97-.02,2.98,.81,3.69,3.71,3.67,21.99-.12,43.98-.12,65.97,0,2.83,.01,3.78-.57,3.77-3.63-.11-45.31-.1-90.62-.01-135.94,0-2.82-.83-3.5-3.56-3.49-22.1,.11-44.2,.13-66.3-.02-3.12-.02-3.58,1.05-3.57,3.81,.1,22.54,.06,45.09,.06,67.63Z"/><path class="h" d="M883.86,596.75c.05,.99,.15,1.99,.15,2.98,0,43.83,0,87.65,0,131.48,0,.67-.03,1.33,0,2,.06,1.55-.91,1.78-2.16,1.8-1.25,.02-2.23-.1-2.13-1.72,.06-.88,0-1.77,0-2.66,0-44.71,0-89.43-.01-134.14,2.15,.09,2.86-.97,2.7-3.05-.14-1.85,.04-3.72,.08-5.57,1.48,.4,1.19,1.63,1.22,2.68,.07,2.07,.1,4.14,.15,6.21Z"/><path class="c" d="M568.51,586.53c-.11,.58-.47,.89-1.06,.91-.12-.14-.25-.27-.38-.41,.04-.44,.12-.88,.12-1.32,0-46.16,0-92.31,.07-138.47,0-2.49-.99-2.88-3.14-2.87-13.76,.07-27.52,.06-41.28,.03-9.2-.02-18.41-.11-27.61-.18l.11-.67c11.65,.06,23.29,.14,34.94,.17,10.54,.03,21.08-.02,31.62,.03,1.95,0,3.65,.01,3.33-2.7-.19-1.59,.87-1.78,2.11-1.77,5.1,.02,10.21,.01,15.31,0,1.37,0,2.49,.28,2.36,1.99-.22,2.89,1.84,2.46,3.57,2.46,17.64,0,35.28,0,52.92,.02,1.31,0,2.67-.26,3.93,.39-1.43,.09-2.87,.26-4.3,.26-21.64,.02-43.29,.06-64.93-.04-2.82-.01-3.79,.58-3.78,3.63,.1,45.17,.09,90.35,.02,135.52,0,2.68,.59,3.61,3.46,3.6,22.2-.12,44.4-.08,66.6-.04,2.15,0,3.41-.09,3.4-2.92-.11-46.62-.11-93.23-.13-139.85l.24-.11,.2,.17c.11,1.32,.31,2.64,.31,3.96,.02,45.08,.01,90.16,.01,135.24q0,4.26-4.38,4.26c-21.99,0-43.97,0-65.96,0q-4.38,0-4.39-4.3c0-45.41,0-90.83,.01-136.24,0-2.22,.29-4.55-3.21-3.38-1.05,.98-.72,2.27-.72,3.45-.01,45.23-.01,90.46,0,135.7,0,1.19-.29,2.46,.65,3.49Z"/><path class="c" d="M882.49,587.86c-.04,1.86-.21,3.73-.08,5.57,.15,2.08-.55,3.14-2.7,3.05-1.51-.11-1.68-1.12-1.53-2.32,.14-1.09,.2-2.17-.38-3.17,1.69-3.24-.44-3.2-2.68-3.2-21.83,.01-43.65,.02-65.48-.02-1.34,0-2.93,.64-3.99-.86,1.28-1.3,.77-2.94,.77-4.44,.03-44.97,.07-89.94-.06-134.9-.01-3.49,1.02-4.2,4.29-4.18,21.65,.14,43.3,.01,64.96,.16,2.3,.02,4.5-1.38,6.8-.31,.03,48.21,.05,96.41,.08,144.62Zm-.72-71.95c0-22.64-.06-45.28,.07-67.92,.02-3.02-.9-3.66-3.75-3.65-22.42,.11-44.84,.11-67.26,0-2.8-.01-3.78,.55-3.78,3.61,.11,45.17,.11,90.34,0,135.51,0,3.03,.89,3.65,3.74,3.63,22.42-.11,44.84-.14,67.26,.02,3.22,.02,3.78-1.05,3.77-3.95-.11-22.42-.06-44.84-.06-67.26Z"/><path class="u" d="M882.49,587.86c-.03-48.21-.05-96.41-.08-144.62,1.09-.16,1.7,.23,1.67,1.41-.02,.89,0,1.77,0,2.66,0,42.01-.01,84.03,.04,126.04,0,1.89-1.27,4.69,2.46,4.96,.64,.05,.51,1.11,.52,1.75,0,4.65-.19,9.32,.08,13.96,.17,2.89-2.48,1.52-3.32,2.71-.05-2.07-.08-4.14-.15-6.21-.03-1.05,.26-2.28-1.22-2.68Z"/><path class="e" d="M935.77,587.03c0-2.32,.09-4.65-.03-6.96-.11-2.12,1.15-2.26,2.73-2.28,1.53-.02,2.54,.27,2.52,2.14-.07,4.75-.09,9.5,.01,14.25,.04,2.1-1.1,2.24-2.72,2.27-1.81,.03-2.64-.54-2.54-2.47,.12-2.31,.03-4.64,.03-6.96Z"/><path class="e" d="M575.17,406.62c-2.54,0-5.08-.04-7.62,.02-1.57,.04-2.43-.32-2.45-2.19-.02-1.96,.78-2.48,2.56-2.45,4.97,.06,9.94,.04,14.91,0,1.52,0,2.5,.29,2.52,2.17,.02,1.96-.9,2.5-2.63,2.46-2.43-.05-4.86-.01-7.29-.01Z"/><path class="e" d="M574.59,387.97c-2.43,0-4.85-.05-7.28,.02-1.53,.04-2.2-.55-2.2-2.11,0-1.54,.32-2.53,2.17-2.51,5.18,.06,10.37,.03,15.55,0,1.46,0,2.24,.46,2.24,2.09,0,1.61-.46,2.53-2.22,2.51-2.76-.03-5.51,0-8.27,0Z"/><path class="e" d="M574.93,381.91c-2.43,0-4.87-.08-7.3,.02-1.83,.08-2.54-.57-2.53-2.47,.02-1.84,.85-2.23,2.45-2.22,4.98,.05,9.95,.05,14.93,0,1.75-.02,2.64,.51,2.61,2.46-.03,1.85-1,2.22-2.53,2.2-2.54-.03-5.09,0-7.63,0Z"/><path class="e" d="M575.2,371.2c2.54,0,5.08,.03,7.62,0,1.74-.03,2.26,.84,2.26,2.47,0,1.6-.69,2.15-2.19,2.14-5.19-.03-10.38-.05-15.57,0-1.81,.02-2.23-.88-2.21-2.48,.02-1.52,.56-2.2,2.14-2.16,2.65,.07,5.3,.02,7.95,.02Z"/><path class="e" d="M575.2,433.17c2.54,0,5.08,.02,7.61,0,1.71-.02,2.28,.82,2.27,2.47-.01,1.59-.69,2.15-2.19,2.14-5.19-.03-10.37-.05-15.56,.01-1.81,.02-2.22-.87-2.21-2.46,.01-1.53,.56-2.21,2.14-2.17,2.65,.06,5.3,.02,7.94,.02Z"/><path class="e" d="M574.87,363.27c-2.43,0-4.87-.05-7.3,.02-1.58,.05-2.46-.34-2.47-2.19-.02-1.88,.68-2.52,2.53-2.49,4.98,.08,9.95,.04,14.93,.01,1.52,0,2.51,.3,2.53,2.17,.03,1.93-.81,2.53-2.59,2.49-2.54-.06-5.09-.02-7.63-.02Z"/><path class="e" d="M574.95,356.62c-2.54,0-5.08-.07-7.62,.03-1.83,.07-2.24-.87-2.23-2.44,.02-1.48,.53-2.23,2.13-2.21,5.19,.05,10.38,.03,15.56,0,1.44,0,2.27,.44,2.27,2.08,0,1.58-.39,2.56-2.18,2.54-2.65-.03-5.3,0-7.95,0Z"/><path class="e" d="M575.53,426.72c2.43,0,4.85,.03,7.28-.01,1.44-.02,2.26,.41,2.27,2.06,0,1.61-.47,2.53-2.22,2.52-5.29-.01-10.58-.02-15.88,0-1.46,0-1.89-.75-1.86-2.08,.03-1.29,0-2.49,1.8-2.48,2.87,.02,5.73,0,8.6,0v-.02Z"/><path class="e" d="M574.62,400.55c-2.43,0-4.87-.07-7.3,.02-1.85,.07-2.21-.9-2.2-2.46,0-1.47,.45-2.24,2.09-2.23,5.2,.06,10.4,.04,15.59,0,1.72-.01,2.28,.79,2.28,2.45,0,1.85-.96,2.24-2.5,2.22-2.65-.03-5.31,0-7.96-.01Z"/><path class="e" d="M575.02,425.25c-2.54,0-5.08-.07-7.62,.02-1.78,.07-2.27-.75-2.28-2.37-.02-1.72,.69-2.33,2.38-2.31,5.08,.06,10.16,.05,15.25,0,1.68-.01,2.35,.65,2.35,2.37,0,1.78-.85,2.32-2.44,2.29-2.54-.04-5.08,0-7.62-.01Z"/><path class="e" d="M574.91,419.17c-2.43,0-4.87-.07-7.3,.02-1.85,.07-2.52-.59-2.51-2.5,.02-1.88,.92-2.19,2.47-2.18,4.98,.04,9.95,.05,14.93,0,1.78-.02,2.61,.57,2.59,2.49-.02,1.88-1.03,2.18-2.54,2.17-2.54-.03-5.09,0-7.63,0Z"/><path class="r" d="M575.19,365.14c2.43,0,4.86,0,7.29,0,1.48,0,2.59,.31,2.55,2.19-.03,1.69-1.02,2.01-2.38,2.01-5.19,0-10.38-.03-15.57,0-1.42,0-1.91-.6-1.93-1.99-.03-1.53,.5-2.25,2.08-2.22,2.65,.05,5.3,.01,7.95,0Z"/><path class="r" d="M574.76,394.04c-2.54,0-5.08-.04-7.62,.01-1.66,.04-1.99-.81-1.99-2.28,0-1.48,.65-1.94,2-1.93,5.19,.02,10.39,0,15.58,0,1.4,0,2.31,.45,2.3,2.1-.01,1.64-.91,2.09-2.31,2.09-2.65,0-5.3,0-7.95,0Z"/><path class="r" d="M574.89,412.66c-2.55,0-5.11-.02-7.66,.02-1.36,.02-2.07-.48-2.08-1.92-.01-1.44,.37-2.32,2.05-2.31,5.22,.05,10.43,.02,15.65,.03,1.47,0,2.23,.65,2.18,2.24-.05,1.48-.88,1.92-2.14,1.93-2.67,.02-5.33,0-8,0Z"/><path class="e" d="M892.42,587.23c0,2.43-.03,4.86,0,7.29,.02,1.45-.69,1.92-2.05,1.9-1.25-.02-1.82-.54-1.82-1.78,0-4.97,.01-9.94,0-14.91,0-1.42,.68-1.91,2.05-1.91,1.54,0,1.84,.85,1.82,2.12-.03,2.43,0,4.86,0,7.29Z"/><path class="r" d="M897.8,587.19c0,2.43-.03,4.87,.01,7.3,.03,1.46-.7,1.91-2.04,1.92-1.36,.01-2.06-.45-2.05-1.9,.03-4.98,.03-9.95,.02-14.93,0-1.28,.63-1.73,1.85-1.73,1.23,0,2.22,.14,2.21,1.72-.02,2.54,0,5.09,0,7.63Z"/><path class="e" d="M903.03,587.23c0,2.33-.04,4.65,.01,6.98,.03,1.47-.39,2.28-2.06,2.24-1.5-.04-1.87-.8-1.86-2.1,.03-4.76,.03-9.52,0-14.28-.01-1.46,.38-2.26,2.06-2.24,1.83,.02,1.86,1.15,1.85,2.44,0,2.33,0,4.65,0,6.98Z"/><path class="r" d="M909.1,587.18c0,2.43-.03,4.87,.01,7.3,.02,1.43-.64,1.95-2.02,1.93-1.32-.02-2.09-.42-2.08-1.89,.03-4.87,.04-9.74,0-14.61-.01-1.6,.7-2.1,2.22-2.08,1.49,.02,1.91,.72,1.89,2.05-.04,2.43-.01,4.87-.01,7.3Z"/><path class="e" d="M914.24,587.1c0,2.43-.02,4.86,0,7.29,.01,1.32-.43,2.05-1.91,2.05-1.44,0-1.95-.65-1.94-2.01,.03-4.86,.02-9.72,0-14.57,0-1.33,.41-2.04,1.89-2.04,1.46,0,1.97,.67,1.96,2.01-.02,2.43,0,4.86,0,7.29Z"/><path class="e" d="M919.11,587.04c0,2.32,0,4.65,0,6.97,0,1.3-.07,2.41-1.87,2.43-1.68,.02-2.04-.83-2.03-2.27,.03-4.65,.02-9.29,0-13.94,0-1.33,.12-2.38,1.89-2.43,2.02-.06,2.02,1.19,2.01,2.6-.02,2.21,0,4.42,0,6.64Z"/><path class="r" d="M924.52,587.23c0,2.33-.05,4.65,.01,6.98,.04,1.53-.54,2.19-2.12,2.2-1.69,.01-2.03-.85-2.02-2.28,.04-4.76,.04-9.53,0-14.29-.01-1.37,.46-1.99,1.92-2.01,1.53-.01,2.26,.49,2.22,2.09-.06,2.44-.02,4.87-.02,7.31Z"/><path class="e" d="M925.82,587.09c0-2.43,.02-4.87,0-7.3-.02-1.4,.59-1.97,2-1.96,1.47,0,1.91,.71,1.9,2.06-.03,4.87-.03,9.74,0,14.61,0,1.42-.62,1.94-2.01,1.95-1.49,.01-1.92-.71-1.9-2.05,.04-2.43,.01-4.87,.01-7.3Z"/><path class="e" d="M945.76,587.18c0,2.32-.04,4.64,.01,6.96,.03,1.44-.32,2.31-2,2.3-1.5-.01-1.88-.77-1.88-2.07,.02-4.86,.02-9.72,0-14.58,0-1.37,.58-1.98,1.99-1.97,1.49,0,1.89,.77,1.88,2.08-.03,2.43,0,4.86,0,7.29Z"/><path class="r" d="M951.2,587.45c0,2.11,0,4.21,0,6.32,0,1.38,.03,2.66-2.01,2.66-1.89,0-2.16-.95-2.14-2.51,.06-4.54,.05-9.09,0-13.63-.02-1.56,.27-2.48,2.17-2.48,2.08,0,1.97,1.31,1.98,2.66,.01,2.33,0,4.65,0,6.98Z"/><path class="e" d="M1350.97,590.97c0-2.33,.02-4.65,0-6.98-.01-1.26,.24-2.11,1.8-2.15,1.64-.04,2.11,.72,2.1,2.21-.04,4.76-.02,9.53,0,14.29,0,1.27-.28,2.1-1.82,2.15-1.65,.04-2.11-.72-2.08-2.21,.06-2.44,.02-4.87,.02-7.31Z"/><path class="r" d="M1360.26,591.2c0,2.44-.03,4.88,.01,7.31,.03,1.42-.58,1.98-1.99,1.95-1.3-.02-2.14-.35-2.13-1.84,.02-4.99,.02-9.97,0-14.96,0-1.52,.92-1.76,2.18-1.78,1.45-.03,1.96,.62,1.94,2-.05,2.44-.01,4.88-.01,7.31Z"/><path class="e" d="M1366.37,591.2c0-2.44,.02-4.87-.01-7.31-.02-1.35,.46-2.04,1.92-2.04,1.42,0,1.98,.58,1.97,1.98-.03,4.87-.03,9.74,0,14.61,0,1.36-.44,2.04-1.91,2.03-1.42,0-2.01-.58-1.99-1.98,.04-2.44,.01-4.87,0-7.31Z"/><path class="r" d="M1375.52,581.78c0,6.26,0,12.52,0,18.78-3.04,.32-4.35-.76-4.03-4.08,.33-3.52,.34-7.12,0-10.64-.32-3.34,1.01-4.38,4.04-4.06Z"/><path class="r" d="M1361.61,591.14c0-2.44,.01-4.89,0-7.33,0-1.14,.28-1.92,1.66-1.92,1.28,0,1.82,.6,1.82,1.81,0,5-.01,9.99,0,14.99,0,1.28-.64,1.75-1.86,1.75-1.4,0-1.62-.85-1.61-1.97,.01-2.44,0-4.89,0-7.33Z"/><path class="r" d="M934.45,587.27c0,2.33-.02,4.65,0,6.98,.02,1.26-.23,2.17-1.79,2.14-1.39-.02-1.64-.86-1.64-1.97,0-4.87,0-9.74,0-14.62,0-1.11,.21-1.92,1.61-1.96,1.58-.04,1.83,.85,1.82,2.11-.02,2.44,0,4.87,0,7.31Z"/><path class="o" d="M430.06,837.43c-1.45,1.06-2.88,2.22-4.29,1.2-.74-.54-1.83-2.9,1.18-2.32,.95,.18,1.84,.65,3.11,1.12Z"/><path class="n" d="M399.25,836.98c1.91-.18,3.01-1.96,4.5-.53,.45,.43,.47,1.83-.16,2.06-1.34,.5-2.65-.1-4.33-1.53Z"/><path class="o" d="M410.21,837.27c.6-.57,.62-1.65,1.88-1.94,.49,1.19,1.32,2.46,.32,3.69-.99,1.2-1.58-.29-2.31-.71,.04-.34,.08-.69,.11-1.04Z"/><path class="o" d="M418.71,835.29c.39,1.54,.81,2.81-.39,3.61-.3,.2-1.71-.48-1.81-.94-.31-1.4,.88-1.96,2.2-2.67Z"/><path class="d" d="M410.21,837.27c-.04,.35-.08,.69-.11,1.04-.68,.17-1.21,1.89-1.97,.48-.44-.81-1.28-2.25-.21-3.03,1.55-1.12,1.27,1.35,2.29,1.51Z"/><path class="d" d="M421.21,839.37c-.94-1.21,.93-2.4-.23-3.7-.72-.81,.48-.55,.79-.55,.7,0,1.43,.3,1.08,1.17-.43,1.05-.54,2.32-1.64,3.08Z"/><path class="r" d="M495.32,443.55c-.04,.22-.07,.44-.11,.67-.45,.08-.89,.17-1.34,.25l-.58-.56c-.08-.21-.11-.42-.1-.64,.76-.32,1.49-.37,2.12,.28Z"/><path class="c" d="M803.16,735.05c.5-.36,1-.37,1.52-.05-.49,.51-.99,.69-1.52,.05Z"/><path class="m" d="M280.09,347.04c8.23-1.43,15.36-5.82,23.11-8.57,.92-.33,1.74-.97,2.58-1.51,8.38-5.37,16.32-11.26,23.97-17.69,7.53-6.33,14.34-13.27,21-20.42,5.49-5.91,9.66-12.62,13.32-19.89,7.59-15.07,14.78-30.31,22.23-45.44,3.31-6.72,6.01-13.77,9.85-20.17,7.01-11.66,11.8-24.37,18.11-36.33,4.29-8.12,7.25-16.9,12.01-24.67,6.57-10.73,10.84-22.51,16.74-33.5,3.3-6.13,6.17-12.44,9.07-18.73,5.9-12.8,12.99-24.99,19.02-37.74,4.24-8.96,8.29-18.04,12.79-26.89,4.32-8.51,8.76-16.96,12.99-25.51,.75-1.52,1.43-.89,2.27-.53,5.39,2.31,10.78,4.61,16.15,6.97,11.35,4.98,22.68,10,34.03,14.97,20.76,9.1,41.51,18.22,62.31,27.21,2.18,.94,1.88,1.26,.73,3.08-2.06,3.24-3.45,6.92-5.11,10.41-6.08,12.76-11.54,25.87-18.43,38.19-6.37,11.38-11.2,23.45-17.31,34.89-4.59,8.59-7.72,17.9-12.74,26.16-6.24,10.28-10.35,21.53-16.04,32.01-3.75,6.9-6.82,14.08-10.2,21.13-5.71,11.9-12.23,23.38-17.87,35.34-3.28,6.96-6.53,13.97-10.03,20.84-1.84,3.61-3.35,7.35-5.51,10.85-3.8,6.17-3.04,13.15-1.7,19.75,1.91,9.44,6.86,17.45,14.4,23.46,6.44,5.14,14.12,8.12,21.96,10.57,1.56,.49,3.13,.98,5.64,1.77H280.09Zm217.46-125.34c.26,.04,.68,.2,.76,.1,.25-.32-.06-.47-.34-.56-.2-.39-.34-.82-.61-1.15-6.91-8.72-14.73-16.7-21.18-25.79-.93-1.31-2.1-1.03-3.26-.95-7.3,.49-14.61,1.01-21.91,1.56-3.45,.26-6.89,.59-10.75,.92,1.98,1.86,4.06,2.06,5.87,2.79,1.91,.77,2.55,1.56,1.42,3.6-1.52,2.76-2.94,5.58-4.48,8.34-5.66,10.11-8.99,21.36-15.7,31.02-3.18,4.57-4.83,10.18-7.36,15.22-1.04,2.08-.72,2.99,1.44,3.9,9.56,4.03,19.05,8.23,28.57,12.36,2.23,.97,4.55,2.87,6.66,2.65,2.42-.25,2.7-3.65,3.91-5.68,.49-.82,1.27-1.48,1.69-2.33,3.81-7.69,7.23-15.55,11.36-23.1,4.08-7.47,7.29-15.4,10.92-23.12,2-4.26,2.13-4.26,6.23-2.52,2.24,.95,4.51,1.82,6.77,2.73Zm31.95-151.05c-16.09,0-32.18,.05-48.26-.05-2.62-.02-3.45,.77-3.42,3.41,.12,12.76,.12,25.52,0,38.28-.03,2.8,.97,3.62,3.67,3.62,31.84-.07,63.69-.07,95.53,0,3.02,0,4.11-1.03,4.08-4.07-.11-12.42-.13-24.85,.01-37.28,.03-3.07-.96-3.99-4.02-3.97-15.86,.13-31.73,.06-47.6,.06Zm-153.21,189.34c-1.16,.12-1.19,1.31-1.6,2.12-.67,1.34,.35,1.72,1.31,2.13,4.48,1.9,8.93,3.91,13.45,5.71,13.87,5.51,27.5,11.58,41.36,17.12,17.37,6.93,34.48,14.51,51.71,21.78,3.36,1.42,6.81,2.66,10.16,4.1,1.83,.79,2.24-.31,2.87-1.61,.81-1.69-.46-1.9-1.44-2.29-3.28-1.31-6.62-2.47-9.87-3.86-19.11-8.19-38.33-16.13-57.58-23.97-16.3-6.64-32.45-13.67-48.67-20.52-.51-.22-1.02-.42-1.7-.71Z"/><path class="c" d="M353.21,906.1c-2.17,.67-4.41,.3-6.61,.31-11.65,.04-23.29,.03-34.94,0-1.2,0-2.45,.23-3.6-.33,12.29-.08,24.58-.17,36.87-.22,2.76-.01,5.52,.15,8.28,.23Z"/><path class="c" d="M433.18,902.78c-2.07,.63-4.19,.29-6.28,.3-12.31,.04-24.62,.03-36.93,0-1.32,0-2.63-.19-3.95-.3,5.86-.58,11.73-.25,17.59-.23,9.85,.04,19.71-.36,29.56,.22Z"/><path class="s" d="M234.8,900.49c-.74,.91-1.48,1.82-2.73,2.07-.59-2.66,1.16-2.24,2.73-2.07Z"/><path class="h" d="M235.29,902.09c.47-1.03,1.41-.91,2.29-.91,14.2,0,28.4,0,42.6,0,.66,0,1.35-.04,1.81,.59-14.7-.02-29.4-.05-44.1-.05-.87,0-1.73,.24-2.6,.37Z"/><path class="h" d="M281.92,901.7c.24,.35,.49,.71,.73,1.06-.24-.35-.49-.71-.73-1.06Z"/><path class="s" d="M630.56,491.29c2.58-.63,3.42,.24,3.4,3-.14,14.21-.11,28.43-.01,42.64,.02,2.31-.57,3.01-2.95,3-15.66-.1-31.32-.13-46.97,.01-2.82,.03-3.18-1.1-2.73-3.33,.68-.85,.57-1.87,.57-2.85,0-12.35,0-24.7,0-37.04,0-.98,.12-2-.57-2.85-.78-3.92,2.04-2.48,3.83-2.57,.85,.69,1.86,.59,2.85,.59,13.24,0,26.49,0,39.73,0,.99,0,2,.1,2.85-.59Zm-22.86,1.22c-6.88,0-13.76-.04-20.64,.02-3.84,.03-4.5,.71-4.5,4.45-.02,12.21-.02,24.41,0,36.62,0,3.86,.73,4.71,4.66,4.73,13.65,.07,27.3,.02,40.95,.03,2.87,0,4.26-1.29,4.25-4.25-.05-12.43-.05-24.86,0-37.28,.01-3.07-1.25-4.41-4.41-4.35-6.77,.12-13.54,.04-20.31,.04Z"/><path class="e" d="M630.56,491.29c-.85,.69-1.86,.59-2.85,.59-13.24,0-26.49,0-39.73,0-.99,0-2,.1-2.85-.59,15.14,0,30.29,0,45.43,0Z"/><path class="e" d="M581.3,493.86c.69,.85,.57,1.87,.57,2.85,0,12.35,0,24.7,0,37.04,0,.98,.11,2-.57,2.85,0-14.25,0-28.5,0-42.75Z"/><path class="o" d="M33.82,538.75c-6.09-.02-7.36-1.05-8.37-7.14-.49-2.97-.6-5.97,.38-8.89,2.57-7.63,9.7-11.25,17.88-9.12,10.22,2.66,14.58,14.37,8.72,23.24-1.28,1.94-2.56,2.54-4.55,1.12-1.83-1.3-2.82-2.52-.98-4.74,3.79-4.56,2.1-7.89-.92-11.3-2.68-3.01-7.83-3.58-11.64-1.38-3.2,1.85-4.75,6.5-3.61,10.61,.42,1.5,1.23,2.27,2.84,2.17,1.1-.07,2.22,.07,3.32-.02,2.08-.19,3.21,.18,3.23,2.78,.01,2.72-1.33,2.83-3.3,2.69-.99-.07-2-.01-2.99-.01Z"/><path class="o" d="M54.58,556.59c.58,2.38-.62,3.33-2.68,4.14-8.12,3.18-16.19,6.5-24.22,9.89-1.83,.77-2.21,.44-2.36-1.47-.22-2.76,.31-4.78,3.37-5.4,1.99-.4,2.6-1.75,2.47-3.68-.12-1.65-.17-3.34,.01-4.98,.37-3.41-.16-6.04-4.14-6.92-1.44-.32-2.42-5.03-1.44-6.06,.71-.74,1.44-.12,2.1,.16,4.8,2.01,9.63,3.94,14.35,6.11,3.13,1.43,6.38,2.48,9.61,3.6,2.24,.78,3.7,2,2.92,4.6Zm-7.98-.35c-1.69-.77-3.06-1.43-4.45-2.02-5.98-2.55-6.07-2.48-5.61,4.07,.02,.22,.01,.44,.02,.66,.03,1.18,.59,1.65,1.7,1.16,2.69-1.18,5.58-1.97,8.34-3.87Z"/><path class="o" d="M39.92,599.05c4,0,8,.07,12-.03,1.9-.05,2.85,.37,2.8,2.55-.13,5.22-.11,10.44,0,15.66,.04,2.03-.88,2.36-2.62,2.38-1.81,.02-2.28-.73-2.24-2.39,.09-3.22,.03-6.44,.03-9.66,0-3.45-2.67-2.12-4.37-2.33-1.66-.21-3.42-.35-3.26,2.34,.16,2.77-.04,5.55,.05,8.33,.05,1.68-.73,2.08-2.22,2.03-1.42-.05-2.68,.03-2.62-2,.09-2.77-.1-5.56,.04-8.33,.16-3.32-2.21-2.29-3.88-2.39-1.76-.11-3.64-.43-3.49,2.48,.18,3.43-.02,6.89,.07,10.33,.04,1.76-.68,2.32-2.37,2.3-1.58-.02-2.49-.31-2.46-2.19,.08-5.55,.09-11.11,0-16.66-.03-1.96,.78-2.47,2.58-2.43,4,.09,8,.03,12,.02Z"/><path class="o" d="M37.38,580.47c3.11,0,6.22-.07,9.32,.02,2.41,.07,3.48-.9,3.19-3.36-.13-1.09,.07-2.23-.03-3.33-.18-1.91,.88-2.15,2.43-2.17,1.63-.02,2.43,.36,2.41,2.21-.09,6.44-.08,12.88,0,19.32,.02,1.8-.76,2.26-2.41,2.24-1.57-.02-2.36-.3-2.46-2.17-.35-6.63-.43-6.63-7.11-6.62-5,0-9.99-.1-14.99,.04-2.37,.07-2.43-1.23-2.37-2.93,.06-1.65-.36-3.42,2.37-3.28,3.21,.16,6.44,.04,9.66,.03Z"/><path class="c" d="M493.3,443.91c.19,.19,.39,.37,.58,.56,0,46.29,.04,92.59-.04,138.88,0,2.83,.58,3.78,3.62,3.76,23.2-.14,46.41-.08,69.61-.08,.13,.13,.25,.27,.38,.41-1.09,.13-2.18,.36-3.27,.36-22.43,.02-44.86-.01-67.29,.06-2.51,0-3.76-.35-3.75-3.38,.1-46.3,.07-92.6,.07-138.9,0-.55,.06-1.11,.09-1.66Z"/><path class="e" d="M568.51,586.53c-.94-1.03-.65-2.3-.65-3.49-.01-45.23-.01-90.46,0-135.7,0-1.18-.33-2.47,.72-3.45,0,46.88,.01,93.76,.01,140.65,0,.66-.06,1.33-.09,1.99Z"/><path class="k" d="M651.93,515.47c0-22.54,.05-45.07-.06-67.61-.01-2.79,.79-3.54,3.55-3.53,22.31,.11,44.63,.11,66.94,0,2.95-.02,3.73,.81,3.72,3.74-.09,45.18-.09,90.36,0,135.54,0,2.86-.93,3.49-3.61,3.48-22.42-.1-44.85-.1-67.27,0-2.66,.01-3.33-.77-3.32-3.36,.1-22.76,.06-45.51,.06-68.27Zm12.65,23.58c14.63,0,29.25,0,43.88,0,4.71,.29,4.69,.29,4.69-4.3,0-13.75-.06-27.51,.06-41.26,.02-2.53-.7-3.15-3.17-3.13-15.3,.12-30.61,.13-45.92,0-2.62-.02-3.08,.84-3.06,3.22,.11,14.08,.13,28.17-.02,42.25-.03,2.84,.71,3.93,3.53,3.2Z"/><path class="q" d="M727.85,515.41c0-22.54,.04-45.09-.06-67.63-.01-2.76,.45-3.83,3.57-3.81,22.1,.15,44.2,.12,66.3,.02,2.73-.01,3.56,.67,3.56,3.49-.09,45.31-.09,90.62,.01,135.94,0,3.05-.94,3.64-3.77,3.63-21.99-.11-43.98-.12-65.97,0-2.9,.02-3.73-.69-3.71-3.67,.13-22.66,.07-45.31,.07-67.97Zm6.85-21.22c0,14.13-.01,28.26-.02,42.39-.32,1.9-.5,3.37,2.38,3.35,15.99-.12,31.97-.09,47.96,0,2.14,.01,2.59-.77,2.58-2.72-.06-14.43-.09-28.86,.01-43.3,.02-2.55-.94-3.14-3.15-2.62-15.8-.04-31.6-.04-47.4-.16-2.47-.02-2.79,1.11-2.37,3.06Z"/><path class="q" d="M567.06,587.03c-23.2,0-46.41-.06-69.61,.08-3.04,.02-3.63-.93-3.62-3.76,.08-46.29,.05-92.59,.04-138.88,.45-.08,.89-.17,1.34-.25,9.2,.06,18.41,.16,27.61,.18,13.76,.03,27.52,.04,41.28-.03,2.15-.01,3.14,.38,3.14,2.87-.07,46.16-.06,92.31-.07,138.47,0,.44-.08,.88-.12,1.32Zm-65.76-50.83c-.7,2.88,.76,3.38,3.15,2.86,14.7,0,29.41,0,44.11,0,3.25,.01,4.12-1.63,4.08-4.77-.16-13.43-.13-26.86-.02-40.29,.02-2.61-.94-3.57-3.43-3.57-15.21,.03-30.41,.06-45.62-.04-2.31-.01-2.65,.94-2.26,2.79,0,14.34,0,28.68-.01,43.02Z"/><path class="q" d="M881.77,515.91c0,22.42-.05,44.84,.06,67.26,.01,2.9-.55,3.97-3.77,3.95-22.42-.15-44.84-.13-67.26-.02-2.85,.01-3.75-.61-3.74-3.63,.11-45.17,.11-90.34,0-135.51,0-3.07,.98-3.63,3.78-3.61,22.42,.1,44.84,.11,67.26,0,2.85-.01,3.77,.63,3.75,3.65-.13,22.64-.07,45.28-.07,67.92Zm-13.9-24.62c-15.15,0-30.3,0-45.45,0-2.66-.68-3.1,.56-3.08,2.98,.11,14.1,.12,28.21-.01,42.31-.03,2.62,.63,3.37,3.3,3.35,15.33-.13,30.65-.12,45.98,0,2.5,.02,3.18-.63,3.16-3.14-.13-13.99-.18-27.99,0-41.98,.04-3.2-.87-4.26-3.9-3.52Z"/><path class="t" d="M497.55,221.7c-2.26-.91-4.53-1.78-6.77-2.73-4.09-1.74-4.22-1.74-6.23,2.52-3.63,7.71-6.84,15.65-10.92,23.12-4.13,7.55-7.55,15.41-11.36,23.1-.42,.85-1.2,1.51-1.69,2.33-1.21,2.03-1.5,5.43-3.91,5.68-2.1,.22-4.43-1.68-6.66-2.65-9.52-4.13-19.01-8.33-28.57-12.36-2.16-.91-2.49-1.82-1.44-3.9,2.53-5.04,4.19-10.65,7.36-15.22,6.71-9.66,10.04-20.91,15.7-31.02,1.55-2.76,2.96-5.58,4.48-8.34,1.12-2.04,.49-2.83-1.42-3.6-1.81-.73-3.89-.93-5.87-2.79,3.87-.34,7.31-.67,10.75-.92,7.3-.55,14.6-1.07,21.91-1.56,1.16-.08,2.33-.37,3.26,.95,6.45,9.1,14.27,17.07,21.18,25.79,.27,.34,.41,.77,.61,1.15-.15,.14-.29,.3-.42,.46Z"/><path class="n" d="M529.5,70.65c15.87,0,31.73,.07,47.6-.06,3.06-.03,4.05,.9,4.02,3.97-.14,12.42-.12,24.85-.01,37.28,.03,3.04-1.06,4.08-4.08,4.07-31.84-.07-63.69-.07-95.53,0-2.7,0-3.7-.82-3.67-3.62,.12-12.76,.12-25.52,0-38.28-.02-2.64,.8-3.43,3.42-3.41,16.09,.1,32.18,.05,48.26,.05Zm.04,2.65c-15.09,0-30.18,.09-45.27-.07-3.14-.03-3.91,.97-3.87,3.96,.16,10.87,.13,21.74,.01,32.62-.03,2.56,.67,3.46,3.35,3.46,30.4-.08,60.8-.08,91.2,0,2.81,0,3.59-.97,3.56-3.67-.12-10.87-.15-21.75,.02-32.62,.05-2.94-.81-3.77-3.74-3.74-15.09,.14-30.18,.07-45.27,.07Z"/><path class="h" d="M376.29,260c.68,.28,1.19,.49,1.7,.71,16.22,6.85,32.36,13.88,48.67,20.52,19.26,7.84,38.47,15.78,57.58,23.97,3.24,1.39,6.59,2.55,9.87,3.86,.97,.39,2.25,.6,1.44,2.29-.62,1.3-1.04,2.39-2.87,1.61-3.35-1.44-6.79-2.68-10.16-4.1-17.23-7.27-34.34-14.85-51.71-21.78-13.86-5.53-27.5-11.6-41.36-17.12-4.52-1.8-8.97-3.8-13.45-5.71-.96-.41-1.98-.79-1.31-2.13,.41-.81,.44-2,1.6-2.12Z"/><path class="t" d="M497.97,221.24c.28,.09,.59,.24,.34,.56-.08,.1-.5-.06-.76-.1,.13-.16,.27-.32,.42-.46Z"/><path class="p" d="M607.7,492.51c6.77,0,13.54,.08,20.31-.04,3.15-.06,4.42,1.28,4.41,4.35-.05,12.43-.05,24.86,0,37.28,.01,2.96-1.37,4.25-4.25,4.25-13.65-.01-27.3,.04-40.95-.03-3.94-.02-4.66-.87-4.66-4.73-.02-12.21-.02-24.41,0-36.62,0-3.74,.66-4.42,4.5-4.45,6.88-.06,13.76-.02,20.64-.02Zm2.17,22.73h0c-1.78,.01-3.55,.04-5.33,0-.58-.01-1.1-.3-1.17-.95-.1-.93,.59-1.09,1.27-1.11,1.44-.04,2.89,0,4.33-.04,1.17-.03,2.6,.33,2.63-1.61,.03-1.91-1.34-1.67-2.55-1.69-.55,0-1.11,0-1.66,0-4.79-.01-4.91-.25-4.85-5.04,.02-1.6,1.13-1.97,1.94-2.8,1.24-1.27,1.37-2.77,.43-4.26-.88-1.4-2.27-1.72-3.8-1.34-1.71,.42-3.11,2.31-2.79,3.26,1.76,5.26,1.08,10.74,1.79,16.07,.29,2.17,.94,2.87,3.04,2.74,2.43-.14,4.89,.12,7.32-.07,2.22-.17,3.49,.53,4.23,2.7,.86,2.51,2.13,4.88,3.06,7.37,.61,1.65,1.64,1.96,3.11,1.43,1.36-.48,2.7-1.02,4.03-1.56,.69-.28,1.06-.77,.76-1.57-.25-.66-.64-1.43-1.38-1.06-2.76,1.37-3.41-.43-4.58-2.4-1.18-2-2.33-3.99-3.14-6.14-.57-1.51-1.51-2.04-3.04-1.94-1.22,.08-2.44,.02-3.66,.02Zm3.77,8.76c-1.02,1.34-1.85,2.51-2.76,3.6-4,4.77-9.77,4.26-13.94,.99-3.99-3.13-3.96-9.06-.31-13.03,.37-.41,.75-.84,1.19-1.15,1.37-.94,.54-1.96,.02-2.81-.77-1.26-1.59-.22-2.18,.24-3.77,2.93-5.75,6.84-5.08,11.58,.7,4.89,3.26,8.52,8.25,10.25,4.98,1.72,9.25,.72,13.45-2.21,3.48-2.42,3.89-3.59,1.34-7.47Z"/><path class="f" d="M46.6,556.24c-2.77,1.9-5.65,2.69-8.34,3.87-1.11,.49-1.67,.01-1.7-1.16,0-.22,0-.44-.02-.66-.46-6.55-.37-6.62,5.61-4.07,1.4,.59,2.76,1.25,4.45,2.02Z"/><path class="s" d="M664.58,539.05c-2.81,.73-3.56-.36-3.53-3.2,.14-14.08,.12-28.17,.02-42.25-.02-2.38,.44-3.24,3.06-3.22,15.3,.13,30.61,.12,45.92,0,2.47-.02,3.19,.6,3.17,3.13-.13,13.75-.07,27.5-.06,41.26,0,4.58,.02,4.58-4.69,4.3-.78-.56-1.68-.48-2.56-.48-12.92,0-25.85,0-38.77,0-.88,0-1.78-.09-2.55,.47Zm22.25-47.33c-6.55,0-13.1-.02-19.65,0-4.11,.01-4.72,.59-4.73,4.56-.02,12.21-.02,24.43,0,36.64,0,3.84,.65,4.53,4.43,4.54,13.21,.04,26.43,.04,39.64,0,3.55-.01,5.06-1.49,5.08-5.08,.06-11.88,.06-23.76,0-35.64-.02-3.53-1.59-5-5.11-5.02-6.55-.03-13.1,0-19.65-.01Z"/><path class="e" d="M664.58,539.05c.78-.57,1.68-.47,2.55-.47,12.92,0,25.85,0,38.77,0,.88,0,1.78-.08,2.56,.48-14.63,0-29.25,0-43.88,0Z"/><path class="s" d="M784.47,491.29c2.21-.52,3.17,.07,3.15,2.62-.11,14.43-.08,28.86-.01,43.3,0,1.94-.44,2.73-2.58,2.72-15.99-.08-31.97-.11-47.96,0-2.88,.02-2.7-1.44-2.38-3.35,.11-.09,.23-.12,.37-.1,.31,.01,.61,.02,.92,.03,1.09,1.22,2.41,1.84,4.08,1.83,13.96-.02,27.92-.01,41.88-.02,2.72,0,3.99-1.28,3.97-4.1-.06-12.52-.05-25.04,0-37.56,0-2.13-.62-3.68-2.84-4.24l1.4-1.15Z"/><path class="r" d="M784.47,491.29c-.47,.38-.93,.76-1.4,1.15-13.97,.04-27.93,.09-41.9,.11-1.8,0-3.56-.04-4.97,1.34l-1.29,.05c.02,.16-.05,.25-.21,.27-.42-1.96-.1-3.08,2.37-3.06,15.8,.12,31.6,.12,47.4,.16Z"/><path class="m" d="M734.7,494.19c.16-.02,.23-.11,.21-.27,.05,14.19,.1,28.38,.15,42.56-.14-.03-.26,0-.37,.1,0-14.13,.01-28.26,.02-42.39Z"/><path class="s" d="M501.32,493.17c-.39-1.85-.05-2.81,2.26-2.79,15.21,.1,30.41,.07,45.62,.04,2.49,0,3.45,.96,3.43,3.57-.11,13.43-.14,26.86,.02,40.29,.04,3.14-.83,4.79-4.08,4.77-.01-.18-.02-.36-.02-.54,.23-.37,.46-.74,.69-1.11,2.15-.88,1.81-2.84,1.81-4.52,.05-12.09,.04-24.18,.02-36.27,0-4.16-.73-4.88-4.82-4.89-12.87-.02-25.74-.01-38.61,0-4.64,0-5.07,.47-5.08,5.2-.05,12.53-.1,25.06-.16,37.59-.12,.05-.24,.09-.37,.13-.05-12.53-.09-25.07-.17-37.6,0-1.3,.31-2.68-.56-3.87Z"/><path class="u" d="M502.05,534.64c.12-.04,.25-.08,.37-.13,.37,3.02,2.56,3.21,4.91,3.21,9.65,0,19.31,.05,28.96-.03,4.32-.03,8.65,.39,12.95-.29-.23,.37-.46,.74-.69,1.11-13.74-.01-27.49-.03-41.23-.03-.98,0-2.01-.15-2.86,.57-2.39,.53-3.85,.02-3.15-2.86,.25-.52,.49-1.04,.74-1.55Z"/><path class="e" d="M504.46,539.05c.85-.72,1.88-.57,2.86-.57,13.74,0,27.49,.02,41.23,.03,0,.18,0,.36,.02,.54-14.7,0-29.41,0-44.11,0Z"/><path class="e" d="M502.05,534.64c-.25,.52-.49,1.03-.74,1.55,0-14.34,0-28.68,.01-43.02,.88,1.19,.55,2.56,.56,3.87,.07,12.53,.11,25.07,.17,37.6Z"/><path class="s" d="M867.87,491.29c3.04-.74,3.94,.32,3.9,3.52-.18,13.99-.14,27.99,0,41.98,.02,2.51-.66,3.16-3.16,3.14-15.33-.12-30.66-.13-45.98,0-2.67,.02-3.33-.72-3.3-3.35,.14-14.1,.12-28.21,.01-42.31-.02-2.42,.42-3.67,3.08-2.98,.7,.38,1.39,.76,2.09,1.13-2.95-.07-3.95,1.34-3.92,4.29,.13,12.2,.04,24.39,.06,36.59,0,4.07,.79,4.98,4.81,5.01,13.42,.07,26.83,.02,40.25,.04,2.82,0,4.29-1.12,4.28-4.16-.07-12.53-.04-25.06-.01-37.59,0-2.16-.77-3.62-2.94-4.18,.28-.38,.56-.76,.84-1.14Z"/><path class="r" d="M867.87,491.29c-.28,.38-.56,.76-.84,1.14-14.17,0-28.35,0-42.52,0-.7-.38-1.39-.76-2.09-1.13,15.15,0,30.3,0,45.45,0Z"/><path class="d" d="M529.54,73.3c15.09,0,30.18,.08,45.27-.07,2.93-.03,3.78,.8,3.74,3.74-.17,10.87-.14,21.74-.02,32.62,.03,2.7-.74,3.68-3.56,3.67-30.4-.08-60.8-.08-91.2,0-2.68,0-3.38-.89-3.35-3.46,.12-10.87,.15-21.75-.01-32.62-.04-2.99,.73-3.99,3.87-3.96,15.09,.16,30.18,.07,45.27,.07Zm-33.53,6.61c-2.66,0-5.33,.09-7.98-.03-2.11-.1-2.98,.61-2.94,2.83,.1,6.98,.09,13.97,0,20.95-.03,2.07,.55,3.03,2.8,2.98,5.32-.11,10.64-.07,15.96-.02,1.84,.02,2.91-.38,2.9-2.55,0-2.07-.85-2.72-2.79-2.67-3.21,.09-6.43-.01-9.64,.03-2.1,.03-3.86,.19-3.89-2.95-.03-3.02,1.5-3.17,3.73-3.1,3.1,.09,6.21,.02,9.31,.02,1.46,0,2.95,.18,3-2.05,.05-2.11-1.02-2.66-2.89-2.63-3.32,.06-6.66-.09-9.98,.05-2.25,.09-3.17-.62-3.15-3.01,.02-2.23,.62-3.23,3.02-3.12,3.43,.16,6.87,0,10.31,.05,1.76,.03,2.98-.21,2.96-2.47-.02-2.35-1.43-2.36-3.09-2.34-2.55,.03-5.1,0-7.65,0Zm17.81,.01c-.95,.11-2.23-.45-2.79,.45-.63,1,.51,1.83,1.06,2.57,1.9,2.57,3.88,5.09,5.91,7.57,1.32,1.61,1.26,2.93,.12,4.74-2.08,3.3-4.93,5.96-7.11,9.16-.95,1.39-.98,1.92,.99,2.25,4.17,.71,5.57-2.32,7.36-4.94,3.6-5.28,3.39-5.08,7.63-.42,1.96,2.15,3.04,5.89,7.28,5.37,2.14-.27,2.23-.82,1.1-2.36-2.42-3.31-4.7-6.73-7.23-9.95-.88-1.12-.91-1.59,0-2.72,2.15-2.67,4.07-5.53,6.01-8.37,.59-.87,1.97-1.84,1.31-2.81-.79-1.17-2.44-.47-3.73-.47-1,0-1.51,.81-2.06,1.51-1.55,2-3.15,3.97-4.68,5.98-1.27,1.66-2.45,1.76-3.64-.05-1.16-1.76-2.36-3.49-3.44-5.3-.94-1.58-2.13-2.54-4.07-2.21Zm48.39-.01c-3.21,0-6.42,.03-9.63-.01-1.61-.02-2.77,.17-2.77,2.28,0,1.98,.9,2.49,2.64,2.41,1.44-.07,2.89,.1,4.32-.04,2.34-.22,3.09,.77,3.04,3.06-.12,5.42,0,10.85-.05,16.28-.01,1.66,.29,2.72,2.33,2.76,2.16,.04,2.6-.99,2.56-2.86-.08-3.87-.02-7.75-.02-11.63,0-7.01,0-7.06,6.76-7.56,1.86-.14,2.5-.87,2.48-2.67-.02-1.98-1.24-2.03-2.66-2.02-2.99,.02-5.98,0-8.97,0Zm-16.95,13.78c0-3.76-.06-7.53,.03-11.29,.04-1.86-.68-2.56-2.53-2.53-1.78,.02-2.95,.25-2.92,2.49,.09,7.3,.07,14.61,0,21.91-.02,2.03,1.03,2.36,2.71,2.35,1.64-.01,2.8-.23,2.74-2.31-.1-3.54-.03-7.08-.02-10.62Z"/><path class="g" d="M609.87,515.24c1.22,0,2.45,.06,3.66-.02,1.53-.1,2.47,.43,3.04,1.94,.81,2.16,1.96,4.14,3.14,6.14,1.17,1.98,1.82,3.77,4.58,2.4,.74-.37,1.13,.4,1.38,1.06,.3,.8-.07,1.29-.76,1.57-1.33,.54-2.67,1.08-4.03,1.56-1.47,.53-2.5,.22-3.11-1.43-.93-2.49-2.21-4.86-3.06-7.37-.74-2.17-2.02-2.87-4.23-2.7-2.43,.18-4.89-.08-7.32,.07-2.1,.12-2.75-.58-3.04-2.74-.7-5.33-.03-10.81-1.79-16.07-.32-.95,1.08-2.84,2.79-3.26,1.53-.38,2.91-.06,3.8,1.34,.94,1.49,.81,2.99-.43,4.26-.81,.83-1.92,1.2-1.94,2.8-.07,4.78,.05,5.02,4.85,5.04,.55,0,1.11,0,1.66,0,1.21,.02,2.58-.22,2.55,1.69-.03,1.94-1.46,1.58-2.63,1.61-1.44,.03-2.89,0-4.33,.04-.69,.02-1.38,.18-1.27,1.11,.07,.65,.6,.94,1.17,.95,1.77,.04,3.55,.01,5.33,.01h0Z"/><path class="g" d="M613.64,524c2.55,3.87,2.14,5.04-1.34,7.47-4.2,2.93-8.48,3.93-13.45,2.21-5-1.73-7.56-5.36-8.25-10.25-.68-4.74,1.3-8.65,5.08-11.58,.59-.46,1.41-1.51,2.18-.24,.52,.85,1.35,1.87-.02,2.81-.45,.31-.82,.74-1.19,1.15-3.65,3.98-3.68,9.9,.31,13.03,4.16,3.27,9.94,3.77,13.94-.99,.91-1.09,1.74-2.26,2.76-3.6Z"/><path class="p" d="M686.83,491.72c6.55,0,13.1-.02,19.65,.01,3.52,.02,5.1,1.49,5.11,5.02,.05,11.88,.06,23.76,0,35.64-.02,3.59-1.53,5.07-5.08,5.08-13.21,.04-26.43,.04-39.64,0-3.78-.01-4.42-.71-4.43-4.54-.02-12.21-.02-24.43,0-36.64,0-3.96,.62-4.54,4.73-4.56,6.55-.02,13.1,0,19.65,0Zm2.84,22.71c-2.61,0-4.28,.05-5.94-.02-.72-.03-1.77,.1-1.81-.98-.04-1.14,1.03-.96,1.74-.99,1.99-.08,3.99-.11,5.99-.08,1.28,.02,1.8-.5,1.76-1.78-.04-1.15-.62-1.53-1.69-1.52-2,.02-4-.03-5.99,0-1.33,.02-2.67-.13-2.39-1.86,.28-1.77-1.62-4.34,1.16-5.18,2.37-.72,3.17-2,2.66-4.1-.68-2.76-3.16-2.54-5.17-2.34-2.11,.21-2.81,1.9-2.62,3.94,.36,3.98,.68,7.96,1.05,11.93q.57,6.18,6.76,6.19,7.57,.01,10.57,7.13c2.1,4.97,3.1,5.35,7.87,3.01,.79-.39,1.72-.58,1.23-1.87-.42-1.12-1.07-1.3-2.05-.8-1.93,.98-2.82,0-3.41-1.73-.36-1.05-.84-2.05-1.32-3.05-1.89-3.88-3.92-7.58-8.38-5.89Zm3.08,8.84c-.59,1.1-.99,2-1.52,2.82-2.92,4.53-9.99,5.68-14.43,2.37-4.46-3.32-4.87-9.31-.94-13.74,.44-.49,1.02-.92,1.29-1.49,.38-.83,.33-1.87-.25-2.53-.85-.97-1.61,.03-2.25,.5-3.46,2.55-5.37,6.32-5.13,10.3,.32,5.19,2.98,9.54,8.3,11.42,5.31,1.88,10.24,1.14,14.57-2.66,2.36-2.07,3.12-4.25,.36-7Z"/><path class="p" d="M736.19,493.88c1.41-1.38,3.18-1.33,4.97-1.34,13.97-.02,27.93-.07,41.9-.11,2.22,.56,2.84,2.11,2.84,4.24-.04,12.52-.05,25.04,0,37.56,.01,2.82-1.26,4.1-3.97,4.1-13.96,0-27.92,0-41.88,.02-1.67,0-2.99-.62-4.08-1.83-.05-12.57-.11-25.15-.13-37.72,0-1.64-.26-3.31,.35-4.92Zm16.1,12.17c.06,1.03,.11,2.8,.26,4.57q.64,7.81,8.37,7.82c.44,0,.9,.08,1.33,0,3.63-.74,5.36,1.44,6.65,4.3,.36,.81,.7,1.62,1.04,2.44q2.14,5.1,7.27,3.43c.99-.32,2.45-.16,1.95-1.91-.54-1.89-1.88-1.16-2.94-.71-1.61,.69-2.39,.15-2.97-1.4-.86-2.27-2.1-4.42-2.83-6.72-.72-2.24-2.05-2.84-4.22-2.66-2.09,.17-4.21,.14-6.31,.05-1.08-.05-2.97,.65-2.9-1.12,.07-1.67,1.95-.79,3.03-.96,.75-.12,1.55,.03,2.32-.04,1.2-.1,2.87,.54,2.79-1.72-.08-2.26-1.8-1.39-2.95-1.56-.65-.09-1.35,.09-1.99-.04-1.28-.26-3.44,.92-3.65-1.05-.21-2.05-1.77-4.56,.95-6.35,1.59-1.04,2.02-2.62,1.12-4.36-.91-1.77-2.45-2.06-4.25-1.61-2.04,.52-2.92,1.78-2.63,3.9,.23,1.64,.34,3.3,.57,5.7Zm14.1,18.07c-.52,.98-.96,1.97-1.55,2.86-2.97,4.46-9.46,5.46-13.85,2.16-4.28-3.22-4.71-9.34-.95-13.51,.65-.72,1.7-1.18,1.65-2.36-.03-.76,.02-1.59-.65-2.15-.44-.36-.81,.04-1.19,.21-4.55,2.05-7.48,7.88-6.38,12.68,2.34,10.23,14.96,14,22.79,6.81,3.66-3.36,3.67-3.56,.13-6.72Z"/><path class="h" d="M736.19,493.88c-.61,1.6-.35,3.28-.35,4.92,.02,12.57,.08,25.15,.13,37.72-.31-.01-.61-.02-.92-.03-.05-14.19-.1-28.38-.15-42.56,.43-.01,.86-.03,1.29-.04Z"/><path class="p" d="M549.25,537.41c-4.3,.68-8.64,.26-12.95,.29-9.65,.07-19.31,.02-28.96,.03-2.35,0-4.55-.19-4.91-3.21,.05-12.53,.11-25.06,.16-37.59,.02-4.73,.45-5.19,5.08-5.2,12.87-.01,25.74-.01,38.61,0,4.09,0,4.81,.73,4.82,4.89,.02,12.09,.03,24.18-.02,36.27,0,1.67,.34,3.64-1.81,4.52Zm-19.69-22.89c-2.29,0-3.84,.02-5.39,0-.86-.01-2.02,.17-2.09-1.05-.08-1.35,1.16-1.06,1.97-1.09,1.88-.06,3.77-.04,5.66-.02,1.16,.01,1.92-.31,1.92-1.67,0-1.37-.82-1.64-1.96-1.62-1.55,.02-3.11,.1-4.66-.04-1.19-.11-3.19,.77-3.32-1.09-.15-2.07-1.8-4.64,1.04-6.3,1.48-.87,2.49-2.16,1.51-3.76-.89-1.45-2.11-3-4.29-2.34-1.89,.58-2.56,1.96-2.39,3.85,.35,4.09,.68,8.17,1.04,12.26q.52,5.98,6.61,5.99c7.74,.02,7.63,.06,10.81,7.28,2.37,5.39,.71,4.97,7.07,3.07,.11-.03,.22-.05,.32-.1,.84-.4,2.1-.42,1.63-1.94-.43-1.42-1.35-1.16-2.36-.77-2.11,.8-3.31-.06-3.92-2.12-.28-.95-.9-1.8-1.15-2.76-1.19-4.59-3.57-7.3-8.03-5.78Zm3.32,8.69c-.33,.71-.56,1.2-.79,1.7-2,4.17-5.63,5.38-9.87,5.32-3.86-.05-7.79-2.94-9.17-6.59-1.47-3.89,.81-6.5,3.15-9.08,.3-.33,.69-.58,.95-.93,.76-1.04,.59-2.29-.09-3.1-.8-.96-1.5,.32-2.23,.64-1.58,.67-2.71,1.81-3.63,3.25-3.18,5-2.33,12.46,1.84,15.81,6.06,4.87,14.72,4.74,19.78-.17,2.21-2.14,2.7-4.18,.08-6.84Z"/><path class="p" d="M824.52,492.42c14.17,0,28.35,0,42.52,0,2.17,.55,2.95,2.02,2.94,4.18-.03,12.53-.05,25.06,.01,37.59,.02,3.04-1.45,4.16-4.28,4.16-13.42-.02-26.83,.03-40.25-.04-4.02-.02-4.8-.94-4.81-5.01-.02-12.2,.07-24.39-.06-36.59-.03-2.95,.97-4.36,3.92-4.29Zm23.16,22.82c-1.78,0-3.55,.01-5.33,0-.71,0-1.4-.24-1.38-1.08,.02-.88,.78-.96,1.45-.97,1.89-.03,3.77-.07,5.66-.03,1.28,.03,1.79-.5,1.75-1.78-.03-1.17-.6-1.54-1.66-1.52-1.66,.02-3.33,.04-4.99-.03-1.11-.05-2.85,.47-2.71-1.44,.14-1.91-1.66-4.41,1-5.67,2.04-.96,2.7-2.33,2.02-4.22-.85-2.37-2.96-2.33-5.02-2.05-2.25,.31-2.86,1.81-2.69,3.83,.45,5.3,.99,10.6,1.3,15.92,.11,1.83,.94,2.26,2.48,2.26,3.11,0,6.22,.08,9.32,0,2.03-.05,3.32,.72,4.07,2.63,.97,2.48,2.15,4.87,3.07,7.36,.61,1.66,1.54,1.98,3.05,1.31,.91-.4,1.84-.77,2.78-1.11,1-.36,1.87-.71,1.35-2.1-.47-1.29-1.3-.96-2.13-.57-1.75,.82-2.62,.09-3.18-1.56-.39-1.15-.95-2.24-1.44-3.36q-2.51-5.79-8.77-5.77Zm-5.66,19.34c4.21,.3,7.58-2.26,10.74-5.06,2.06-1.82,.82-4.17-.62-5.19-1.86-1.31-1.65,1.35-2.2,2.21-2.31,3.57-5.91,5.12-10.68,4.27-4.11-.73-6.89-3.39-7.55-7.33-.54-3.19,.4-5.97,2.76-8.13,1.37-1.26,1.98-2.88,.71-3.98-1.14-.99-2.29,.69-3.18,1.54-3.82,3.64-4.93,8.8-3.03,13.7,1.94,4.99,6.62,7.94,13.05,7.96Z"/><path class="n" d="M496.01,79.91c2.55,0,5.1,.02,7.65,0,1.66-.02,3.07-.02,3.09,2.34,.02,2.26-1.2,2.49-2.96,2.47-3.44-.05-6.88,.11-10.31-.05-2.4-.11-2.99,.88-3.02,3.12-.03,2.39,.9,3.1,3.15,3.01,3.32-.13,6.65,.01,9.98-.05,1.87-.03,2.93,.52,2.89,2.63-.05,2.23-1.54,2.05-3,2.05-3.1,0-6.21,.07-9.31-.02-2.23-.06-3.76,.08-3.73,3.1,.03,3.14,1.79,2.98,3.89,2.95,3.21-.05,6.43,.05,9.64-.03,1.94-.05,2.79,.61,2.79,2.67,0,2.18-1.06,2.57-2.9,2.55-5.32-.06-10.64-.1-15.96,.02-2.25,.05-2.83-.91-2.8-2.98,.09-6.98,.1-13.97,0-20.95-.03-2.22,.84-2.93,2.94-2.83,2.66,.12,5.32,.03,7.98,.03Z"/><path class="n" d="M513.82,79.93c1.95-.33,3.13,.63,4.07,2.21,1.08,1.81,2.29,3.54,3.44,5.3,1.19,1.81,2.37,1.71,3.64,.05,1.53-2.01,3.13-3.98,4.68-5.98,.55-.71,1.06-1.51,2.06-1.51,1.28,0,2.93-.7,3.73,.47,.66,.97-.71,1.94-1.31,2.81-1.94,2.84-3.86,5.7-6.01,8.37-.91,1.13-.88,1.6,0,2.72,2.53,3.22,4.81,6.64,7.23,9.95,1.13,1.54,1.04,2.09-1.1,2.36-4.24,.53-5.32-3.22-7.28-5.37-4.24-4.66-4.03-4.86-7.63,.42-1.79,2.63-3.18,5.65-7.36,4.94-1.97-.33-1.94-.85-.99-2.25,2.18-3.2,5.03-5.86,7.11-9.16,1.15-1.82,1.2-3.14-.12-4.74-2.03-2.48-4-5-5.91-7.57-.55-.75-1.69-1.58-1.06-2.57,.57-.89,1.85-.34,2.79-.45Z"/><path class="n" d="M562.21,79.91c2.99,0,5.98,.01,8.97,0,1.42,0,2.64,.05,2.66,2.02,.02,1.8-.61,2.54-2.48,2.67-6.76,.49-6.76,.55-6.76,7.56,0,3.88-.06,7.75,.02,11.63,.04,1.86-.39,2.9-2.56,2.86-2.04-.04-2.34-1.09-2.33-2.76,.04-5.43-.07-10.85,.05-16.28,.05-2.29-.7-3.28-3.04-3.06-1.43,.13-2.88-.03-4.32,.04-1.74,.08-2.65-.43-2.64-2.41,0-2.1,1.16-2.3,2.77-2.28,3.21,.04,6.42,.01,9.63,.01Z"/><path class="n" d="M545.26,93.7c0,3.54-.07,7.08,.03,10.62,.06,2.08-1.1,2.3-2.74,2.31-1.68,.01-2.73-.32-2.71-2.35,.07-7.3,.08-14.61,0-21.91-.03-2.24,1.15-2.47,2.92-2.49,1.85-.03,2.57,.67,2.53,2.53-.08,3.76-.03,7.52-.03,11.29Z"/><path class="g" d="M689.67,514.43c4.47-1.69,6.49,2,8.38,5.89,.49,1,.97,2.01,1.32,3.05,.59,1.73,1.48,2.72,3.41,1.73,.98-.5,1.63-.32,2.05,.8,.49,1.29-.44,1.48-1.23,1.87-4.77,2.34-5.77,1.96-7.87-3.01q-3-7.12-10.57-7.13-6.17,0-6.76-6.19c-.37-3.98-.69-7.96-1.05-11.93-.18-2.04,.51-3.72,2.62-3.94,2-.2,4.49-.42,5.17,2.34,.52,2.1-.29,3.39-2.66,4.1-2.78,.84-.88,3.42-1.16,5.18-.27,1.74,1.06,1.88,2.39,1.86,2-.03,4,.02,5.99,0,1.06-.01,1.65,.36,1.69,1.52,.05,1.28-.48,1.8-1.76,1.78-2-.03-3.99,0-5.99,.08-.71,.03-1.78-.15-1.74,.99,.04,1.08,1.09,.95,1.81,.98,1.66,.07,3.33,.02,5.94,.02Z"/><path class="g" d="M692.75,523.27c2.76,2.75,2,4.92-.36,7-4.33,3.8-9.26,4.54-14.57,2.66-5.32-1.88-7.98-6.23-8.3-11.42-.24-3.98,1.67-7.75,5.13-10.3,.64-.47,1.39-1.48,2.25-.5,.58,.66,.63,1.7,.25,2.53-.27,.57-.85,1-1.29,1.49-3.93,4.43-3.52,10.42,.94,13.74,4.44,3.31,11.51,2.16,14.43-2.37,.53-.82,.93-1.72,1.52-2.82Z"/><path class="g" d="M752.29,506.05c-.23-2.39-.35-4.05-.57-5.7-.29-2.12,.59-3.38,2.63-3.9,1.8-.46,3.34-.17,4.25,1.61,.9,1.74,.47,3.32-1.12,4.36-2.72,1.78-1.16,4.3-.95,6.35,.21,1.97,2.37,.79,3.65,1.05,.64,.13,1.34-.05,1.99,.04,1.15,.17,2.87-.7,2.95,1.56,.08,2.26-1.59,1.62-2.79,1.72-.77,.06-1.57-.09-2.32,.04-1.08,.18-2.96-.71-3.03,.96-.07,1.77,1.82,1.07,2.9,1.12,2.1,.09,4.22,.12,6.31-.05,2.17-.18,3.51,.42,4.22,2.66,.74,2.31,1.97,4.45,2.83,6.72,.59,1.55,1.36,2.09,2.97,1.4,1.06-.45,2.41-1.18,2.94,.71,.5,1.75-.96,1.59-1.95,1.91q-5.13,1.66-7.27-3.43c-.34-.82-.68-1.63-1.04-2.44-1.29-2.86-3.02-5.04-6.65-4.3-.43,.09-.88,0-1.33,0q-7.72-.02-8.37-7.82c-.14-1.77-.2-3.54-.26-4.57Z"/><path class="g" d="M766.39,524.11c3.54,3.15,3.54,3.35-.13,6.72-7.83,7.19-20.45,3.42-22.79-6.81-1.1-4.8,1.83-10.63,6.38-12.68,.38-.17,.75-.58,1.19-.21,.67,.56,.62,1.39,.65,2.15,.05,1.18-1,1.64-1.65,2.36-3.76,4.17-3.33,10.29,.95,13.51,4.39,3.29,10.88,2.3,13.85-2.16,.59-.89,1.03-1.89,1.55-2.86Z"/><path class="g" d="M529.56,514.51c4.46-1.52,6.84,1.18,8.03,5.78,.25,.95,.87,1.81,1.15,2.76,.61,2.06,1.81,2.92,3.92,2.12,1.01-.38,1.93-.65,2.36,.77,.46,1.52-.8,1.54-1.63,1.94-.1,.05-.21,.06-.32,.1-6.36,1.9-4.7,2.32-7.07-3.07-3.18-7.22-3.07-7.26-10.81-7.28q-6.08-.01-6.61-5.99c-.36-4.09-.69-8.17-1.04-12.26-.16-1.89,.5-3.27,2.39-3.85,2.18-.67,3.41,.89,4.29,2.34,.98,1.6-.03,2.9-1.51,3.76-2.83,1.66-1.19,4.23-1.04,6.3,.14,1.86,2.13,.99,3.32,1.09,1.54,.14,3.1,.06,4.66,.04,1.14-.02,1.95,.25,1.96,1.62,0,1.35-.75,1.68-1.92,1.67-1.89-.02-3.77-.04-5.66,.02-.81,.02-2.05-.26-1.97,1.09,.07,1.22,1.23,1.03,2.09,1.05,1.55,.03,3.11,0,5.39,0Z"/><path class="g" d="M532.88,523.2c2.63,2.66,2.13,4.7-.08,6.84-5.06,4.91-13.72,5.04-19.78,.17-4.17-3.35-5.02-10.81-1.84-15.81,.91-1.44,2.05-2.58,3.63-3.25,.74-.31,1.43-1.59,2.23-.64,.68,.81,.84,2.06,.09,3.1-.26,.35-.65,.6-.95,.93-2.34,2.58-4.62,5.19-3.15,9.08,1.38,3.65,5.31,6.54,9.17,6.59,4.24,.06,7.87-1.16,9.87-5.32,.24-.49,.46-.99,.79-1.7Z"/><path class="g" d="M847.68,515.24q6.26-.03,8.77,5.77c.48,1.12,1.05,2.21,1.44,3.36,.56,1.65,1.43,2.38,3.18,1.56,.82-.39,1.65-.72,2.13,.57,.51,1.39-.35,1.74-1.35,2.1-.94,.34-1.86,.71-2.78,1.11-1.51,.66-2.44,.34-3.05-1.31-.92-2.49-2.1-4.88-3.07-7.36-.75-1.91-2.03-2.69-4.07-2.63-3.1,.08-6.21,0-9.32,0-1.53,0-2.37-.43-2.48-2.26-.31-5.31-.85-10.61-1.3-15.92-.17-2.02,.44-3.52,2.69-3.83,2.06-.28,4.17-.32,5.02,2.05,.68,1.89,.01,3.26-2.02,4.22-2.66,1.26-.85,3.76-1,5.67-.14,1.91,1.6,1.39,2.71,1.44,1.66,.08,3.33,.05,4.99,.03,1.07-.02,1.63,.35,1.66,1.52,.04,1.28-.47,1.81-1.75,1.78-1.89-.04-3.77,0-5.66,.03-.67,.01-1.43,.09-1.45,.97-.02,.84,.67,1.08,1.38,1.08,1.78,.02,3.55,0,5.33,0Z"/><path class="g" d="M842.01,534.59c-6.43-.02-11.12-2.97-13.05-7.96-1.9-4.91-.8-10.06,3.03-13.7,.89-.85,2.04-2.53,3.18-1.54,1.27,1.1,.67,2.73-.71,3.98-2.36,2.16-3.3,4.94-2.76,8.13,.67,3.93,3.45,6.6,7.55,7.33,4.78,.85,8.38-.7,10.68-4.27,.55-.86,.34-3.52,2.2-2.21,1.44,1.01,2.68,3.37,.62,5.19-3.16,2.8-6.53,5.36-10.74,5.06Z"/></g><circle class="i" cx="608.85" cy="515.58" r="29.58"/><line class="l" x1="90.13" y1="565.18" x2="416.63" y2="563.75"/><polyline class="l" points="98.43 558 395.43 558 395.43 432 521.43 432 521.43 540"/><polyline class="l" points="116.43 549 422.43 549 422.43 423"/><g><polyline class="j" points="125.43 513 431.43 513 431.43 387 611.43 387 611.43 465.57"/><polygon class="b" points="594.48 445.65 611.43 462.61 628.38 445.65 628.38 460.05 611.43 477 594.48 460.05 594.48 445.65"/></g></svg>